M48
METRIC
T1C0.300
T2C0.750
T3C1.000
T4C3.200
%
G90
G05
T1
X107.2Y-71.4
X111.373Y-71.935
X111.8Y-67.4
X111.8Y-70.0
X111.8Y-71.2
X112.8Y-69.35
X113.387Y-70.557
X114.0Y-72.4
X114.085Y-69.53
X114.8Y-67.05
X116.395Y-72.714
X116.62Y-70.46
X117.213Y-69.851
X117.3Y-63.2
X117.542Y-71.942
X117.9Y-73.895
X118.2Y-63.2
X118.3Y-64.3
X118.326Y-70.522
X118.522Y-69.695
X118.6Y-73.3
X118.729Y-68.87
X119.0Y-75.0
X119.0Y-75.8
X119.2Y-78.0
X119.3Y-63.2
X119.3Y-64.3
X119.3Y-71.4
X119.3Y-72.3
X119.472Y-67.775
X119.7Y-66.4
X120.0Y-78.4
X120.5Y-69.2
X120.5Y-73.8
X120.7Y-70.1
X120.8Y-78.4
X121.15Y-68.098
X121.6Y-70.1
X121.6Y-73.8
X121.6Y-74.8
X121.6Y-78.4
X121.636Y-64.113
X122.4Y-78.4
X122.6Y-73.8
X122.6Y-74.8
X123.2Y-78.4
X123.6Y-73.8
X123.6Y-74.8
X123.8Y-70.4
X124.0Y-78.4
X124.6Y-73.8
X124.6Y-74.8
X124.7Y-63.825
X124.8Y-78.4
X125.6Y-78.4
X126.4Y-78.4
X126.5Y-63.9
X126.6Y-62.8
X127.8Y-61.9
X128.0Y-78.0
X128.8Y-61.9
X128.8Y-78.2
X129.16Y-59.46
X129.5Y-63.3
X130.0Y-64.6
X130.3Y-68.2
X130.75Y-71.225
X131.2Y-68.2
X131.2Y-74.8
X131.75Y-74.1
X132.4Y-68.2
X132.8Y-71.2
X133.7Y-68.4
X133.9Y-61.9
X134.6Y-68.4
X135.0Y-70.6
X135.0Y-74.0
X135.2Y-63.6
X135.4Y-68.9
X135.4Y-74.8
X135.5Y-69.8
X139.8Y-66.8
X140.0Y-69.4
X140.4Y-65.4
X140.5Y-64.5
X140.5Y-66.25
X140.8Y-61.0
X142.6Y-69.0
X144.4Y-59.75
X145.4Y-59.75
X146.25Y-59.75
X146.5Y-61.1
X146.5Y-62.0
X146.5Y-76.3
X146.5Y-77.5
X146.5Y-78.5
X146.5Y-79.6
X149.3Y-60.8
X149.3Y-61.7
X149.5Y-76.2
X149.5Y-77.5
X149.5Y-78.5
X149.6Y-79.6
X149.8Y-59.8
X150.9Y-59.8
X151.8Y-59.8
T2
X104.45Y-61.0
X104.45Y-63.0
X104.45Y-65.0
X104.45Y-67.0
X104.45Y-74.0
X104.45Y-76.0
X104.45Y-78.0
X112.0Y-74.55
X114.0Y-74.55
X116.0Y-74.55
X154.0Y-62.0
X154.0Y-64.0
T3
X118.46Y-60.9
X121.0Y-60.9
X123.54Y-60.9
X137.8Y-72.8
X137.8Y-75.34
X137.8Y-77.88
X141.7Y-72.8
X141.7Y-75.34
X141.7Y-77.88
T4
X110.6Y-62.0
X156.4Y-76.4
M30
