G04 #@! TF.GenerationSoftware,KiCad,Pcbnew,10.0.4*
G04 #@! TF.CreationDate,2026-06-30T19:08:48-07:00*
G04 #@! TF.ProjectId,lock,6c6f636b-2e6b-4696-9361-645f70636258,rev?*
G04 #@! TF.SameCoordinates,Original*
G04 #@! TF.FileFunction,Copper,L1,Top*
G04 #@! TF.FilePolarity,Positive*
%FSLAX46Y46*%
G04 Gerber Fmt 4.6, Leading zero omitted, Abs format (unit mm)*
G04 Created by KiCad (PCBNEW 10.0.4) date 2026-06-30 19:08:48*
%MOMM*%
%LPD*%
G01*
G04 APERTURE LIST*
G04 Aperture macros list*
%AMRoundRect*
0 Rectangle with rounded corners*
0 $1 Rounding radius*
0 $2 $3 $4 $5 $6 $7 $8 $9 X,Y pos of 4 corners*
0 Add a 4 corners polygon primitive as box body*
4,1,4,$2,$3,$4,$5,$6,$7,$8,$9,$2,$3,0*
0 Add four circle primitives for the rounded corners*
1,1,$1+$1,$2,$3*
1,1,$1+$1,$4,$5*
1,1,$1+$1,$6,$7*
1,1,$1+$1,$8,$9*
0 Add four rect primitives between the rounded corners*
20,1,$1+$1,$2,$3,$4,$5,0*
20,1,$1+$1,$4,$5,$6,$7,0*
20,1,$1+$1,$6,$7,$8,$9,0*
20,1,$1+$1,$8,$9,$2,$3,0*%
%AMFreePoly0*
4,1,14,0.334644,0.085355,0.385355,0.034644,0.400000,-0.000711,0.400000,-0.050000,0.385355,-0.085355,0.350000,-0.100000,-0.350000,-0.100000,-0.385355,-0.085355,-0.400000,-0.050000,-0.400000,0.050000,-0.385355,0.085355,-0.350000,0.100000,0.299289,0.100000,0.334644,0.085355,0.334644,0.085355,$1*%
%AMFreePoly1*
4,1,14,0.385355,0.085355,0.400000,0.050000,0.400000,0.000711,0.385355,-0.034644,0.334644,-0.085355,0.299289,-0.100000,-0.350000,-0.100000,-0.385355,-0.085355,-0.400000,-0.050000,-0.400000,0.050000,-0.385355,0.085355,-0.350000,0.100000,0.350000,0.100000,0.385355,0.085355,0.385355,0.085355,$1*%
%AMFreePoly2*
4,1,14,0.085355,0.385355,0.100000,0.350000,0.100000,-0.350000,0.085355,-0.385355,0.050000,-0.400000,-0.050000,-0.400000,-0.085355,-0.385355,-0.100000,-0.350000,-0.100000,0.299289,-0.085355,0.334644,-0.034644,0.385355,0.000711,0.400000,0.050000,0.400000,0.085355,0.385355,0.085355,0.385355,$1*%
%AMFreePoly3*
4,1,14,0.034644,0.385355,0.085355,0.334644,0.100000,0.299289,0.100000,-0.350000,0.085355,-0.385355,0.050000,-0.400000,-0.050000,-0.400000,-0.085355,-0.385355,-0.100000,-0.350000,-0.100000,0.350000,-0.085355,0.385355,-0.050000,0.400000,-0.000711,0.400000,0.034644,0.385355,0.034644,0.385355,$1*%
%AMFreePoly4*
4,1,14,0.385355,0.085355,0.400000,0.050000,0.400000,-0.050000,0.385355,-0.085355,0.350000,-0.100000,-0.299289,-0.100000,-0.334644,-0.085355,-0.385355,-0.034644,-0.400000,0.000711,-0.400000,0.050000,-0.385355,0.085355,-0.350000,0.100000,0.350000,0.100000,0.385355,0.085355,0.385355,0.085355,$1*%
%AMFreePoly5*
4,1,14,0.385355,0.085355,0.400000,0.050000,0.400000,-0.050000,0.385355,-0.085355,0.350000,-0.100000,-0.350000,-0.100000,-0.385355,-0.085355,-0.400000,-0.050000,-0.400000,-0.000711,-0.385355,0.034644,-0.334644,0.085355,-0.299289,0.100000,0.350000,0.100000,0.385355,0.085355,0.385355,0.085355,$1*%
%AMFreePoly6*
4,1,14,0.085355,0.385355,0.100000,0.350000,0.100000,-0.299289,0.085355,-0.334644,0.034644,-0.385355,-0.000711,-0.400000,-0.050000,-0.400000,-0.085355,-0.385355,-0.100000,-0.350000,-0.100000,0.350000,-0.085355,0.385355,-0.050000,0.400000,0.050000,0.400000,0.085355,0.385355,0.085355,0.385355,$1*%
%AMFreePoly7*
4,1,14,0.085355,0.385355,0.100000,0.350000,0.100000,-0.350000,0.085355,-0.385355,0.050000,-0.400000,0.000711,-0.400000,-0.034644,-0.385355,-0.085355,-0.334644,-0.100000,-0.299289,-0.100000,0.350000,-0.085355,0.385355,-0.050000,0.400000,0.050000,0.400000,0.085355,0.385355,0.085355,0.385355,$1*%
G04 Aperture macros list end*
G04 #@! TA.AperFunction,ComponentPad*
%ADD10C,3.600000*%
G04 #@! TD*
G04 #@! TA.AperFunction,ConnectorPad*
%ADD11C,6.400000*%
G04 #@! TD*
G04 #@! TA.AperFunction,SMDPad,CuDef*
%ADD12RoundRect,0.135000X0.185000X-0.135000X0.185000X0.135000X-0.185000X0.135000X-0.185000X-0.135000X0*%
G04 #@! TD*
G04 #@! TA.AperFunction,SMDPad,CuDef*
%ADD13RoundRect,0.140000X0.140000X0.170000X-0.140000X0.170000X-0.140000X-0.170000X0.140000X-0.170000X0*%
G04 #@! TD*
G04 #@! TA.AperFunction,SMDPad,CuDef*
%ADD14RoundRect,0.250000X-0.550000X1.500000X-0.550000X-1.500000X0.550000X-1.500000X0.550000X1.500000X0*%
G04 #@! TD*
G04 #@! TA.AperFunction,SMDPad,CuDef*
%ADD15RoundRect,0.135000X-0.185000X0.135000X-0.185000X-0.135000X0.185000X-0.135000X0.185000X0.135000X0*%
G04 #@! TD*
G04 #@! TA.AperFunction,SMDPad,CuDef*
%ADD16RoundRect,0.250000X-0.650000X1.000000X-0.650000X-1.000000X0.650000X-1.000000X0.650000X1.000000X0*%
G04 #@! TD*
G04 #@! TA.AperFunction,SMDPad,CuDef*
%ADD17RoundRect,0.135000X-0.135000X-0.185000X0.135000X-0.185000X0.135000X0.185000X-0.135000X0.185000X0*%
G04 #@! TD*
G04 #@! TA.AperFunction,SMDPad,CuDef*
%ADD18RoundRect,0.135000X0.135000X0.185000X-0.135000X0.185000X-0.135000X-0.185000X0.135000X-0.185000X0*%
G04 #@! TD*
G04 #@! TA.AperFunction,SMDPad,CuDef*
%ADD19RoundRect,0.147500X-0.147500X-0.172500X0.147500X-0.172500X0.147500X0.172500X-0.147500X0.172500X0*%
G04 #@! TD*
G04 #@! TA.AperFunction,SMDPad,CuDef*
%ADD20RoundRect,0.150000X0.150000X-0.512500X0.150000X0.512500X-0.150000X0.512500X-0.150000X-0.512500X0*%
G04 #@! TD*
G04 #@! TA.AperFunction,SMDPad,CuDef*
%ADD21RoundRect,0.150000X0.150000X-0.587500X0.150000X0.587500X-0.150000X0.587500X-0.150000X-0.587500X0*%
G04 #@! TD*
G04 #@! TA.AperFunction,ComponentPad*
%ADD22R,1.700000X1.700000*%
G04 #@! TD*
G04 #@! TA.AperFunction,ComponentPad*
%ADD23C,1.700000*%
G04 #@! TD*
G04 #@! TA.AperFunction,SMDPad,CuDef*
%ADD24FreePoly0,90.000000*%
G04 #@! TD*
G04 #@! TA.AperFunction,SMDPad,CuDef*
%ADD25RoundRect,0.050000X0.050000X-0.350000X0.050000X0.350000X-0.050000X0.350000X-0.050000X-0.350000X0*%
G04 #@! TD*
G04 #@! TA.AperFunction,SMDPad,CuDef*
%ADD26FreePoly1,90.000000*%
G04 #@! TD*
G04 #@! TA.AperFunction,SMDPad,CuDef*
%ADD27FreePoly2,90.000000*%
G04 #@! TD*
G04 #@! TA.AperFunction,SMDPad,CuDef*
%ADD28RoundRect,0.050000X0.350000X-0.050000X0.350000X0.050000X-0.350000X0.050000X-0.350000X-0.050000X0*%
G04 #@! TD*
G04 #@! TA.AperFunction,SMDPad,CuDef*
%ADD29FreePoly3,90.000000*%
G04 #@! TD*
G04 #@! TA.AperFunction,SMDPad,CuDef*
%ADD30FreePoly4,90.000000*%
G04 #@! TD*
G04 #@! TA.AperFunction,SMDPad,CuDef*
%ADD31FreePoly5,90.000000*%
G04 #@! TD*
G04 #@! TA.AperFunction,SMDPad,CuDef*
%ADD32FreePoly6,90.000000*%
G04 #@! TD*
G04 #@! TA.AperFunction,SMDPad,CuDef*
%ADD33FreePoly7,90.000000*%
G04 #@! TD*
G04 #@! TA.AperFunction,HeatsinkPad*
%ADD34R,1.700000X1.700000*%
G04 #@! TD*
G04 #@! TA.AperFunction,ComponentPad*
%ADD35RoundRect,0.250000X0.625000X-0.350000X0.625000X0.350000X-0.625000X0.350000X-0.625000X-0.350000X0*%
G04 #@! TD*
G04 #@! TA.AperFunction,ComponentPad*
%ADD36O,1.750000X1.200000*%
G04 #@! TD*
G04 #@! TA.AperFunction,ComponentPad*
%ADD37RoundRect,0.250000X-0.350000X-0.625000X0.350000X-0.625000X0.350000X0.625000X-0.350000X0.625000X0*%
G04 #@! TD*
G04 #@! TA.AperFunction,ComponentPad*
%ADD38O,1.200000X1.750000*%
G04 #@! TD*
G04 #@! TA.AperFunction,SMDPad,CuDef*
%ADD39RoundRect,0.250000X0.550000X-1.500000X0.550000X1.500000X-0.550000X1.500000X-0.550000X-1.500000X0*%
G04 #@! TD*
G04 #@! TA.AperFunction,SMDPad,CuDef*
%ADD40RoundRect,0.140000X-0.140000X-0.170000X0.140000X-0.170000X0.140000X0.170000X-0.140000X0.170000X0*%
G04 #@! TD*
G04 #@! TA.AperFunction,ComponentPad*
%ADD41RoundRect,0.250000X-0.625000X0.350000X-0.625000X-0.350000X0.625000X-0.350000X0.625000X0.350000X0*%
G04 #@! TD*
G04 #@! TA.AperFunction,SMDPad,CuDef*
%ADD42RoundRect,0.250000X-0.650000X0.325000X-0.650000X-0.325000X0.650000X-0.325000X0.650000X0.325000X0*%
G04 #@! TD*
G04 #@! TA.AperFunction,SMDPad,CuDef*
%ADD43RoundRect,0.140000X0.170000X-0.140000X0.170000X0.140000X-0.170000X0.140000X-0.170000X-0.140000X0*%
G04 #@! TD*
G04 #@! TA.AperFunction,SMDPad,CuDef*
%ADD44RoundRect,0.250000X-2.600000X0.600000X-2.600000X-0.600000X2.600000X-0.600000X2.600000X0.600000X0*%
G04 #@! TD*
G04 #@! TA.AperFunction,SMDPad,CuDef*
%ADD45RoundRect,0.150000X0.587500X0.150000X-0.587500X0.150000X-0.587500X-0.150000X0.587500X-0.150000X0*%
G04 #@! TD*
G04 #@! TA.AperFunction,SMDPad,CuDef*
%ADD46RoundRect,0.250000X0.250000X0.475000X-0.250000X0.475000X-0.250000X-0.475000X0.250000X-0.475000X0*%
G04 #@! TD*
G04 #@! TA.AperFunction,ViaPad*
%ADD47C,0.600000*%
G04 #@! TD*
G04 #@! TA.AperFunction,Conductor*
%ADD48C,0.200000*%
G04 #@! TD*
G04 #@! TA.AperFunction,Conductor*
%ADD49C,0.500000*%
G04 #@! TD*
G04 #@! TA.AperFunction,Conductor*
%ADD50C,1.000000*%
G04 #@! TD*
G04 #@! TA.AperFunction,Conductor*
%ADD51C,0.250000*%
G04 #@! TD*
G04 #@! TA.AperFunction,Conductor*
%ADD52C,0.400000*%
G04 #@! TD*
G04 #@! TA.AperFunction,Conductor*
%ADD53C,0.300000*%
G04 #@! TD*
G04 APERTURE END LIST*
D10*
X156400000Y-76400000D03*
D11*
X156400000Y-76400000D03*
D12*
X124800000Y-65420000D03*
X124800000Y-64400000D03*
D13*
X113680000Y-71400000D03*
X112720000Y-71400000D03*
D14*
X148000000Y-72400000D03*
X148000000Y-77800000D03*
D15*
X107200000Y-69600000D03*
X107200000Y-70620000D03*
D16*
X128000000Y-64000000D03*
X128000000Y-68000000D03*
D15*
X110600000Y-71090000D03*
X110600000Y-72110000D03*
D17*
X138090000Y-66800000D03*
X139110000Y-66800000D03*
D18*
X130447500Y-78350000D03*
X129427500Y-78350000D03*
D19*
X108315000Y-69600000D03*
X109285000Y-69600000D03*
D20*
X122850000Y-69237500D03*
X123800000Y-69237500D03*
X124750000Y-69237500D03*
X124750000Y-66962500D03*
X123800000Y-66962500D03*
X122850000Y-66962500D03*
D21*
X128200000Y-73000000D03*
X130100000Y-73000000D03*
X129150000Y-71125000D03*
D12*
X131837500Y-73060000D03*
X131837500Y-72040000D03*
D22*
X141700000Y-72800000D03*
D23*
X141700000Y-75340000D03*
X141700000Y-77880000D03*
D24*
X114000000Y-68500000D03*
D25*
X114400000Y-68500000D03*
X114800000Y-68500000D03*
X115200000Y-68500000D03*
D26*
X115600000Y-68500000D03*
D27*
X116250000Y-67850000D03*
D28*
X116250000Y-67450000D03*
X116250000Y-67050000D03*
X116250000Y-66650000D03*
D29*
X116250000Y-66250000D03*
D30*
X115600000Y-65600000D03*
D25*
X115200000Y-65600000D03*
X114800000Y-65600000D03*
X114400000Y-65600000D03*
D31*
X114000000Y-65600000D03*
D32*
X113350000Y-66250000D03*
D28*
X113350000Y-66650000D03*
X113350000Y-67050000D03*
X113350000Y-67450000D03*
D33*
X113350000Y-67850000D03*
D34*
X114800000Y-67050000D03*
D15*
X133937500Y-72040000D03*
X133937500Y-73060000D03*
D35*
X154000000Y-64000000D03*
D36*
X154000000Y-62000000D03*
D17*
X137200000Y-61600000D03*
X138220000Y-61600000D03*
D37*
X112000000Y-74550000D03*
D38*
X114000000Y-74550000D03*
X116000000Y-74550000D03*
D39*
X148000000Y-66700000D03*
X148000000Y-61300000D03*
D12*
X141900000Y-70510000D03*
X141900000Y-69490000D03*
D18*
X136610000Y-65800000D03*
X135590000Y-65800000D03*
D40*
X139120000Y-61600000D03*
X140080000Y-61600000D03*
D41*
X104450000Y-61000000D03*
D36*
X104450000Y-63000000D03*
X104450000Y-65000000D03*
X104450000Y-67000000D03*
D18*
X131820000Y-63300000D03*
X130800000Y-63300000D03*
X134020000Y-65000000D03*
X133000000Y-65000000D03*
D42*
X133900000Y-66525000D03*
X133900000Y-69475000D03*
D21*
X137750000Y-65200000D03*
X139650000Y-65200000D03*
X138700000Y-63325000D03*
D18*
X144010000Y-70500000D03*
X142990000Y-70500000D03*
D17*
X114890000Y-71800000D03*
X115910000Y-71800000D03*
D22*
X118460000Y-60900000D03*
D23*
X121000000Y-60900000D03*
X123540000Y-60900000D03*
D22*
X137800000Y-72800000D03*
D23*
X137800000Y-75340000D03*
X137800000Y-77880000D03*
D18*
X131820000Y-65000000D03*
X130800000Y-65000000D03*
D43*
X118800000Y-67080000D03*
X118800000Y-66120000D03*
D41*
X104450000Y-74000000D03*
D36*
X104450000Y-76000000D03*
X104450000Y-78000000D03*
D44*
X123000000Y-71750000D03*
X123000000Y-76250000D03*
D21*
X133050000Y-61937500D03*
X134950000Y-61937500D03*
X134000000Y-60062500D03*
D42*
X131000000Y-66500000D03*
X131000000Y-69450000D03*
D13*
X115880000Y-69800000D03*
X114920000Y-69800000D03*
D15*
X131437500Y-77290000D03*
X131437500Y-78310000D03*
D45*
X129937500Y-76950000D03*
X129937500Y-75050000D03*
X128062500Y-76000000D03*
D16*
X142300000Y-63200000D03*
X142300000Y-67200000D03*
D46*
X123350000Y-64600000D03*
X121450000Y-64600000D03*
D15*
X132937500Y-72040000D03*
X132937500Y-73060000D03*
D10*
X110600000Y-62000000D03*
D11*
X110600000Y-62000000D03*
D12*
X140800000Y-70510000D03*
X140800000Y-69490000D03*
D13*
X115880000Y-70800000D03*
X114920000Y-70800000D03*
D45*
X134075000Y-76900000D03*
X134075000Y-75000000D03*
X132200000Y-75950000D03*
D17*
X133490000Y-63500000D03*
X134510000Y-63500000D03*
X134490000Y-79600000D03*
X135510000Y-79600000D03*
D47*
X121150000Y-68098320D03*
X118522251Y-69694714D03*
X107200000Y-71400000D03*
X151800000Y-59800000D03*
X120700000Y-70100000D03*
X131750000Y-74100000D03*
X128800000Y-61900000D03*
X124000000Y-78400000D03*
X149300000Y-60800000D03*
X144400000Y-59750000D03*
X149500000Y-78500000D03*
X146500000Y-79600000D03*
X140400000Y-65400000D03*
X146500000Y-76300000D03*
X121636425Y-64113145D03*
X134600000Y-68400000D03*
X146250000Y-59750000D03*
X129500000Y-63300000D03*
X149500000Y-76200000D03*
X146500000Y-77500000D03*
X114084895Y-69530359D03*
X119200000Y-78000000D03*
X128000000Y-78000000D03*
X126600000Y-62800000D03*
X124700000Y-63825000D03*
X121600000Y-78400000D03*
X149300000Y-61700000D03*
X126500000Y-63900000D03*
X135500000Y-69800000D03*
X135400000Y-68900000D03*
X130300000Y-68200000D03*
X133700000Y-68400000D03*
X140000000Y-69400000D03*
X114800000Y-67050000D03*
X119000000Y-75800000D03*
X119000000Y-75000000D03*
X130000000Y-64600000D03*
X131200000Y-74800000D03*
X111800000Y-71200000D03*
X139800000Y-66800000D03*
X120800000Y-78400000D03*
X142600000Y-69000000D03*
X130750470Y-71225000D03*
X119700000Y-66400000D03*
X123200000Y-78400000D03*
X119300000Y-63200000D03*
X118300000Y-64300000D03*
X126400000Y-78400000D03*
X149800000Y-59800000D03*
X119300000Y-71400000D03*
X149600000Y-79600000D03*
X119300000Y-64300000D03*
X131200000Y-68200000D03*
X140800000Y-61000000D03*
X146500000Y-62000000D03*
X122400000Y-78400000D03*
X123800000Y-70400000D03*
X120000000Y-78400000D03*
X125600000Y-78400000D03*
X150900000Y-59800000D03*
X128800000Y-78200000D03*
X127800000Y-61900000D03*
X140500000Y-66250000D03*
X119300000Y-72300000D03*
X140500000Y-64500000D03*
X145400000Y-59750000D03*
X149500000Y-77500000D03*
X135400000Y-74800000D03*
X146500000Y-78500000D03*
X132400000Y-68200000D03*
X135200000Y-63600000D03*
X135000000Y-74000000D03*
X124800000Y-78400000D03*
X121600000Y-70100000D03*
X146500000Y-61100000D03*
X117300000Y-63200000D03*
X118200000Y-63200000D03*
X114000000Y-72400000D03*
X118729265Y-68870305D03*
X135000000Y-70600000D03*
X116620261Y-70460500D03*
X113387334Y-70556849D03*
X111372559Y-71934710D03*
X122600000Y-73800000D03*
X123600000Y-74800000D03*
X121600000Y-74800000D03*
X122600000Y-74800000D03*
X123600000Y-73800000D03*
X124600000Y-74800000D03*
X132800000Y-71200000D03*
X117542173Y-71942175D03*
X124600000Y-73800000D03*
X120500000Y-73800000D03*
X121600000Y-73800000D03*
X118600000Y-73300000D03*
X111800000Y-70000000D03*
X129159620Y-59459620D03*
X118326161Y-70521789D03*
X119472438Y-67775000D03*
X117212910Y-69851179D03*
X120500000Y-69200000D03*
X116394744Y-72713984D03*
X111800000Y-67400000D03*
X133900000Y-61900000D03*
X117900001Y-73895018D03*
X112800000Y-69350000D03*
D48*
X124800000Y-65420000D02*
X124800000Y-66912500D01*
X124750000Y-66962500D02*
X124750000Y-67850000D01*
X117934747Y-69017683D02*
X118522251Y-69605187D01*
X121251680Y-68200000D02*
X121150000Y-68098320D01*
X117934747Y-68684097D02*
X117934747Y-69017683D01*
X116250000Y-67450000D02*
X116700650Y-67450000D01*
X124750000Y-67850000D02*
X124400000Y-68200000D01*
X118522251Y-69605187D02*
X118522251Y-69694714D01*
X116700650Y-67450000D02*
X117934747Y-68684097D01*
X124400000Y-68200000D02*
X121251680Y-68200000D01*
X124800000Y-66912500D02*
X124750000Y-66962500D01*
X140090000Y-69490000D02*
X140000000Y-69400000D01*
X139650000Y-65200000D02*
X140200000Y-65200000D01*
X114800000Y-69680000D02*
X114800000Y-68500000D01*
X141900000Y-69490000D02*
X142110000Y-69490000D01*
X139110000Y-66800000D02*
X139800000Y-66800000D01*
X134075000Y-75000000D02*
X135200000Y-75000000D01*
X128950000Y-78350000D02*
X128800000Y-78200000D01*
X112379524Y-71400000D02*
X112179524Y-71200000D01*
X135200000Y-75000000D02*
X135400000Y-74800000D01*
X142110000Y-69490000D02*
X142600000Y-69000000D01*
X130400000Y-65000000D02*
X130000000Y-64600000D01*
X114920000Y-69800000D02*
X114800000Y-69680000D01*
D49*
X121450000Y-64299570D02*
X121636425Y-64113145D01*
D48*
X140080000Y-61600000D02*
X140200000Y-61600000D01*
X134510000Y-63500000D02*
X135100000Y-63500000D01*
X124800000Y-64400000D02*
X124800000Y-63925000D01*
X140200000Y-61600000D02*
X140800000Y-61000000D01*
X107200000Y-70620000D02*
X107200000Y-71400000D01*
X124800000Y-63925000D02*
X124700000Y-63825000D01*
X114920000Y-70800000D02*
X114920000Y-69800000D01*
X134950000Y-61937500D02*
X134950000Y-63060000D01*
X134950000Y-63060000D02*
X134510000Y-63500000D01*
X129427500Y-78350000D02*
X128950000Y-78350000D01*
X130950000Y-75050000D02*
X131200000Y-74800000D01*
X130800000Y-65000000D02*
X130400000Y-65000000D01*
X123800000Y-69237500D02*
X123800000Y-70400000D01*
X140800000Y-69490000D02*
X140090000Y-69490000D01*
D49*
X121450000Y-64600000D02*
X121450000Y-64299570D01*
D48*
X135100000Y-63500000D02*
X135200000Y-63600000D01*
X112179524Y-71200000D02*
X111800000Y-71200000D01*
X140200000Y-65200000D02*
X140400000Y-65400000D01*
X129937500Y-75050000D02*
X130950000Y-75050000D01*
X114000000Y-72400000D02*
X114000000Y-71680000D01*
X110239034Y-78000000D02*
X104450000Y-78000000D01*
X110974710Y-72484710D02*
X111741798Y-72484710D01*
X114000000Y-71680000D02*
X113920000Y-71600000D01*
X113000000Y-72600000D02*
X113000000Y-75239034D01*
X110600000Y-72110000D02*
X110974710Y-72484710D01*
X111741798Y-72484710D02*
X111826508Y-72400000D01*
X113000000Y-72600000D02*
X113200000Y-72400000D01*
X111826508Y-72400000D02*
X114000000Y-72400000D01*
X113200000Y-72400000D02*
X114000000Y-72400000D01*
X116908960Y-67050000D02*
X118729265Y-68870305D01*
X113000000Y-75239034D02*
X110239034Y-78000000D01*
X116250000Y-67050000D02*
X116908960Y-67050000D01*
D49*
X129387500Y-71112500D02*
X130050000Y-70450000D01*
X148000000Y-72400000D02*
X145060000Y-75340000D01*
X130050000Y-70450000D02*
X133181371Y-70450000D01*
X133181371Y-70450000D02*
X133431371Y-70700000D01*
X145060000Y-75340000D02*
X141700000Y-75340000D01*
X141700000Y-75340000D02*
X137800000Y-75340000D01*
X133431371Y-70700000D02*
X134900000Y-70700000D01*
X134900000Y-70700000D02*
X135000000Y-70600000D01*
D48*
X108315000Y-69600000D02*
X107200000Y-69600000D01*
D50*
X147500000Y-67200000D02*
X148000000Y-66700000D01*
X142300000Y-67200000D02*
X147500000Y-67200000D01*
X141400000Y-68100000D02*
X142300000Y-67200000D01*
X128000000Y-64000000D02*
X130500000Y-66500000D01*
X133875000Y-66500000D02*
X133900000Y-66525000D01*
X130500000Y-66500000D02*
X133875000Y-66500000D01*
X133900000Y-66525000D02*
X134525000Y-66525000D01*
X150700000Y-64000000D02*
X148000000Y-66700000D01*
X136800000Y-68100000D02*
X141400000Y-68100000D01*
X136100000Y-68100000D02*
X136800000Y-68100000D01*
D51*
X134020000Y-65380000D02*
X132600000Y-66800000D01*
D52*
X136800000Y-70300000D02*
X136800000Y-68100000D01*
X135060000Y-72040000D02*
X136800000Y-70300000D01*
D49*
X141700000Y-67800000D02*
X142300000Y-67200000D01*
D50*
X154000000Y-64000000D02*
X150700000Y-64000000D01*
D51*
X134020000Y-65000000D02*
X134020000Y-65380000D01*
D50*
X134525000Y-66525000D02*
X136100000Y-68100000D01*
D52*
X133937500Y-72040000D02*
X135060000Y-72040000D01*
D50*
X128000000Y-68000000D02*
X124250000Y-71750000D01*
D49*
X124250000Y-71750000D02*
X123000000Y-71750000D01*
X123000000Y-71750000D02*
X122800000Y-71550000D01*
X122800000Y-71550000D02*
X122800000Y-69287500D01*
X122800000Y-69287500D02*
X122850000Y-69237500D01*
D48*
X111450000Y-74000000D02*
X112000000Y-74550000D01*
X116620261Y-69520261D02*
X116620261Y-70460500D01*
X115600000Y-68500000D02*
X116620261Y-69520261D01*
X115090000Y-71835424D02*
X113654576Y-70400000D01*
X111150000Y-71712151D02*
X111372559Y-71934710D01*
X111150000Y-70930761D02*
X111150000Y-71712151D01*
X110600000Y-71090000D02*
X110735954Y-71090000D01*
X113654576Y-70400000D02*
X112219239Y-70400000D01*
X111372559Y-71726605D02*
X111372559Y-71934710D01*
X112219239Y-70400000D02*
X112069239Y-70550000D01*
X115090000Y-72000000D02*
X115090000Y-71835424D01*
X110735954Y-71090000D02*
X111372559Y-71726605D01*
X104450000Y-74000000D02*
X111450000Y-74000000D01*
X112069239Y-70550000D02*
X111530761Y-70550000D01*
X111530761Y-70550000D02*
X111150000Y-70930761D01*
D51*
X137750000Y-65200000D02*
X137210000Y-65200000D01*
X138090000Y-65540000D02*
X137750000Y-65200000D01*
X137210000Y-65200000D02*
X136610000Y-65800000D01*
X138090000Y-66800000D02*
X138090000Y-65540000D01*
X129937500Y-77840000D02*
X130447500Y-78350000D01*
X129937500Y-76950000D02*
X129937500Y-77840000D01*
X132200000Y-75950000D02*
X130937500Y-75950000D01*
X131437500Y-78340000D02*
X130457500Y-78340000D01*
X130457500Y-78340000D02*
X130447500Y-78350000D01*
X130937500Y-75950000D02*
X129937500Y-76950000D01*
D48*
X112069239Y-66750000D02*
X112369239Y-67050000D01*
X111530761Y-66750000D02*
X112069239Y-66750000D01*
X109285000Y-69600000D02*
X109285000Y-68995761D01*
X109285000Y-68995761D02*
X111530761Y-66750000D01*
X112369239Y-67050000D02*
X113350000Y-67050000D01*
D53*
X127400000Y-61000000D02*
X130230000Y-61000000D01*
X130230000Y-61000000D02*
X130230000Y-63668924D01*
X125800000Y-62600000D02*
X127400000Y-61000000D01*
X125800000Y-68187500D02*
X125800000Y-62600000D01*
D51*
X131820000Y-65000000D02*
X133000000Y-65000000D01*
X131820000Y-64000000D02*
X131820000Y-65000000D01*
X131820000Y-63300000D02*
X131820000Y-64000000D01*
D53*
X130230000Y-63668924D02*
X130561076Y-64000000D01*
X124750000Y-69237500D02*
X125800000Y-68187500D01*
X130561076Y-64000000D02*
X131820000Y-64000000D01*
D49*
X123800000Y-65050000D02*
X123350000Y-64600000D01*
D50*
X121000000Y-60900000D02*
X123350000Y-63250000D01*
D48*
X115880000Y-70800000D02*
X116159999Y-70800000D01*
D52*
X132937500Y-72040000D02*
X132937500Y-71337500D01*
D48*
X117302174Y-71942175D02*
X117542173Y-71942175D01*
X116159999Y-70800000D02*
X117302174Y-71942175D01*
X115200000Y-69120000D02*
X115880000Y-69800000D01*
D49*
X123800000Y-66962500D02*
X123800000Y-65050000D01*
D48*
X115200000Y-68500000D02*
X115200000Y-69120000D01*
D50*
X123350000Y-63250000D02*
X123350000Y-64600000D01*
D48*
X115880000Y-69800000D02*
X115880000Y-70800000D01*
X132937500Y-71337500D02*
X132800000Y-71200000D01*
D51*
X131772500Y-71975000D02*
X129642696Y-71975000D01*
X128437500Y-73180196D02*
X128437500Y-75625000D01*
X131837500Y-72040000D02*
X131772500Y-71975000D01*
X129642696Y-71975000D02*
X128437500Y-73180196D01*
X128437500Y-75625000D02*
X128062500Y-76000000D01*
D52*
X132937500Y-73060000D02*
X131837500Y-73060000D01*
D51*
X130410000Y-73060000D02*
X130337500Y-72987500D01*
D52*
X133937500Y-73060000D02*
X132937500Y-73060000D01*
X131837500Y-73060000D02*
X130410000Y-73060000D01*
D48*
X141700000Y-70710000D02*
X141900000Y-70510000D01*
X141700000Y-72800000D02*
X141700000Y-70710000D01*
X142990000Y-70500000D02*
X141910000Y-70500000D01*
X141910000Y-70500000D02*
X141900000Y-70510000D01*
X119400000Y-79000000D02*
X118000000Y-77600000D01*
X131615714Y-79000000D02*
X119400000Y-79000000D01*
X113423288Y-69076712D02*
X114000000Y-68500000D01*
X111800000Y-70000000D02*
X113026905Y-70000000D01*
X132007500Y-78608214D02*
X131615714Y-79000000D01*
X118000000Y-77600000D02*
X118000000Y-74679923D01*
X132007500Y-77860000D02*
X132007500Y-78608214D01*
X131437500Y-77290000D02*
X132007500Y-77860000D01*
X118600000Y-74079923D02*
X118600000Y-73300000D01*
X113026905Y-70000000D02*
X113423288Y-69603617D01*
X118000000Y-74679923D02*
X118600000Y-74079923D01*
X113423288Y-69603617D02*
X113423288Y-69076712D01*
X136400000Y-64990000D02*
X136400000Y-60800000D01*
X134600000Y-59000000D02*
X129619240Y-59000000D01*
X129619240Y-59000000D02*
X129159620Y-59459620D01*
X136400000Y-60800000D02*
X134600000Y-59000000D01*
X135590000Y-65800000D02*
X136400000Y-64990000D01*
X117872251Y-69472251D02*
X117872251Y-70067879D01*
X117872251Y-70067879D02*
X118326161Y-70521789D01*
X116250000Y-67850000D02*
X117872251Y-69472251D01*
X116250000Y-66250000D02*
X117075000Y-66250000D01*
X117201000Y-77790950D02*
X119260050Y-79850000D01*
X117075000Y-66250000D02*
X119379265Y-68554265D01*
X119260050Y-79850000D02*
X131921388Y-79850000D01*
X119379265Y-68554265D02*
X119379265Y-70525761D01*
X117201000Y-73693974D02*
X117201000Y-77790950D01*
X118750000Y-72144974D02*
X117201000Y-73693974D01*
X118750000Y-71155026D02*
X118750000Y-72144974D01*
X132171387Y-79600000D02*
X134490000Y-79600000D01*
X119379265Y-70525761D02*
X118750000Y-71155026D01*
X131921388Y-79850000D02*
X132171387Y-79600000D01*
X116000000Y-64800000D02*
X116400000Y-64800000D01*
X117600000Y-72700000D02*
X118400000Y-71900000D01*
X119280000Y-67080000D02*
X119472438Y-67272438D01*
X116400000Y-71800000D02*
X117300000Y-72700000D01*
X115600000Y-65200000D02*
X116000000Y-64800000D01*
X118680000Y-67080000D02*
X118800000Y-67080000D01*
X117212910Y-70327777D02*
X117212910Y-69851179D01*
X115200000Y-72989489D02*
X115200000Y-73475000D01*
X118800000Y-67080000D02*
X119280000Y-67080000D01*
X117300000Y-72700000D02*
X117600000Y-72700000D01*
X116400000Y-64800000D02*
X118680000Y-67080000D01*
X115600000Y-65600000D02*
X115600000Y-65200000D01*
X116000000Y-74275000D02*
X116000000Y-74550000D01*
X115910000Y-71800000D02*
X116400000Y-71800000D01*
X118400000Y-71900000D02*
X118400000Y-71514867D01*
X119472438Y-67272438D02*
X119472438Y-67775000D01*
X118400000Y-71514867D02*
X117212910Y-70327777D01*
X115200000Y-73475000D02*
X116000000Y-74275000D01*
X115910000Y-72279489D02*
X115200000Y-72989489D01*
X115910000Y-71800000D02*
X115910000Y-72279489D01*
X137334365Y-74250000D02*
X137500000Y-74250000D01*
X116850000Y-73169240D02*
X116850000Y-77934924D01*
X136700000Y-76450000D02*
X136700000Y-74884365D01*
X120199350Y-65449350D02*
X120500000Y-65750000D01*
X116544974Y-64450000D02*
X117544324Y-65449350D01*
X116850000Y-77934924D02*
X119115076Y-80200000D01*
X115855026Y-64450000D02*
X116544974Y-64450000D01*
X139750000Y-79250000D02*
X139750000Y-77750000D01*
X119115076Y-80200000D02*
X138800000Y-80200000D01*
X116494744Y-72613984D02*
X116394744Y-72713984D01*
X139750000Y-77750000D02*
X138750000Y-76750000D01*
X144010000Y-72690000D02*
X142460000Y-74240000D01*
X142460000Y-74240000D02*
X137500000Y-74240000D01*
X117544324Y-65449350D02*
X120199350Y-65449350D01*
X120500000Y-65750000D02*
X120500000Y-69200000D01*
X115200000Y-65105025D02*
X115855026Y-64450000D01*
X136700000Y-74884365D02*
X137334365Y-74250000D01*
X138750000Y-76750000D02*
X137000000Y-76750000D01*
X144010000Y-70500000D02*
X144010000Y-72690000D01*
X116394744Y-72713984D02*
X116850000Y-73169240D01*
X115200000Y-65600000D02*
X115200000Y-65105025D01*
X137000000Y-76750000D02*
X136700000Y-76450000D01*
X138800000Y-80200000D02*
X139750000Y-79250000D01*
X113625000Y-64575000D02*
X112500000Y-65700000D01*
X104450000Y-64725000D02*
X104450000Y-65000000D01*
X114319974Y-64575000D02*
X113625000Y-64575000D01*
X105425000Y-65700000D02*
X104450000Y-64725000D01*
X112500000Y-65700000D02*
X105425000Y-65700000D01*
X114800000Y-65055026D02*
X114319974Y-64575000D01*
X114800000Y-65600000D02*
X114800000Y-65055026D01*
X104975000Y-66200000D02*
X112549350Y-66200000D01*
X105025000Y-66425000D02*
X104450000Y-67000000D01*
X113824350Y-64925000D02*
X114175000Y-64925000D01*
X114175000Y-64925000D02*
X114400000Y-65150000D01*
X114400000Y-65150000D02*
X114400000Y-65600000D01*
X104450000Y-66725000D02*
X104975000Y-66200000D01*
X104450000Y-67000000D02*
X104450000Y-66725000D01*
X112549350Y-66200000D02*
X113824350Y-64925000D01*
X113350000Y-67450000D02*
X112250000Y-67450000D01*
X112200000Y-67400000D02*
X111800000Y-67400000D01*
X112250000Y-67450000D02*
X112200000Y-67400000D01*
D51*
X133050000Y-63060000D02*
X133490000Y-63500000D01*
D48*
X117650000Y-74145019D02*
X117900001Y-73895018D01*
D51*
X133900000Y-61900000D02*
X133900000Y-61800000D01*
D48*
X134075000Y-76900000D02*
X134075000Y-77199999D01*
X113350000Y-67850000D02*
X112750000Y-67850000D01*
D51*
X133050000Y-61937500D02*
X133050000Y-63060000D01*
D48*
X134075000Y-77199999D02*
X131775999Y-79499000D01*
X112750000Y-67850000D02*
X112400000Y-68200000D01*
X112400000Y-68200000D02*
X112400000Y-68950000D01*
D51*
X133050000Y-61937500D02*
X133862500Y-61937500D01*
X133862500Y-61937500D02*
X133900000Y-61900000D01*
D48*
X112400000Y-68950000D02*
X112800000Y-69350000D01*
X117900001Y-73895018D02*
X117747270Y-73742288D01*
X117650000Y-77744975D02*
X117650000Y-74145019D01*
X119404025Y-79499000D02*
X117650000Y-77744975D01*
X131775999Y-79499000D02*
X119404025Y-79499000D01*
D50*
X150629720Y-62000000D02*
X148629720Y-64000000D01*
X154000000Y-62000000D02*
X150629720Y-62000000D01*
X148629720Y-64000000D02*
X143100000Y-64000000D01*
X138700000Y-63325000D02*
X142175000Y-63325000D01*
X143100000Y-64000000D02*
X142300000Y-63200000D01*
D51*
X137200000Y-61825000D02*
X138700000Y-63325000D01*
D50*
X142175000Y-63325000D02*
X142300000Y-63200000D01*
D51*
X137200000Y-61600000D02*
X137200000Y-61825000D01*
X138220000Y-61600000D02*
X139120000Y-61600000D01*
X133582304Y-60062500D02*
X134000000Y-60062500D01*
X130800000Y-62844804D02*
X133582304Y-60062500D01*
X130800000Y-63300000D02*
X130800000Y-62844804D01*
D48*
X137800000Y-72800000D02*
X140090000Y-70510000D01*
X135510000Y-79570001D02*
X135510000Y-79600000D01*
X140090000Y-70510000D02*
X140800000Y-70510000D01*
X136350000Y-73200000D02*
X136350000Y-78730001D01*
X136750000Y-72800000D02*
X136350000Y-73200000D01*
X137800000Y-72800000D02*
X136750000Y-72800000D01*
X136350000Y-78730001D02*
X135510000Y-79570001D01*
G04 #@! TA.AperFunction,Conductor*
G36*
X108667399Y-59005021D02*
G01*
X108678252Y-59008207D01*
X108693263Y-59017852D01*
X108710383Y-59022883D01*
X108722045Y-59036346D01*
X108737033Y-59045977D01*
X108744446Y-59062208D01*
X108756129Y-59075695D01*
X108758660Y-59093327D01*
X108766062Y-59109531D01*
X108763523Y-59127192D01*
X108766060Y-59144855D01*
X108756127Y-59178658D01*
X108756123Y-59178690D01*
X108756110Y-59178718D01*
X108755140Y-59180841D01*
X108711246Y-59232411D01*
X108601722Y-59305592D01*
X108601711Y-59305600D01*
X108601710Y-59305601D01*
X108601698Y-59305610D01*
X108601682Y-59305622D01*
X108347216Y-59514457D01*
X108114457Y-59747216D01*
X107909472Y-59996991D01*
X107905611Y-60001696D01*
X107905601Y-60001710D01*
X107868200Y-60057685D01*
X107722716Y-60275416D01*
X107722707Y-60275431D01*
X107674197Y-60366189D01*
X107593503Y-60517159D01*
X107567528Y-60565755D01*
X107441553Y-60869881D01*
X107345983Y-61184935D01*
X107281768Y-61507777D01*
X107281764Y-61507804D01*
X107278811Y-61537790D01*
X107265087Y-61677139D01*
X107249500Y-61835400D01*
X107249500Y-62164600D01*
X107250607Y-62175842D01*
X107254637Y-62216757D01*
X107281764Y-62492194D01*
X107281768Y-62492221D01*
X107345983Y-62815063D01*
X107345984Y-62815066D01*
X107345987Y-62815077D01*
X107362255Y-62868705D01*
X107441553Y-63130117D01*
X107478336Y-63218917D01*
X107567528Y-63434244D01*
X107567535Y-63434258D01*
X107722707Y-63724567D01*
X107722718Y-63724585D01*
X107905601Y-63998289D01*
X107905611Y-63998303D01*
X107905622Y-63998316D01*
X108114457Y-64252782D01*
X108347215Y-64485540D01*
X108347290Y-64485607D01*
X108347811Y-64486029D01*
X108601702Y-64694393D01*
X108875421Y-64877286D01*
X109165749Y-65032469D01*
X109469889Y-65158448D01*
X109483349Y-65162531D01*
X109612355Y-65201666D01*
X109617357Y-65204944D01*
X109644309Y-65216601D01*
X109645563Y-65217422D01*
X109649642Y-65220096D01*
X109661209Y-65233683D01*
X109670793Y-65239964D01*
X109675454Y-65250416D01*
X109694932Y-65273297D01*
X109698952Y-65303108D01*
X109699250Y-65303776D01*
X109699286Y-65305585D01*
X109704270Y-65342540D01*
X109674689Y-65405839D01*
X109616111Y-65442946D01*
X109610293Y-65444627D01*
X109575873Y-65449500D01*
X105597953Y-65449500D01*
X105563015Y-65444476D01*
X105550695Y-65440858D01*
X105550687Y-65440856D01*
X105549130Y-65440517D01*
X105547196Y-65440096D01*
X105531547Y-65431551D01*
X105514126Y-65427762D01*
X105485872Y-65406611D01*
X105474361Y-65395100D01*
X105453209Y-65366844D01*
X105445717Y-65353123D01*
X105441927Y-65335702D01*
X105440876Y-65333777D01*
X105441032Y-65331588D01*
X105430866Y-65284852D01*
X105431165Y-65280680D01*
X105431837Y-65271273D01*
X105440962Y-65232663D01*
X105446658Y-65218913D01*
X105459255Y-65155587D01*
X105467813Y-65112563D01*
X105475500Y-65073922D01*
X105475500Y-64926076D01*
X105451233Y-64804087D01*
X105446659Y-64781092D01*
X105446658Y-64781091D01*
X105446419Y-64779887D01*
X105444340Y-64775492D01*
X105421531Y-64720425D01*
X105390087Y-64644511D01*
X105390080Y-64644498D01*
X105307951Y-64521584D01*
X105307948Y-64521580D01*
X105307943Y-64521574D01*
X105203424Y-64417055D01*
X105203418Y-64417050D01*
X105203417Y-64417049D01*
X105080507Y-64334923D01*
X105080506Y-64334922D01*
X105080501Y-64334919D01*
X105080488Y-64334912D01*
X105080481Y-64334908D01*
X104943919Y-64278344D01*
X104943920Y-64278344D01*
X104943917Y-64278343D01*
X104943907Y-64278340D01*
X104943905Y-64278339D01*
X104943900Y-64278338D01*
X104798922Y-64249500D01*
X104798920Y-64249500D01*
X104798918Y-64249500D01*
X104101082Y-64249500D01*
X104101080Y-64249500D01*
X104101078Y-64249500D01*
X103956096Y-64278338D01*
X103956079Y-64278344D01*
X103819517Y-64334908D01*
X103819508Y-64334913D01*
X103819491Y-64334923D01*
X103696581Y-64417049D01*
X103696580Y-64417050D01*
X103696574Y-64417055D01*
X103592055Y-64521574D01*
X103592050Y-64521580D01*
X103592049Y-64521581D01*
X103509923Y-64644491D01*
X103509913Y-64644508D01*
X103509908Y-64644517D01*
X103453344Y-64781079D01*
X103453338Y-64781098D01*
X103424500Y-64926076D01*
X103424500Y-65029551D01*
X103419237Y-65047471D01*
X103453338Y-65218899D01*
X103453340Y-65218907D01*
X103453343Y-65218917D01*
X103453831Y-65220094D01*
X103509908Y-65355481D01*
X103509913Y-65355490D01*
X103509923Y-65355507D01*
X103592049Y-65478417D01*
X103592050Y-65478418D01*
X103592055Y-65478424D01*
X103696574Y-65582943D01*
X103696580Y-65582948D01*
X103696584Y-65582951D01*
X103819498Y-65665080D01*
X103819511Y-65665087D01*
X103819513Y-65665087D01*
X103819517Y-65665090D01*
X103950474Y-65719333D01*
X103954885Y-65721419D01*
X104101076Y-65750500D01*
X104101079Y-65750500D01*
X104764381Y-65750500D01*
X104799312Y-65755522D01*
X104807943Y-65758056D01*
X104866722Y-65795828D01*
X104895749Y-65859383D01*
X104885808Y-65928542D01*
X104845539Y-65977612D01*
X104822431Y-65994275D01*
X104818508Y-66002116D01*
X104815420Y-66005316D01*
X104620170Y-66200566D01*
X104620169Y-66200569D01*
X104620165Y-66200571D01*
X104620164Y-66200573D01*
X104609144Y-66208823D01*
X104591915Y-66221721D01*
X104568828Y-66234329D01*
X104509396Y-66249500D01*
X104101078Y-66249500D01*
X103956096Y-66278338D01*
X103956079Y-66278344D01*
X103819517Y-66334908D01*
X103819508Y-66334913D01*
X103819491Y-66334923D01*
X103696581Y-66417049D01*
X103696580Y-66417050D01*
X103696574Y-66417055D01*
X103592055Y-66521574D01*
X103592050Y-66521580D01*
X103592049Y-66521581D01*
X103509923Y-66644491D01*
X103509913Y-66644508D01*
X103509908Y-66644517D01*
X103453344Y-66781079D01*
X103453338Y-66781098D01*
X103424500Y-66926076D01*
X103424500Y-67029551D01*
X103419237Y-67047471D01*
X103452981Y-67217103D01*
X103453340Y-67218907D01*
X103453342Y-67218912D01*
X103453344Y-67218919D01*
X103509908Y-67355481D01*
X103509913Y-67355490D01*
X103509923Y-67355507D01*
X103592049Y-67478417D01*
X103592050Y-67478418D01*
X103592055Y-67478424D01*
X103696574Y-67582943D01*
X103696580Y-67582948D01*
X103696584Y-67582951D01*
X103819498Y-67665080D01*
X103819511Y-67665087D01*
X103819513Y-67665087D01*
X103819517Y-67665090D01*
X103917135Y-67705524D01*
X103941681Y-67715691D01*
X103950471Y-67719331D01*
X103954885Y-67721419D01*
X104101076Y-67750500D01*
X104798920Y-67750500D01*
X104798921Y-67750500D01*
X104871260Y-67736110D01*
X104916027Y-67727205D01*
X104916028Y-67727205D01*
X104926644Y-67725093D01*
X104943913Y-67721658D01*
X105080495Y-67665084D01*
X105203416Y-67582951D01*
X105307951Y-67478416D01*
X105390084Y-67355495D01*
X105446658Y-67218913D01*
X105471553Y-67093760D01*
X105475500Y-67073920D01*
X105475500Y-66926079D01*
X105475500Y-66926076D01*
X105446419Y-66779884D01*
X105444330Y-66775467D01*
X105390584Y-66645710D01*
X105386812Y-66635317D01*
X105384896Y-66629199D01*
X105379943Y-66613383D01*
X105378694Y-66543529D01*
X105415410Y-66484084D01*
X105470844Y-66455401D01*
X105478902Y-66453573D01*
X105506335Y-66450500D01*
X111158808Y-66450500D01*
X111192900Y-66455401D01*
X111193735Y-66455521D01*
X111204588Y-66458707D01*
X111263369Y-66496477D01*
X111292398Y-66560031D01*
X111282459Y-66629190D01*
X111282455Y-66629199D01*
X111279270Y-66636173D01*
X111254157Y-66672341D01*
X110713456Y-67213043D01*
X110192800Y-67733699D01*
X109125662Y-68800837D01*
X109125661Y-68800837D01*
X109072638Y-68853861D01*
X109072637Y-68853861D01*
X109034500Y-68945930D01*
X109034500Y-69048593D01*
X109034499Y-69048597D01*
X109034500Y-69048600D01*
X109029475Y-69083535D01*
X109023361Y-69104353D01*
X108985583Y-69163129D01*
X108974473Y-69171704D01*
X108966176Y-69177388D01*
X108898751Y-69244813D01*
X108865979Y-69268311D01*
X108853907Y-69274273D01*
X108837896Y-69277413D01*
X108825367Y-69284257D01*
X108790163Y-69286778D01*
X108788245Y-69286641D01*
X108730041Y-69267272D01*
X108723532Y-69263089D01*
X108702890Y-69246454D01*
X108633829Y-69177393D01*
X108633828Y-69177392D01*
X108633825Y-69177390D01*
X108632164Y-69176283D01*
X108626908Y-69174335D01*
X108531911Y-69132391D01*
X108506992Y-69129500D01*
X108506991Y-69129500D01*
X108123016Y-69129500D01*
X108123004Y-69129500D01*
X108098092Y-69132389D01*
X107996176Y-69177389D01*
X107996174Y-69177389D01*
X107996170Y-69177392D01*
X107956738Y-69216825D01*
X107917393Y-69256170D01*
X107917392Y-69256171D01*
X107917392Y-69256172D01*
X107912306Y-69267688D01*
X107906067Y-69276909D01*
X107903869Y-69278723D01*
X107897323Y-69289195D01*
X107891360Y-69296256D01*
X107890139Y-69295225D01*
X107884034Y-69300583D01*
X107874498Y-69315633D01*
X107844929Y-69334904D01*
X107838340Y-69337964D01*
X107786111Y-69349500D01*
X107741127Y-69349500D01*
X107706191Y-69344477D01*
X107685693Y-69338458D01*
X107634248Y-69308444D01*
X107600337Y-69275517D01*
X107595029Y-69271272D01*
X107549143Y-69225386D01*
X107549141Y-69225384D01*
X107549138Y-69225383D01*
X107549136Y-69225381D01*
X107549132Y-69225379D01*
X107547862Y-69224594D01*
X107543811Y-69223029D01*
X107530172Y-69217007D01*
X107495023Y-69187318D01*
X107427631Y-69179500D01*
X107427623Y-69179500D01*
X106972384Y-69179500D01*
X106972379Y-69179500D01*
X106972347Y-69179503D01*
X106960559Y-69180870D01*
X106955623Y-69181443D01*
X106951203Y-69181698D01*
X106948498Y-69182269D01*
X106850866Y-69225378D01*
X106850855Y-69225386D01*
X106775382Y-69300860D01*
X106775379Y-69300865D01*
X106732270Y-69398496D01*
X106732270Y-69398498D01*
X106729500Y-69422373D01*
X106729500Y-69777619D01*
X106729503Y-69777651D01*
X106729614Y-69778606D01*
X106732269Y-69801495D01*
X106732269Y-69801498D01*
X106775380Y-69899135D01*
X106775383Y-69899139D01*
X106775384Y-69899141D01*
X106850859Y-69974616D01*
X106850861Y-69974616D01*
X106852129Y-69975401D01*
X106856188Y-69976969D01*
X106882529Y-69988600D01*
X106945797Y-70016536D01*
X106949464Y-70018155D01*
X106949884Y-70018223D01*
X106955611Y-70018554D01*
X106972377Y-70020500D01*
X107427622Y-70020499D01*
X107451498Y-70017730D01*
X107549135Y-69974619D01*
X107549136Y-69974618D01*
X107549141Y-69974616D01*
X107622617Y-69901139D01*
X107640369Y-69886422D01*
X107641780Y-69885458D01*
X107653290Y-69878062D01*
X107656747Y-69875239D01*
X107661122Y-69872253D01*
X107684087Y-69864808D01*
X107713484Y-69851910D01*
X107714619Y-69851747D01*
X107727127Y-69850858D01*
X107727588Y-69850709D01*
X107727936Y-69850800D01*
X107732167Y-69850500D01*
X107777556Y-69850500D01*
X107812492Y-69855523D01*
X107827490Y-69859927D01*
X107842488Y-69869566D01*
X107859594Y-69874589D01*
X107886267Y-69897702D01*
X107896003Y-69908938D01*
X107915723Y-69940050D01*
X107917389Y-69943823D01*
X107917390Y-69943824D01*
X107917392Y-69943828D01*
X107996172Y-70022608D01*
X108098091Y-70067609D01*
X108123009Y-70070500D01*
X108506990Y-70070499D01*
X108513282Y-70069768D01*
X108515021Y-70069567D01*
X108515021Y-70069569D01*
X108515039Y-70069564D01*
X108524814Y-70068431D01*
X108530535Y-70068101D01*
X108530943Y-70068035D01*
X108531908Y-70067609D01*
X108531909Y-70067609D01*
X108633828Y-70022608D01*
X108699717Y-69956718D01*
X108727964Y-69935573D01*
X108741688Y-69928079D01*
X108742102Y-69927990D01*
X108809946Y-69913228D01*
X108811756Y-69913357D01*
X108869953Y-69932723D01*
X108876471Y-69936912D01*
X108897106Y-69953542D01*
X108966172Y-70022608D01*
X109068091Y-70067609D01*
X109093009Y-70070500D01*
X109476990Y-70070499D01*
X109483282Y-70069768D01*
X109485021Y-70069567D01*
X109485021Y-70069569D01*
X109485039Y-70069564D01*
X109494814Y-70068431D01*
X109500535Y-70068101D01*
X109500943Y-70068035D01*
X109501908Y-70067609D01*
X109501909Y-70067609D01*
X109603828Y-70022608D01*
X109682608Y-69943828D01*
X109727609Y-69841909D01*
X109730500Y-69816991D01*
X109730499Y-69383010D01*
X109727609Y-69358091D01*
X109682608Y-69256172D01*
X109631016Y-69204580D01*
X109630975Y-69204526D01*
X109609864Y-69176324D01*
X109602372Y-69162603D01*
X109587520Y-69094343D01*
X109587649Y-69092534D01*
X109607015Y-69034338D01*
X109611205Y-69027818D01*
X109627829Y-69007190D01*
X111148305Y-67486713D01*
X111176553Y-67465568D01*
X111188736Y-67458915D01*
X111257010Y-67444065D01*
X111322471Y-67468482D01*
X111323682Y-67469389D01*
X111323812Y-67469486D01*
X111360992Y-67514530D01*
X111363181Y-67519035D01*
X111371424Y-67541133D01*
X111380199Y-67573882D01*
X111380200Y-67573885D01*
X111389604Y-67590173D01*
X111439511Y-67676613D01*
X111523387Y-67760489D01*
X111626114Y-67819799D01*
X111740691Y-67850500D01*
X111740694Y-67850500D01*
X111859306Y-67850500D01*
X111859309Y-67850500D01*
X111973886Y-67819799D01*
X112076613Y-67760489D01*
X112086602Y-67750500D01*
X112087636Y-67749465D01*
X112113484Y-67729647D01*
X112114685Y-67728954D01*
X112127210Y-67722116D01*
X112132763Y-67718546D01*
X112135383Y-67717039D01*
X112166513Y-67709526D01*
X112197250Y-67700501D01*
X112228045Y-67700501D01*
X112262972Y-67705522D01*
X112273825Y-67708708D01*
X112332606Y-67746478D01*
X112361635Y-67810032D01*
X112351696Y-67879191D01*
X112351692Y-67879200D01*
X112348507Y-67886174D01*
X112323397Y-67922339D01*
X112309735Y-67936002D01*
X112236335Y-68009402D01*
X112236326Y-68009412D01*
X112187638Y-68058100D01*
X112187637Y-68058100D01*
X112151649Y-68144983D01*
X112149500Y-68150170D01*
X112149500Y-68999829D01*
X112187636Y-69091897D01*
X112300574Y-69204835D01*
X112321723Y-69233086D01*
X112334171Y-69255883D01*
X112334331Y-69256175D01*
X112349500Y-69315604D01*
X112349500Y-69409309D01*
X112367535Y-69476615D01*
X112380202Y-69523889D01*
X112394158Y-69548061D01*
X112402255Y-69564901D01*
X112404814Y-69571445D01*
X112405268Y-69576645D01*
X112407273Y-69580814D01*
X112407997Y-69583797D01*
X112407278Y-69583971D01*
X112412068Y-69598957D01*
X112413037Y-69605696D01*
X112409784Y-69628319D01*
X112410897Y-69641050D01*
X112406846Y-69648754D01*
X112403094Y-69674854D01*
X112366951Y-69720815D01*
X112364376Y-69722840D01*
X112305411Y-69748101D01*
X112304502Y-69748232D01*
X112286815Y-69749500D01*
X112255794Y-69749500D01*
X112255793Y-69749499D01*
X112255793Y-69749500D01*
X112220858Y-69744477D01*
X112195616Y-69737065D01*
X112142871Y-69705769D01*
X112076615Y-69639513D01*
X112076613Y-69639511D01*
X111973886Y-69580201D01*
X111859309Y-69549500D01*
X111859306Y-69549500D01*
X111740691Y-69549500D01*
X111649728Y-69573873D01*
X111649723Y-69573874D01*
X111626114Y-69580201D01*
X111626112Y-69580201D01*
X111626112Y-69580202D01*
X111604947Y-69592421D01*
X111604939Y-69592425D01*
X111523386Y-69639511D01*
X111523378Y-69639517D01*
X111439517Y-69723378D01*
X111439511Y-69723386D01*
X111385470Y-69816986D01*
X111385471Y-69816987D01*
X111380202Y-69826112D01*
X111380199Y-69826119D01*
X111354303Y-69922765D01*
X111349500Y-69940691D01*
X111349500Y-70059309D01*
X111373666Y-70149497D01*
X111380202Y-70173888D01*
X111391576Y-70193589D01*
X111395020Y-70202456D01*
X111395384Y-70206744D01*
X111399936Y-70218113D01*
X111403621Y-70233308D01*
X111400297Y-70303097D01*
X111400296Y-70303101D01*
X111397396Y-70311479D01*
X111367898Y-70358599D01*
X111069330Y-70657168D01*
X111008007Y-70690653D01*
X110938316Y-70685669D01*
X110933055Y-70681730D01*
X110827631Y-70669500D01*
X110827623Y-70669500D01*
X110372384Y-70669500D01*
X110372379Y-70669500D01*
X110372347Y-70669503D01*
X110360559Y-70670870D01*
X110355623Y-70671443D01*
X110351203Y-70671698D01*
X110348498Y-70672269D01*
X110250866Y-70715378D01*
X110250855Y-70715386D01*
X110175382Y-70790860D01*
X110175379Y-70790865D01*
X110132270Y-70888496D01*
X110132270Y-70888498D01*
X110129500Y-70912373D01*
X110129500Y-71267619D01*
X110129503Y-71267651D01*
X110129521Y-71267804D01*
X110132269Y-71291495D01*
X110132269Y-71291498D01*
X110175380Y-71389135D01*
X110175383Y-71389139D01*
X110175384Y-71389141D01*
X110250859Y-71464616D01*
X110284262Y-71479365D01*
X110314188Y-71498069D01*
X110322828Y-71505367D01*
X110361340Y-71563664D01*
X110362221Y-71633529D01*
X110325190Y-71692778D01*
X110325183Y-71692784D01*
X110317826Y-71699322D01*
X110285544Y-71720068D01*
X110252183Y-71734799D01*
X110250890Y-71735351D01*
X110175385Y-71810856D01*
X110175379Y-71810865D01*
X110132270Y-71908496D01*
X110132270Y-71908498D01*
X110129500Y-71932373D01*
X110129500Y-72287619D01*
X110129503Y-72287651D01*
X110129614Y-72288606D01*
X110132269Y-72311495D01*
X110132269Y-72311498D01*
X110175380Y-72409135D01*
X110175383Y-72409139D01*
X110175384Y-72409141D01*
X110250859Y-72484616D01*
X110250861Y-72484616D01*
X110252129Y-72485401D01*
X110256188Y-72486969D01*
X110331569Y-72520253D01*
X110345797Y-72526536D01*
X110349464Y-72528155D01*
X110349884Y-72528223D01*
X110355611Y-72528554D01*
X110372377Y-72530500D01*
X110597047Y-72530499D01*
X110631978Y-72535520D01*
X110657219Y-72542932D01*
X110709967Y-72574228D01*
X110832813Y-72697074D01*
X110924882Y-72735210D01*
X110924884Y-72735210D01*
X111791624Y-72735210D01*
X111791626Y-72735210D01*
X111883695Y-72697074D01*
X111883698Y-72697070D01*
X111891033Y-72692170D01*
X111909595Y-72678275D01*
X111932687Y-72665667D01*
X111992112Y-72650500D01*
X112607670Y-72650500D01*
X112642606Y-72655523D01*
X112657604Y-72659927D01*
X112716355Y-72697672D01*
X112717542Y-72699041D01*
X112745018Y-72753902D01*
X112746663Y-72761460D01*
X112749500Y-72787831D01*
X112749500Y-73458884D01*
X112749499Y-73458888D01*
X112749500Y-73458891D01*
X112744475Y-73493825D01*
X112740564Y-73507142D01*
X112702787Y-73565918D01*
X112639234Y-73594939D01*
X112639229Y-73594939D01*
X112639229Y-73594940D01*
X112639228Y-73594939D01*
X112635930Y-73595414D01*
X112580794Y-73590873D01*
X112578915Y-73590277D01*
X112560111Y-73582565D01*
X112475301Y-73539352D01*
X112475295Y-73539350D01*
X112381530Y-73524500D01*
X112381524Y-73524500D01*
X111618482Y-73524500D01*
X111618478Y-73524500D01*
X111553846Y-73534736D01*
X111553842Y-73534737D01*
X111537519Y-73537323D01*
X111524696Y-73539354D01*
X111411658Y-73596950D01*
X111411657Y-73596951D01*
X111411652Y-73596954D01*
X111408652Y-73599953D01*
X111408649Y-73599955D01*
X111347531Y-73661074D01*
X111346721Y-73661877D01*
X111314619Y-73693393D01*
X111313940Y-73692899D01*
X111298872Y-73708853D01*
X111297187Y-73710508D01*
X111275620Y-73722028D01*
X111242702Y-73741720D01*
X111232520Y-73744475D01*
X111229853Y-73745196D01*
X111197469Y-73749500D01*
X105617329Y-73749500D01*
X105582388Y-73744475D01*
X105567389Y-73740070D01*
X105552401Y-73730440D01*
X105535323Y-73725432D01*
X105508643Y-73702327D01*
X105507456Y-73700958D01*
X105479977Y-73646086D01*
X105478154Y-73637704D01*
X105475702Y-73621068D01*
X105475499Y-73618493D01*
X105475499Y-73618482D01*
X105474867Y-73614494D01*
X105472486Y-73599459D01*
X105472486Y-73599452D01*
X105472485Y-73599453D01*
X105472485Y-73599452D01*
X105460646Y-73524696D01*
X105403050Y-73411658D01*
X105403046Y-73411654D01*
X105403045Y-73411652D01*
X105313347Y-73321954D01*
X105313344Y-73321952D01*
X105313342Y-73321950D01*
X105313341Y-73321949D01*
X105217274Y-73273000D01*
X105217274Y-73272999D01*
X105217271Y-73272999D01*
X105200300Y-73264351D01*
X105106530Y-73249500D01*
X105106524Y-73249500D01*
X103793482Y-73249500D01*
X103793478Y-73249500D01*
X103728846Y-73259736D01*
X103728842Y-73259737D01*
X103712519Y-73262323D01*
X103699696Y-73264354D01*
X103586658Y-73321950D01*
X103586657Y-73321951D01*
X103586652Y-73321954D01*
X103583652Y-73324953D01*
X103583649Y-73324955D01*
X103496954Y-73411650D01*
X103496950Y-73411658D01*
X103492616Y-73420165D01*
X103480208Y-73444517D01*
X103480207Y-73444518D01*
X103439352Y-73524696D01*
X103439350Y-73524703D01*
X103424500Y-73618469D01*
X103424500Y-74381518D01*
X103429220Y-74411325D01*
X103429222Y-74411330D01*
X103431413Y-74425162D01*
X103439354Y-74475304D01*
X103496950Y-74588342D01*
X103496952Y-74588344D01*
X103496954Y-74588347D01*
X103586652Y-74678045D01*
X103586654Y-74678046D01*
X103586658Y-74678050D01*
X103647837Y-74709222D01*
X103699691Y-74735644D01*
X103699693Y-74735644D01*
X103699696Y-74735646D01*
X103714424Y-74737978D01*
X103748137Y-74748401D01*
X103757803Y-74752983D01*
X103809948Y-74799485D01*
X103828675Y-74866798D01*
X103808037Y-74933550D01*
X103764908Y-74973427D01*
X103745891Y-74983992D01*
X103741967Y-74986080D01*
X103598473Y-75059195D01*
X103458402Y-75160961D01*
X103335961Y-75283402D01*
X103234197Y-75423471D01*
X103155592Y-75577739D01*
X103102084Y-75742417D01*
X103100883Y-75749998D01*
X103100884Y-75749999D01*
X103100885Y-75750000D01*
X103967159Y-75750000D01*
X104034198Y-75769685D01*
X104079953Y-75822489D01*
X104089897Y-75891647D01*
X104086934Y-75906093D01*
X104075000Y-75950630D01*
X104075000Y-76049369D01*
X104086934Y-76093907D01*
X104085271Y-76163756D01*
X104046108Y-76221619D01*
X103981880Y-76249123D01*
X103967159Y-76250000D01*
X103100885Y-76250000D01*
X103102084Y-76257582D01*
X103155592Y-76422259D01*
X103234197Y-76576527D01*
X103335961Y-76716596D01*
X103458402Y-76839037D01*
X103589474Y-76934264D01*
X103598475Y-76940804D01*
X103752742Y-77019408D01*
X103880396Y-77060885D01*
X103912063Y-77076455D01*
X103921400Y-77082839D01*
X103965631Y-77136927D01*
X103973598Y-77206340D01*
X103942772Y-77269043D01*
X103942761Y-77269054D01*
X103939382Y-77272735D01*
X103895488Y-77303442D01*
X103819498Y-77334918D01*
X103819490Y-77334923D01*
X103696581Y-77417049D01*
X103696580Y-77417050D01*
X103696574Y-77417055D01*
X103592055Y-77521574D01*
X103592050Y-77521580D01*
X103592049Y-77521581D01*
X103509923Y-77644491D01*
X103509913Y-77644508D01*
X103509908Y-77644517D01*
X103453344Y-77781079D01*
X103453338Y-77781098D01*
X103424500Y-77926076D01*
X103424500Y-78029551D01*
X103419237Y-78047471D01*
X103453338Y-78218899D01*
X103453344Y-78218919D01*
X103509908Y-78355481D01*
X103509912Y-78355488D01*
X103509918Y-78355500D01*
X103509923Y-78355507D01*
X103592049Y-78478417D01*
X103592050Y-78478418D01*
X103592055Y-78478424D01*
X103696574Y-78582943D01*
X103696580Y-78582948D01*
X103696584Y-78582951D01*
X103819498Y-78665080D01*
X103819511Y-78665087D01*
X103956082Y-78721656D01*
X103956087Y-78721658D01*
X103956091Y-78721658D01*
X103956092Y-78721659D01*
X103956357Y-78721711D01*
X103956358Y-78721712D01*
X103956382Y-78721717D01*
X104101077Y-78750500D01*
X104798920Y-78750500D01*
X104798921Y-78750500D01*
X104866605Y-78737036D01*
X104902906Y-78729815D01*
X104902907Y-78729815D01*
X104913226Y-78727762D01*
X104943913Y-78721658D01*
X105080495Y-78665084D01*
X105203416Y-78582951D01*
X105307951Y-78478416D01*
X105390084Y-78355495D01*
X105395044Y-78343520D01*
X105413048Y-78313170D01*
X105422862Y-78300993D01*
X105480245Y-78261148D01*
X105493184Y-78256841D01*
X105532332Y-78250500D01*
X110288860Y-78250500D01*
X110288862Y-78250500D01*
X110380931Y-78212364D01*
X113006049Y-75587242D01*
X113034300Y-75566096D01*
X113048018Y-75558606D01*
X113116278Y-75543755D01*
X113118089Y-75543885D01*
X113176283Y-75563252D01*
X113182796Y-75567438D01*
X113203436Y-75584071D01*
X113283402Y-75664037D01*
X113407485Y-75754187D01*
X113423475Y-75765804D01*
X113577744Y-75844408D01*
X113649447Y-75867706D01*
X113678921Y-75887861D01*
X113749999Y-75899115D01*
X113750000Y-75899114D01*
X113750000Y-75032840D01*
X113769685Y-74965801D01*
X113822489Y-74920046D01*
X113891647Y-74910102D01*
X113906080Y-74913062D01*
X113950630Y-74925000D01*
X114049368Y-74925000D01*
X114049370Y-74925000D01*
X114093907Y-74913066D01*
X114163754Y-74914727D01*
X114221618Y-74953889D01*
X114249123Y-75018117D01*
X114250000Y-75032840D01*
X114250000Y-75899115D01*
X114257584Y-75897914D01*
X114422255Y-75844408D01*
X114576524Y-75765804D01*
X114655170Y-75708664D01*
X114716596Y-75664037D01*
X114716598Y-75664034D01*
X114716602Y-75664032D01*
X114839032Y-75541602D01*
X114839034Y-75541598D01*
X114839037Y-75541596D01*
X114901275Y-75455931D01*
X114940804Y-75401524D01*
X115019408Y-75247255D01*
X115060887Y-75119598D01*
X115076455Y-75087934D01*
X115082843Y-75078592D01*
X115136930Y-75034366D01*
X115206344Y-75026401D01*
X115269041Y-75057226D01*
X115272735Y-75060616D01*
X115303442Y-75104512D01*
X115334906Y-75180474D01*
X115334914Y-75180492D01*
X115334923Y-75180507D01*
X115417049Y-75303417D01*
X115417050Y-75303418D01*
X115417055Y-75303424D01*
X115521574Y-75407943D01*
X115521580Y-75407948D01*
X115521584Y-75407951D01*
X115644498Y-75490080D01*
X115644511Y-75490087D01*
X115781082Y-75546656D01*
X115781087Y-75546658D01*
X115781091Y-75546658D01*
X115781092Y-75546659D01*
X115781357Y-75546711D01*
X115781358Y-75546712D01*
X115781382Y-75546717D01*
X115926077Y-75575500D01*
X116073920Y-75575500D01*
X116073921Y-75575500D01*
X116135487Y-75563253D01*
X116189971Y-75552415D01*
X116218913Y-75546658D01*
X116355495Y-75490084D01*
X116391787Y-75465834D01*
X116423622Y-75450604D01*
X116436621Y-75446534D01*
X116506480Y-75445288D01*
X116565922Y-75482008D01*
X116594596Y-75537423D01*
X116596424Y-75545477D01*
X116599500Y-75572923D01*
X116599500Y-77984753D01*
X116637636Y-78076821D01*
X116637637Y-78076822D01*
X118336526Y-79775711D01*
X118346538Y-79789085D01*
X118357675Y-79803961D01*
X118363096Y-79813888D01*
X118377950Y-79882161D01*
X118353536Y-79947626D01*
X118297604Y-79989499D01*
X118297600Y-79989501D01*
X118290412Y-79992182D01*
X118247078Y-80000000D01*
X99009143Y-80000000D01*
X99003063Y-79999851D01*
X98996971Y-79999551D01*
X98990904Y-79999104D01*
X98823129Y-79982579D01*
X98811095Y-79980794D01*
X98799199Y-79978428D01*
X98787393Y-79975471D01*
X98634827Y-79929191D01*
X98623367Y-79925090D01*
X98612168Y-79920451D01*
X98601170Y-79915249D01*
X98582610Y-79905328D01*
X98460569Y-79840096D01*
X98450142Y-79833847D01*
X98440045Y-79827100D01*
X98430276Y-79819854D01*
X98307039Y-79718716D01*
X98298023Y-79710544D01*
X98289454Y-79701975D01*
X98281282Y-79692959D01*
X98180144Y-79569722D01*
X98172898Y-79559953D01*
X98166147Y-79549850D01*
X98159905Y-79539435D01*
X98084745Y-79398821D01*
X98079551Y-79387840D01*
X98074903Y-79376619D01*
X98070807Y-79365170D01*
X98024521Y-79212584D01*
X98021566Y-79200783D01*
X98019205Y-79188909D01*
X98017421Y-79176882D01*
X98000892Y-79009058D01*
X98000448Y-79003047D01*
X98000147Y-78996917D01*
X98000000Y-78990857D01*
X98000000Y-60600007D01*
X103075000Y-60600007D01*
X103075000Y-60600010D01*
X103075000Y-60600013D01*
X103075000Y-60750000D01*
X103967159Y-60750000D01*
X104034198Y-60769685D01*
X104079953Y-60822489D01*
X104089897Y-60891647D01*
X104086934Y-60906093D01*
X104075000Y-60950630D01*
X104075000Y-61049369D01*
X104086934Y-61093907D01*
X104085271Y-61163756D01*
X104046108Y-61221619D01*
X103981880Y-61249123D01*
X103967159Y-61250000D01*
X103075001Y-61250000D01*
X103075001Y-61399995D01*
X103085493Y-61502694D01*
X103085493Y-61502695D01*
X103085494Y-61502697D01*
X103140641Y-61669119D01*
X103140643Y-61669124D01*
X103232684Y-61818345D01*
X103356654Y-61942315D01*
X103505875Y-62034356D01*
X103505880Y-62034358D01*
X103672302Y-62089505D01*
X103672310Y-62089506D01*
X103759591Y-62098423D01*
X103774467Y-62104060D01*
X103787991Y-62104756D01*
X103793815Y-62106962D01*
X103804062Y-62111143D01*
X103804313Y-62111246D01*
X103814169Y-62119104D01*
X103819299Y-62121048D01*
X103828433Y-62127605D01*
X103834360Y-62135201D01*
X103858945Y-62154802D01*
X103866070Y-62175842D01*
X103871414Y-62182691D01*
X103872536Y-62194935D01*
X103881356Y-62220980D01*
X103876649Y-62239828D01*
X103877790Y-62252269D01*
X103869627Y-62267953D01*
X103864431Y-62288769D01*
X103864420Y-62288787D01*
X103863081Y-62291070D01*
X103851527Y-62302737D01*
X103845537Y-62314249D01*
X103833053Y-62321392D01*
X103821757Y-62332800D01*
X103822039Y-62333222D01*
X103819972Y-62334602D01*
X103819897Y-62334679D01*
X103819520Y-62334904D01*
X103696582Y-62417049D01*
X103696577Y-62417052D01*
X103592055Y-62521574D01*
X103592050Y-62521580D01*
X103592049Y-62521581D01*
X103509923Y-62644491D01*
X103509913Y-62644508D01*
X103509912Y-62644511D01*
X103509909Y-62644515D01*
X103453344Y-62781079D01*
X103453338Y-62781098D01*
X103424500Y-62926076D01*
X103424500Y-63029551D01*
X103419237Y-63047471D01*
X103453338Y-63218899D01*
X103453344Y-63218919D01*
X103509908Y-63355481D01*
X103509913Y-63355490D01*
X103509923Y-63355507D01*
X103592049Y-63478417D01*
X103592050Y-63478418D01*
X103592055Y-63478424D01*
X103696574Y-63582943D01*
X103696580Y-63582948D01*
X103696584Y-63582951D01*
X103819498Y-63665080D01*
X103819511Y-63665087D01*
X103956082Y-63721656D01*
X103956087Y-63721658D01*
X103956091Y-63721658D01*
X103956092Y-63721659D01*
X103956357Y-63721711D01*
X103956358Y-63721712D01*
X103956382Y-63721717D01*
X104101077Y-63750500D01*
X104798920Y-63750500D01*
X104798921Y-63750500D01*
X104864074Y-63737539D01*
X104929228Y-63724579D01*
X104943913Y-63721658D01*
X105080495Y-63665084D01*
X105203416Y-63582951D01*
X105307951Y-63478416D01*
X105390084Y-63355495D01*
X105446658Y-63218913D01*
X105464321Y-63130117D01*
X105475500Y-63073920D01*
X105475500Y-62926076D01*
X105446419Y-62779884D01*
X105444332Y-62775472D01*
X105401452Y-62671950D01*
X105390087Y-62644511D01*
X105390080Y-62644498D01*
X105307951Y-62521584D01*
X105307948Y-62521580D01*
X105307943Y-62521574D01*
X105203424Y-62417055D01*
X105203418Y-62417050D01*
X105203417Y-62417049D01*
X105129767Y-62367838D01*
X105084942Y-62337887D01*
X105081466Y-62334572D01*
X105078940Y-62333613D01*
X105066937Y-62323243D01*
X105056028Y-62312526D01*
X105052735Y-62306622D01*
X105045131Y-62296337D01*
X105041552Y-62286567D01*
X105022000Y-62251503D01*
X105022979Y-62235855D01*
X105021102Y-62230729D01*
X105024154Y-62217086D01*
X105026365Y-62181770D01*
X105034546Y-62170635D01*
X105036357Y-62162545D01*
X105051458Y-62147621D01*
X105067736Y-62125469D01*
X105068717Y-62124721D01*
X105069670Y-62123995D01*
X105079165Y-62120240D01*
X105086054Y-62113433D01*
X105108242Y-62108743D01*
X105132233Y-62099257D01*
X105227696Y-62089505D01*
X105394119Y-62034358D01*
X105394124Y-62034356D01*
X105543345Y-61942315D01*
X105667315Y-61818345D01*
X105759356Y-61669124D01*
X105759358Y-61669119D01*
X105814505Y-61502697D01*
X105814506Y-61502690D01*
X105824999Y-61399986D01*
X105825000Y-61399973D01*
X105825000Y-61250000D01*
X104932841Y-61250000D01*
X104865802Y-61230315D01*
X104820047Y-61177511D01*
X104810103Y-61108353D01*
X104813066Y-61093907D01*
X104813311Y-61092993D01*
X104825000Y-61049370D01*
X104825000Y-60950630D01*
X104813066Y-60906092D01*
X104814729Y-60836244D01*
X104853892Y-60778381D01*
X104918120Y-60750877D01*
X104932841Y-60750000D01*
X105824999Y-60750000D01*
X105824999Y-60600032D01*
X105824999Y-60600028D01*
X105824998Y-60600013D01*
X105814505Y-60497302D01*
X105759358Y-60330880D01*
X105759356Y-60330875D01*
X105667315Y-60181654D01*
X105543345Y-60057684D01*
X105394124Y-59965643D01*
X105394119Y-59965641D01*
X105394110Y-59965638D01*
X105227699Y-59910494D01*
X105227694Y-59910493D01*
X105124991Y-59900000D01*
X105124986Y-59900000D01*
X104700000Y-59900000D01*
X104700000Y-60517159D01*
X104680315Y-60584198D01*
X104627511Y-60629953D01*
X104558353Y-60639897D01*
X104543909Y-60636934D01*
X104499370Y-60625000D01*
X104499369Y-60625000D01*
X104400630Y-60625000D01*
X104356092Y-60636933D01*
X104286244Y-60635271D01*
X104228381Y-60596108D01*
X104200877Y-60531880D01*
X104200000Y-60517159D01*
X104200000Y-59900000D01*
X103775028Y-59900000D01*
X103775012Y-59900001D01*
X103775002Y-59900001D01*
X103775002Y-59900002D01*
X103672304Y-59910493D01*
X103672302Y-59910494D01*
X103505887Y-59965638D01*
X103505879Y-59965641D01*
X103505877Y-59965642D01*
X103505875Y-59965643D01*
X103435354Y-60009141D01*
X103356652Y-60057685D01*
X103232685Y-60181652D01*
X103226024Y-60192452D01*
X103158871Y-60301324D01*
X103140641Y-60330879D01*
X103140638Y-60330888D01*
X103085494Y-60497299D01*
X103085493Y-60497304D01*
X103075000Y-60600007D01*
X98000000Y-60600007D01*
X98000000Y-60009141D01*
X98000148Y-60003075D01*
X98000213Y-60001753D01*
X98000449Y-59996949D01*
X98000896Y-59990898D01*
X98003384Y-59965641D01*
X98017421Y-59823115D01*
X98019206Y-59811083D01*
X98021569Y-59799202D01*
X98024518Y-59787425D01*
X98070813Y-59634806D01*
X98074906Y-59623371D01*
X98079550Y-59612160D01*
X98084738Y-59601191D01*
X98159905Y-59460563D01*
X98166156Y-59450135D01*
X98172889Y-59440058D01*
X98180130Y-59430292D01*
X98281295Y-59307023D01*
X98289448Y-59298028D01*
X98298028Y-59289448D01*
X98307023Y-59281295D01*
X98430292Y-59180130D01*
X98440058Y-59172889D01*
X98450135Y-59166156D01*
X98460563Y-59159905D01*
X98601191Y-59084738D01*
X98612160Y-59079550D01*
X98623371Y-59074906D01*
X98634806Y-59070813D01*
X98787425Y-59024518D01*
X98799202Y-59021569D01*
X98811085Y-59019205D01*
X98823109Y-59017421D01*
X98990940Y-59000892D01*
X98996952Y-59000448D01*
X99003081Y-59000147D01*
X99009143Y-59000000D01*
X108632472Y-59000000D01*
X108667399Y-59005021D01*
G37*
G04 #@! TD.AperFunction*
G04 #@! TA.AperFunction,Conductor*
G36*
X120061329Y-65704871D02*
G01*
X120086573Y-65712284D01*
X120139319Y-65743580D01*
X120200574Y-65804835D01*
X120221723Y-65833086D01*
X120234331Y-65856175D01*
X120249500Y-65915604D01*
X120249500Y-68744205D01*
X120244476Y-68779144D01*
X120237063Y-68804387D01*
X120205769Y-68857129D01*
X120139510Y-68923388D01*
X120139509Y-68923390D01*
X120085690Y-69016607D01*
X120085689Y-69016606D01*
X120080205Y-69026106D01*
X120080199Y-69026119D01*
X120051724Y-69132390D01*
X120049500Y-69140691D01*
X120049500Y-69259309D01*
X120080201Y-69373886D01*
X120139511Y-69476613D01*
X120223387Y-69560489D01*
X120326114Y-69619799D01*
X120440691Y-69650500D01*
X120440694Y-69650500D01*
X120559306Y-69650500D01*
X120559309Y-69650500D01*
X120673886Y-69619799D01*
X120776613Y-69560489D01*
X120860489Y-69476613D01*
X120919799Y-69373886D01*
X120950500Y-69259309D01*
X120950500Y-69140691D01*
X120919799Y-69026114D01*
X120860489Y-68923387D01*
X120799426Y-68862324D01*
X120779643Y-68836509D01*
X120778937Y-68835283D01*
X120772113Y-68822785D01*
X120768554Y-68817248D01*
X120767036Y-68814610D01*
X120759531Y-68783507D01*
X120750500Y-68752744D01*
X120750500Y-68620463D01*
X120755522Y-68585530D01*
X120758462Y-68575518D01*
X120759433Y-68572211D01*
X120797206Y-68513434D01*
X120860758Y-68484409D01*
X120862399Y-68484173D01*
X120920573Y-68489734D01*
X120925306Y-68491372D01*
X120946752Y-68501166D01*
X120976114Y-68518119D01*
X121090691Y-68548820D01*
X121090694Y-68548820D01*
X121209306Y-68548820D01*
X121209309Y-68548820D01*
X121323886Y-68518119D01*
X121398093Y-68475274D01*
X121427998Y-68462887D01*
X121455487Y-68455522D01*
X121458466Y-68454724D01*
X121490555Y-68450500D01*
X122284583Y-68450500D01*
X122319515Y-68455521D01*
X122332834Y-68459432D01*
X122391612Y-68497206D01*
X122420638Y-68560761D01*
X122420639Y-68560773D01*
X122421323Y-68565533D01*
X122412018Y-68633256D01*
X122402414Y-68655004D01*
X122401844Y-68657709D01*
X122401589Y-68662124D01*
X122399500Y-68680127D01*
X122399500Y-70607670D01*
X122399499Y-70607676D01*
X122399500Y-70607679D01*
X122394475Y-70642614D01*
X122390070Y-70657612D01*
X122352327Y-70716355D01*
X122352292Y-70716385D01*
X122352291Y-70716387D01*
X122352289Y-70716387D01*
X122350958Y-70717542D01*
X122296097Y-70745018D01*
X122288539Y-70746663D01*
X122262168Y-70749500D01*
X120368478Y-70749500D01*
X120303846Y-70759736D01*
X120303842Y-70759737D01*
X120287519Y-70762323D01*
X120274696Y-70764354D01*
X120161658Y-70821950D01*
X120161657Y-70821951D01*
X120161652Y-70821954D01*
X120158652Y-70824953D01*
X120158649Y-70824955D01*
X120071952Y-70911652D01*
X120069058Y-70917334D01*
X120069056Y-70917338D01*
X120014352Y-71024695D01*
X120014350Y-71024703D01*
X119999500Y-71118469D01*
X119999500Y-72381517D01*
X120001827Y-72396214D01*
X120001828Y-72396218D01*
X120003876Y-72409143D01*
X120014354Y-72475304D01*
X120071950Y-72588342D01*
X120071952Y-72588344D01*
X120071954Y-72588347D01*
X120078146Y-72594539D01*
X120078147Y-72594541D01*
X120116425Y-72632819D01*
X120149910Y-72694142D01*
X120144926Y-72763834D01*
X120103054Y-72819767D01*
X120037590Y-72844184D01*
X120028744Y-72844500D01*
X119637332Y-72844500D01*
X119620698Y-72845391D01*
X119620695Y-72845392D01*
X119594356Y-72848224D01*
X119594349Y-72848224D01*
X119577949Y-72850881D01*
X119574420Y-72851648D01*
X119570373Y-72852529D01*
X119570370Y-72852529D01*
X119570370Y-72852530D01*
X119570363Y-72852532D01*
X119533797Y-72865434D01*
X119533796Y-72865434D01*
X119478921Y-72892911D01*
X119478911Y-72892917D01*
X119478596Y-72893127D01*
X119478546Y-72893161D01*
X119446703Y-72914443D01*
X119445361Y-72915606D01*
X119443879Y-72917400D01*
X119443635Y-72917126D01*
X119443607Y-72917151D01*
X119442150Y-72918857D01*
X119442147Y-72918860D01*
X119416345Y-72949092D01*
X119378602Y-73007838D01*
X119360225Y-73048086D01*
X119355822Y-73063078D01*
X119355822Y-73063082D01*
X119351105Y-73084764D01*
X119346083Y-73119697D01*
X119344500Y-73141829D01*
X119344500Y-77462668D01*
X119345390Y-77479283D01*
X119346600Y-77490548D01*
X119348220Y-77505625D01*
X119350887Y-77522085D01*
X119350888Y-77522087D01*
X119352530Y-77529634D01*
X119352531Y-77529637D01*
X119365437Y-77566211D01*
X119392917Y-77621086D01*
X119395180Y-77624471D01*
X119398447Y-77630543D01*
X119400838Y-77632934D01*
X119407618Y-77643075D01*
X119407618Y-77643076D01*
X119414474Y-77653330D01*
X119414479Y-77653337D01*
X119431523Y-77672992D01*
X119439864Y-77676085D01*
X119447305Y-77682094D01*
X119449086Y-77683649D01*
X119449091Y-77683653D01*
X119507837Y-77721396D01*
X119548072Y-77739769D01*
X119563071Y-77744174D01*
X119584749Y-77748891D01*
X119584753Y-77748891D01*
X119584755Y-77748892D01*
X119596020Y-77750512D01*
X119619683Y-77753916D01*
X119632506Y-77755221D01*
X119632506Y-77755220D01*
X119634640Y-77755438D01*
X119640546Y-77755436D01*
X119641824Y-77755499D01*
X119641830Y-77755500D01*
X125893965Y-77755500D01*
X125893971Y-77755500D01*
X125927737Y-77751790D01*
X125927744Y-77751788D01*
X125927747Y-77751788D01*
X125980301Y-77740097D01*
X125980301Y-77740096D01*
X125980305Y-77740096D01*
X126049469Y-77704863D01*
X126101841Y-77658614D01*
X126107269Y-77653586D01*
X126148516Y-77584465D01*
X126164059Y-77529634D01*
X126167567Y-77517260D01*
X126167567Y-77517255D01*
X126167571Y-77517244D01*
X126173458Y-77473370D01*
X126185441Y-78749500D01*
X119572953Y-78749500D01*
X119572952Y-78749499D01*
X119572952Y-78749500D01*
X119538017Y-78744477D01*
X119512775Y-78737065D01*
X119460030Y-78705769D01*
X118299426Y-77545165D01*
X118278274Y-77516909D01*
X118265667Y-77493820D01*
X118250500Y-77434395D01*
X118250500Y-74852875D01*
X118255522Y-74817942D01*
X118256378Y-74815027D01*
X118262934Y-74792697D01*
X118294228Y-74739955D01*
X118533554Y-74500630D01*
X118812364Y-74221820D01*
X118850500Y-74129751D01*
X118850500Y-74030095D01*
X118850500Y-73755793D01*
X118855522Y-73720860D01*
X118862934Y-73695615D01*
X118894228Y-73642873D01*
X118922606Y-73614496D01*
X118960489Y-73576613D01*
X119019799Y-73473886D01*
X119050500Y-73359309D01*
X119050500Y-73240691D01*
X119019799Y-73126114D01*
X118960489Y-73023387D01*
X118876613Y-72939511D01*
X118773886Y-72880201D01*
X118679257Y-72854844D01*
X118679255Y-72854843D01*
X118679255Y-72854844D01*
X118646811Y-72840949D01*
X118634965Y-72833728D01*
X118587968Y-72782027D01*
X118576382Y-72713138D01*
X118576576Y-72711516D01*
X118597009Y-72656732D01*
X118599825Y-72652571D01*
X118614820Y-72634411D01*
X118870126Y-72379106D01*
X118870138Y-72379096D01*
X118891896Y-72357338D01*
X118891897Y-72357338D01*
X118962364Y-72286871D01*
X119000500Y-72194802D01*
X119000500Y-71327978D01*
X119005522Y-71293045D01*
X119012934Y-71267800D01*
X119044228Y-71215058D01*
X119307192Y-70952095D01*
X119591629Y-70667658D01*
X119629765Y-70575589D01*
X119629765Y-70475933D01*
X119629765Y-68504437D01*
X119591629Y-68412368D01*
X119591628Y-68412367D01*
X119584844Y-68402214D01*
X119585043Y-68402080D01*
X119574922Y-68388560D01*
X119568267Y-68376372D01*
X119553416Y-68308102D01*
X119577830Y-68242641D01*
X119578838Y-68241294D01*
X119623890Y-68204112D01*
X119626889Y-68202655D01*
X119628396Y-68201922D01*
X119638860Y-68198020D01*
X119638814Y-68197909D01*
X119646317Y-68194800D01*
X119646324Y-68194799D01*
X119749051Y-68135489D01*
X119832927Y-68051613D01*
X119892237Y-67948886D01*
X119922938Y-67834309D01*
X119922938Y-67715691D01*
X119892237Y-67601114D01*
X119832927Y-67498387D01*
X119771863Y-67437323D01*
X119771861Y-67437320D01*
X119771860Y-67437320D01*
X119750710Y-67409065D01*
X119738104Y-67385977D01*
X119722938Y-67326554D01*
X119722938Y-67222611D01*
X119722937Y-67222609D01*
X119722935Y-67222603D01*
X119721429Y-67218967D01*
X119721423Y-67218954D01*
X119721408Y-67218917D01*
X119684802Y-67130541D01*
X119614335Y-67060074D01*
X119421897Y-66867636D01*
X119329829Y-66829500D01*
X119317852Y-66827118D01*
X119317888Y-66826936D01*
X119300780Y-66824476D01*
X119280283Y-66818457D01*
X119228846Y-66788449D01*
X119225107Y-66784819D01*
X119222507Y-66781678D01*
X119221517Y-66780688D01*
X119221506Y-66780681D01*
X119221502Y-66780673D01*
X119137017Y-66696188D01*
X119137016Y-66696187D01*
X119097509Y-66678743D01*
X119059998Y-66662180D01*
X119037664Y-66652318D01*
X119013375Y-66649500D01*
X119013374Y-66649500D01*
X119013373Y-66649500D01*
X118672953Y-66649500D01*
X118672952Y-66649499D01*
X118672952Y-66649500D01*
X118638017Y-66644477D01*
X118612775Y-66637065D01*
X118560030Y-66605769D01*
X117878399Y-65924138D01*
X117857250Y-65895888D01*
X117851828Y-65885958D01*
X117836975Y-65817688D01*
X117861389Y-65752223D01*
X117917319Y-65710351D01*
X117921198Y-65708904D01*
X117924534Y-65707661D01*
X117967848Y-65699850D01*
X120026397Y-65699850D01*
X120061329Y-65704871D01*
G37*
G04 #@! TD.AperFunction*
G04 #@! TA.AperFunction,Conductor*
G36*
X111142606Y-74255523D02*
G01*
X111157604Y-74259927D01*
X111172594Y-74269557D01*
X111189675Y-74274567D01*
X111216355Y-74297672D01*
X111217542Y-74299041D01*
X111245018Y-74353902D01*
X111246663Y-74361460D01*
X111249500Y-74387831D01*
X111249500Y-75206520D01*
X111257838Y-75259167D01*
X111257839Y-75259169D01*
X111260292Y-75274657D01*
X111264354Y-75300304D01*
X111321950Y-75413342D01*
X111321952Y-75413344D01*
X111321954Y-75413347D01*
X111411652Y-75503045D01*
X111411654Y-75503046D01*
X111411658Y-75503050D01*
X111462636Y-75529024D01*
X111502820Y-75549500D01*
X111520692Y-75558606D01*
X111524698Y-75560647D01*
X111618220Y-75575458D01*
X111618457Y-75575497D01*
X111618466Y-75575497D01*
X111618475Y-75575499D01*
X111618481Y-75575500D01*
X111992084Y-75575499D01*
X112027007Y-75580518D01*
X112037863Y-75583706D01*
X112096641Y-75621475D01*
X112125671Y-75685028D01*
X112115732Y-75754187D01*
X112115727Y-75754199D01*
X112112540Y-75761177D01*
X112087428Y-75797343D01*
X110184199Y-77700573D01*
X110155948Y-77721722D01*
X110132860Y-77734330D01*
X110073430Y-77749500D01*
X105534258Y-77749500D01*
X105534253Y-77749499D01*
X105534251Y-77749500D01*
X105499317Y-77744475D01*
X105484318Y-77740070D01*
X105425550Y-77702302D01*
X105416632Y-77692011D01*
X105395780Y-77658257D01*
X105391758Y-77648546D01*
X105390784Y-77645936D01*
X105390095Y-77644532D01*
X105390087Y-77644511D01*
X105390085Y-77644508D01*
X105390084Y-77644505D01*
X105307951Y-77521584D01*
X105307948Y-77521580D01*
X105307947Y-77521579D01*
X105307946Y-77521577D01*
X105203424Y-77417055D01*
X105203418Y-77417050D01*
X105203417Y-77417049D01*
X105080507Y-77334923D01*
X105080506Y-77334922D01*
X105080501Y-77334919D01*
X105080488Y-77334912D01*
X105009984Y-77305709D01*
X104979632Y-77287700D01*
X104970824Y-77280602D01*
X104930976Y-77223210D01*
X104928483Y-77153384D01*
X104964135Y-77093297D01*
X104967804Y-77089881D01*
X105013967Y-77062717D01*
X105147255Y-77019408D01*
X105301524Y-76940804D01*
X105380170Y-76883664D01*
X105441596Y-76839037D01*
X105441598Y-76839034D01*
X105441602Y-76839032D01*
X105564032Y-76716602D01*
X105564034Y-76716598D01*
X105564037Y-76716596D01*
X105608664Y-76655170D01*
X105665804Y-76576524D01*
X105744408Y-76422255D01*
X105797914Y-76257584D01*
X105799115Y-76250000D01*
X104932841Y-76250000D01*
X104865802Y-76230315D01*
X104820047Y-76177511D01*
X104810103Y-76108353D01*
X104813066Y-76093907D01*
X104817202Y-76078471D01*
X104825000Y-76049370D01*
X104825000Y-75950630D01*
X104813066Y-75906092D01*
X104814729Y-75836244D01*
X104853892Y-75778381D01*
X104918120Y-75750877D01*
X104932841Y-75750000D01*
X105799115Y-75750000D01*
X105799115Y-75749998D01*
X105797914Y-75742416D01*
X105772445Y-75664032D01*
X105744408Y-75577744D01*
X105744406Y-75577741D01*
X105744406Y-75577739D01*
X105707606Y-75505516D01*
X105665804Y-75423475D01*
X105649856Y-75401524D01*
X105564037Y-75283402D01*
X105441596Y-75160961D01*
X105301525Y-75059195D01*
X105158243Y-74986188D01*
X105158242Y-74986188D01*
X105158236Y-74986184D01*
X105158029Y-74986079D01*
X105157875Y-74985970D01*
X105144328Y-74977949D01*
X105125497Y-74965071D01*
X105115597Y-74952962D01*
X105114232Y-74951678D01*
X105113433Y-74950315D01*
X105081272Y-74910979D01*
X105079059Y-74891686D01*
X105078893Y-74891403D01*
X105078928Y-74890542D01*
X105073311Y-74841565D01*
X105081626Y-74824654D01*
X105081752Y-74821592D01*
X105086360Y-74815027D01*
X105104143Y-74778866D01*
X105118468Y-74769295D01*
X105121899Y-74764409D01*
X105131878Y-74760336D01*
X105152994Y-74746228D01*
X105156708Y-74744873D01*
X105179803Y-74738892D01*
X105200304Y-74735646D01*
X105313342Y-74678050D01*
X105403050Y-74588342D01*
X105460646Y-74475304D01*
X105460646Y-74475302D01*
X105460647Y-74475301D01*
X105460649Y-74475288D01*
X105461784Y-74470562D01*
X105461784Y-74470560D01*
X105461786Y-74470554D01*
X105461789Y-74470539D01*
X105462173Y-74465667D01*
X105476262Y-74376712D01*
X105476716Y-74376784D01*
X105479885Y-74359566D01*
X105484928Y-74342393D01*
X105522672Y-74283644D01*
X105524041Y-74282457D01*
X105578920Y-74254977D01*
X105586479Y-74253333D01*
X105612832Y-74250500D01*
X111107670Y-74250500D01*
X111142606Y-74255523D01*
G37*
G04 #@! TD.AperFunction*
G04 #@! TA.AperFunction,Conductor*
G36*
X115494683Y-72096090D02*
G01*
X115513250Y-72115921D01*
X115517428Y-72119789D01*
X115517976Y-72120465D01*
X115518863Y-72121917D01*
X115520831Y-72124019D01*
X115523612Y-72128105D01*
X115522928Y-72128570D01*
X115535083Y-72148460D01*
X115540024Y-72159649D01*
X115538533Y-72160307D01*
X115550051Y-72187221D01*
X115551931Y-72196115D01*
X115550875Y-72196338D01*
X115550826Y-72207919D01*
X115555084Y-72221611D01*
X115550638Y-72251713D01*
X115550618Y-72256621D01*
X115549795Y-72259595D01*
X115549641Y-72260003D01*
X115548874Y-72262927D01*
X115548640Y-72263777D01*
X115542163Y-72274215D01*
X115516803Y-72318422D01*
X115076981Y-72758246D01*
X115048895Y-72773582D01*
X115023218Y-72812009D01*
X114987638Y-72847589D01*
X114987637Y-72847589D01*
X114949500Y-72939658D01*
X114949500Y-73351673D01*
X114949499Y-73351675D01*
X114949500Y-73351676D01*
X114945321Y-73380736D01*
X114944476Y-73386611D01*
X114941289Y-73397464D01*
X114903514Y-73456241D01*
X114839957Y-73485264D01*
X114770807Y-73475323D01*
X114763829Y-73472136D01*
X114727657Y-73447022D01*
X114716596Y-73435961D01*
X114576527Y-73334197D01*
X114576526Y-73334196D01*
X114576524Y-73334195D01*
X114422257Y-73255591D01*
X114364061Y-73236682D01*
X114257605Y-73202092D01*
X114257599Y-73202090D01*
X114257589Y-73202087D01*
X114257581Y-73202085D01*
X114250000Y-73200884D01*
X114250000Y-74067159D01*
X114230315Y-74134198D01*
X114177511Y-74179953D01*
X114108353Y-74189897D01*
X114093909Y-74186934D01*
X114049370Y-74175000D01*
X114049369Y-74175000D01*
X113950630Y-74175000D01*
X113906092Y-74186933D01*
X113836244Y-74185271D01*
X113778381Y-74146108D01*
X113750877Y-74081880D01*
X113750000Y-74067159D01*
X113750000Y-73200884D01*
X113749999Y-73200884D01*
X113749998Y-73200884D01*
X113742429Y-73202083D01*
X113742422Y-73202084D01*
X113742418Y-73202085D01*
X113742410Y-73202087D01*
X113742406Y-73202088D01*
X113742393Y-73202092D01*
X113577743Y-73255590D01*
X113577735Y-73255593D01*
X113446683Y-73322369D01*
X113446682Y-73322371D01*
X113413274Y-73333755D01*
X113399632Y-73336317D01*
X113330111Y-73329345D01*
X113275396Y-73285893D01*
X113275395Y-73285891D01*
X113273472Y-73283163D01*
X113252487Y-73231973D01*
X113252165Y-73230028D01*
X113250500Y-73209775D01*
X113250500Y-72792324D01*
X113252369Y-72770875D01*
X113254006Y-72761554D01*
X113255405Y-72758724D01*
X113255522Y-72757393D01*
X113256805Y-72753023D01*
X113257776Y-72753308D01*
X113261879Y-72737235D01*
X113261187Y-72736977D01*
X113262248Y-72734131D01*
X113262891Y-72733271D01*
X113263349Y-72731478D01*
X113264587Y-72728768D01*
X113265834Y-72729338D01*
X113274777Y-72717388D01*
X113277657Y-72707603D01*
X113282976Y-72702998D01*
X113284990Y-72698930D01*
X113291520Y-72695014D01*
X113300520Y-72682987D01*
X113299623Y-72681952D01*
X113300679Y-72681036D01*
X113302658Y-72680130D01*
X113304110Y-72678191D01*
X113304147Y-72678164D01*
X113306586Y-72676339D01*
X113307698Y-72677825D01*
X113316954Y-72673592D01*
X113330488Y-72661880D01*
X113364093Y-72652034D01*
X113364216Y-72651978D01*
X113365800Y-72651750D01*
X113383370Y-72650500D01*
X113544206Y-72650500D01*
X113579138Y-72655521D01*
X113604382Y-72662934D01*
X113657128Y-72694230D01*
X113723387Y-72760489D01*
X113826114Y-72819799D01*
X113940691Y-72850500D01*
X113940694Y-72850500D01*
X114059306Y-72850500D01*
X114059309Y-72850500D01*
X114173886Y-72819799D01*
X114276613Y-72760489D01*
X114360489Y-72676613D01*
X114419799Y-72573886D01*
X114450500Y-72459309D01*
X114450500Y-72370771D01*
X114455522Y-72335838D01*
X114459433Y-72322519D01*
X114497206Y-72263742D01*
X114560758Y-72234717D01*
X114565529Y-72234031D01*
X114633254Y-72243335D01*
X114688502Y-72267730D01*
X114712377Y-72270500D01*
X115067622Y-72270499D01*
X115072700Y-72269910D01*
X115091494Y-72267731D01*
X115091495Y-72267730D01*
X115091498Y-72267730D01*
X115104173Y-72262132D01*
X115116870Y-72257339D01*
X115129804Y-72253252D01*
X115138679Y-72250975D01*
X115139826Y-72250500D01*
X115139828Y-72250500D01*
X115231897Y-72212364D01*
X115302364Y-72141897D01*
X115302364Y-72141895D01*
X115302969Y-72141291D01*
X115307322Y-72135365D01*
X115309859Y-72132216D01*
X115309861Y-72132217D01*
X115312733Y-72128653D01*
X115312734Y-72128648D01*
X115318882Y-72121021D01*
X115320745Y-72122522D01*
X115361174Y-72083743D01*
X115429741Y-72070316D01*
X115494683Y-72096090D01*
G37*
G04 #@! TD.AperFunction*
G04 #@! TA.AperFunction,Conductor*
G36*
X112868553Y-70655523D02*
G01*
X112883551Y-70659927D01*
X112898547Y-70669563D01*
X112915648Y-70674584D01*
X112942323Y-70697696D01*
X112952952Y-70709961D01*
X112966633Y-70729172D01*
X112967531Y-70730728D01*
X112967533Y-70730732D01*
X112970844Y-70736468D01*
X112976732Y-70746666D01*
X112976734Y-70746668D01*
X113026842Y-70833458D01*
X113026847Y-70833464D01*
X113110721Y-70917338D01*
X113111410Y-70917834D01*
X113113914Y-70919182D01*
X113197926Y-70967686D01*
X113225665Y-70989501D01*
X113236453Y-71000815D01*
X113244623Y-71016663D01*
X113246138Y-71018252D01*
X113246553Y-71020406D01*
X113268469Y-71062917D01*
X113268472Y-71062933D01*
X113269483Y-71068182D01*
X113267708Y-71122924D01*
X113267327Y-71124385D01*
X113260775Y-71143181D01*
X113252318Y-71162332D01*
X113252318Y-71162333D01*
X113252317Y-71162339D01*
X113252317Y-71162340D01*
X113249501Y-71186608D01*
X113249500Y-71186626D01*
X113249500Y-71613369D01*
X113249504Y-71613410D01*
X113252316Y-71637656D01*
X113252316Y-71637658D01*
X113252317Y-71637659D01*
X113252318Y-71637662D01*
X113261341Y-71658097D01*
X113295207Y-71734799D01*
X113296186Y-71737015D01*
X113296187Y-71737016D01*
X113372984Y-71813813D01*
X113472338Y-71857682D01*
X113496627Y-71860500D01*
X113585208Y-71860499D01*
X113618472Y-71865044D01*
X113619307Y-71865276D01*
X113624278Y-71866736D01*
X113624641Y-71866762D01*
X113630603Y-71868422D01*
X113655524Y-71883949D01*
X113681795Y-71897085D01*
X113684841Y-71902215D01*
X113689904Y-71905369D01*
X113702473Y-71931902D01*
X113717474Y-71957158D01*
X113717264Y-71963122D01*
X113719817Y-71968511D01*
X113716053Y-71997572D01*
X113715432Y-72015253D01*
X113717984Y-72015809D01*
X113717629Y-72017440D01*
X113715198Y-72021889D01*
X113715021Y-72026953D01*
X113714503Y-72028513D01*
X113712148Y-72027731D01*
X113710844Y-72037802D01*
X113698514Y-72052440D01*
X113684147Y-72078749D01*
X113662323Y-72100573D01*
X113636655Y-72119789D01*
X113634076Y-72121720D01*
X113610990Y-72134328D01*
X113551556Y-72149500D01*
X113268134Y-72149500D01*
X113268102Y-72149499D01*
X113264262Y-72149499D01*
X113249828Y-72149499D01*
X113150173Y-72149499D01*
X113135739Y-72149499D01*
X113131899Y-72149499D01*
X113131867Y-72149500D01*
X111960828Y-72149500D01*
X111960825Y-72149499D01*
X111960824Y-72149500D01*
X111925889Y-72144476D01*
X111912571Y-72140565D01*
X111853794Y-72102789D01*
X111824772Y-72039232D01*
X111823200Y-72028296D01*
X111823042Y-71998129D01*
X111822788Y-71998113D01*
X111823023Y-71994554D01*
X111823022Y-71994295D01*
X111823059Y-71994017D01*
X111823059Y-71875403D01*
X111823059Y-71875401D01*
X111792358Y-71760824D01*
X111733048Y-71658097D01*
X111649172Y-71574221D01*
X111546445Y-71514911D01*
X111546439Y-71514909D01*
X111538937Y-71511802D01*
X111538964Y-71511735D01*
X111531740Y-71509125D01*
X111526562Y-71506740D01*
X111521863Y-71504027D01*
X111519605Y-71503535D01*
X111510910Y-71499531D01*
X111507975Y-71496971D01*
X111488503Y-71486191D01*
X111487292Y-71485285D01*
X111473893Y-71473678D01*
X111449426Y-71449211D01*
X111428274Y-71420955D01*
X111415667Y-71397866D01*
X111400500Y-71338441D01*
X111400500Y-71103713D01*
X111405522Y-71068780D01*
X111405698Y-71068182D01*
X111412934Y-71043535D01*
X111444228Y-70990793D01*
X111585598Y-70849423D01*
X111613848Y-70828275D01*
X111636940Y-70815667D01*
X111696365Y-70800500D01*
X112119065Y-70800500D01*
X112119067Y-70800500D01*
X112211136Y-70762364D01*
X112274081Y-70699418D01*
X112302326Y-70678275D01*
X112325418Y-70665667D01*
X112384843Y-70650500D01*
X112833617Y-70650500D01*
X112868553Y-70655523D01*
G37*
G04 #@! TD.AperFunction*
G04 #@! TA.AperFunction,Conductor*
G36*
X115009944Y-66121225D02*
G01*
X115013865Y-66122151D01*
X115018241Y-66121522D01*
X115018268Y-66121526D01*
X115024752Y-66122459D01*
X115024641Y-66123224D01*
X115027837Y-66122827D01*
X115061504Y-66133409D01*
X115061709Y-66133507D01*
X115062075Y-66133683D01*
X115070736Y-66138267D01*
X115071766Y-66138865D01*
X115071768Y-66138867D01*
X115071770Y-66138868D01*
X115122614Y-66148980D01*
X115125340Y-66149703D01*
X115130249Y-66150500D01*
X115269750Y-66150500D01*
X115273874Y-66150500D01*
X115281729Y-66148117D01*
X115281732Y-66148115D01*
X115281742Y-66148114D01*
X115284579Y-66147550D01*
X115290715Y-66146329D01*
X115301351Y-66144214D01*
X115310624Y-66145043D01*
X115340172Y-66135787D01*
X115340173Y-66135788D01*
X115365122Y-66127972D01*
X115434979Y-66126718D01*
X115449641Y-66131742D01*
X115451599Y-66132553D01*
X115451602Y-66132555D01*
X115490493Y-66148664D01*
X115550000Y-66160500D01*
X115555454Y-66160500D01*
X115566201Y-66162858D01*
X115573561Y-66161829D01*
X115594124Y-66168987D01*
X115605824Y-66171555D01*
X115605874Y-66171440D01*
X115606481Y-66171699D01*
X115607388Y-66171899D01*
X115612530Y-66174271D01*
X115612666Y-66174349D01*
X115612759Y-66174376D01*
X115614660Y-66175253D01*
X115616343Y-66176722D01*
X115617441Y-66177105D01*
X115619054Y-66178036D01*
X115618649Y-66178736D01*
X115639669Y-66197088D01*
X115665403Y-66218331D01*
X115666290Y-66219641D01*
X115666762Y-66220743D01*
X115667292Y-66221206D01*
X115667983Y-66223594D01*
X115684776Y-66262793D01*
X115686663Y-66271463D01*
X115689500Y-66297834D01*
X115689500Y-66299998D01*
X115696446Y-66334923D01*
X115701336Y-66359508D01*
X115701338Y-66359514D01*
X115701358Y-66359564D01*
X115712934Y-66387511D01*
X115720529Y-66413657D01*
X115721121Y-66417049D01*
X115723332Y-66429732D01*
X115724394Y-66435817D01*
X115718679Y-66499756D01*
X115706165Y-66533932D01*
X115707128Y-66541417D01*
X115706286Y-66546123D01*
X115699500Y-66580243D01*
X115699500Y-66719754D01*
X115706113Y-66753005D01*
X115710641Y-66775769D01*
X115710644Y-66775780D01*
X115711131Y-66778231D01*
X115712985Y-66783643D01*
X115716843Y-66793205D01*
X115723054Y-66813043D01*
X115724299Y-66882901D01*
X115724298Y-66882902D01*
X115719904Y-66898919D01*
X115711238Y-66921555D01*
X115711131Y-66921768D01*
X115699500Y-66980248D01*
X115699500Y-67119754D01*
X115706113Y-67153005D01*
X115710641Y-67175769D01*
X115710644Y-67175780D01*
X115711131Y-67178231D01*
X115712985Y-67183643D01*
X115716843Y-67193205D01*
X115723054Y-67213043D01*
X115724299Y-67282901D01*
X115724298Y-67282902D01*
X115719904Y-67298919D01*
X115711238Y-67321555D01*
X115711131Y-67321768D01*
X115699500Y-67380248D01*
X115699500Y-67519752D01*
X115703752Y-67541133D01*
X115711131Y-67578229D01*
X115715499Y-67588772D01*
X115715699Y-67589557D01*
X115714212Y-67590173D01*
X115723029Y-67618331D01*
X115723857Y-67621578D01*
X115722710Y-67653280D01*
X115723278Y-67684993D01*
X115721361Y-67690583D01*
X115721332Y-67691402D01*
X115720837Y-67692114D01*
X115718256Y-67699644D01*
X115701338Y-67740486D01*
X115701336Y-67740491D01*
X115689500Y-67800001D01*
X115689500Y-67805450D01*
X115687139Y-67816203D01*
X115688169Y-67823568D01*
X115681003Y-67844148D01*
X115678437Y-67855838D01*
X115678552Y-67855887D01*
X115678295Y-67856486D01*
X115678096Y-67857394D01*
X115675721Y-67862541D01*
X115675650Y-67862665D01*
X115675624Y-67862750D01*
X115674738Y-67864673D01*
X115673275Y-67866347D01*
X115672899Y-67867429D01*
X115671967Y-67869044D01*
X115671271Y-67868642D01*
X115652833Y-67889757D01*
X115631637Y-67915425D01*
X115631631Y-67915429D01*
X115630326Y-67916312D01*
X115629237Y-67916778D01*
X115628781Y-67917301D01*
X115626422Y-67917983D01*
X115587215Y-67934774D01*
X115578543Y-67936662D01*
X115552165Y-67939500D01*
X115549994Y-67939500D01*
X115530161Y-67943445D01*
X115490496Y-67951334D01*
X115490492Y-67951335D01*
X115490449Y-67951352D01*
X115462484Y-67962936D01*
X115436328Y-67970532D01*
X115414167Y-67974395D01*
X115350233Y-67968675D01*
X115316074Y-67956166D01*
X115308601Y-67957130D01*
X115303842Y-67956280D01*
X115269752Y-67949500D01*
X115269748Y-67949500D01*
X115130252Y-67949500D01*
X115130247Y-67949500D01*
X115071770Y-67961131D01*
X115071769Y-67961131D01*
X115071768Y-67961132D01*
X115071765Y-67961133D01*
X115071759Y-67961138D01*
X115005447Y-68005447D01*
X114961138Y-68071759D01*
X114961133Y-68071765D01*
X114961132Y-68071768D01*
X114961132Y-68071769D01*
X114961131Y-68071770D01*
X114949500Y-68130247D01*
X114949500Y-69169829D01*
X114987636Y-69261897D01*
X115400573Y-69674834D01*
X115421723Y-69703086D01*
X115434331Y-69726175D01*
X115449500Y-69785604D01*
X115449500Y-70013369D01*
X115449504Y-70013410D01*
X115452316Y-70037656D01*
X115452316Y-70037658D01*
X115452317Y-70037659D01*
X115452318Y-70037662D01*
X115466817Y-70070499D01*
X115496184Y-70137011D01*
X115496187Y-70137016D01*
X115558882Y-70199711D01*
X115580033Y-70227966D01*
X115587525Y-70241687D01*
X115602377Y-70309947D01*
X115602248Y-70311753D01*
X115582877Y-70369960D01*
X115578695Y-70376467D01*
X115562063Y-70397106D01*
X115496154Y-70463015D01*
X115495603Y-70464305D01*
X115452317Y-70562334D01*
X115451747Y-70565038D01*
X115451492Y-70569455D01*
X115449500Y-70586620D01*
X115449500Y-71013369D01*
X115449504Y-71013410D01*
X115452316Y-71037656D01*
X115452316Y-71037658D01*
X115452317Y-71037659D01*
X115452318Y-71037662D01*
X115473610Y-71085884D01*
X115496184Y-71137011D01*
X115496187Y-71137016D01*
X115556937Y-71197766D01*
X115565307Y-71207024D01*
X115589304Y-71236415D01*
X115616454Y-71300782D01*
X115616590Y-71301974D01*
X115607811Y-71363816D01*
X115606764Y-71366323D01*
X115580025Y-71406217D01*
X115535385Y-71450858D01*
X115535380Y-71450864D01*
X115517754Y-71490783D01*
X115509970Y-71501077D01*
X115507126Y-71510027D01*
X115487038Y-71531640D01*
X115487560Y-71532181D01*
X115486684Y-71533026D01*
X115485247Y-71533777D01*
X115483429Y-71536182D01*
X115479704Y-71539268D01*
X115479408Y-71539394D01*
X115478135Y-71540397D01*
X115477868Y-71540057D01*
X115451738Y-71551298D01*
X115424768Y-71565401D01*
X115419958Y-71564969D01*
X115415521Y-71566879D01*
X115385487Y-71561879D01*
X115355177Y-71559162D01*
X115351363Y-71556199D01*
X115346600Y-71555406D01*
X115324052Y-71534976D01*
X115309168Y-71523411D01*
X115307197Y-71525163D01*
X115300680Y-71517830D01*
X115279932Y-71485545D01*
X115264616Y-71450859D01*
X115234712Y-71420955D01*
X115189141Y-71375384D01*
X115189138Y-71375383D01*
X115189136Y-71375381D01*
X115189133Y-71375379D01*
X115187862Y-71374594D01*
X115183811Y-71373029D01*
X115170172Y-71367007D01*
X115135023Y-71337318D01*
X115067630Y-71329500D01*
X115067624Y-71329500D01*
X115067623Y-71329500D01*
X115007529Y-71329500D01*
X115007528Y-71329499D01*
X115007528Y-71329500D01*
X114972593Y-71324477D01*
X114947351Y-71317065D01*
X114894606Y-71285769D01*
X113796474Y-70187637D01*
X113796473Y-70187636D01*
X113704405Y-70149500D01*
X113625078Y-70149500D01*
X113607180Y-70148202D01*
X113602429Y-70147509D01*
X113602394Y-70147493D01*
X113602364Y-70147488D01*
X113602263Y-70147484D01*
X113592864Y-70146100D01*
X113563475Y-70137984D01*
X113561216Y-70137048D01*
X113534185Y-70129805D01*
X113531882Y-70128777D01*
X113530536Y-70128768D01*
X113498532Y-70113888D01*
X113488284Y-70107203D01*
X113442890Y-70054088D01*
X113432912Y-69988604D01*
X113433119Y-69986876D01*
X113433538Y-69985752D01*
X113433417Y-69984864D01*
X113435709Y-69979933D01*
X113453541Y-69932134D01*
X113456354Y-69927976D01*
X113471359Y-69909805D01*
X113506576Y-69874589D01*
X113635652Y-69745514D01*
X113673788Y-69653445D01*
X113673788Y-69553789D01*
X113673788Y-69249662D01*
X113678052Y-69217425D01*
X113678420Y-69216056D01*
X113682431Y-69202397D01*
X113683832Y-69195954D01*
X113684621Y-69193026D01*
X113701320Y-69165701D01*
X113716668Y-69137589D01*
X113760211Y-69094048D01*
X113788458Y-69072901D01*
X113806876Y-69062844D01*
X113865190Y-69047682D01*
X113871922Y-69047622D01*
X113897209Y-69049999D01*
X113908440Y-69052233D01*
X113947827Y-69060068D01*
X113949814Y-69060500D01*
X113949999Y-69060500D01*
X113950000Y-69060500D01*
X114049999Y-69060500D01*
X114050000Y-69060500D01*
X114109507Y-69048664D01*
X114137502Y-69037067D01*
X114163629Y-69029477D01*
X114185797Y-69025608D01*
X114249744Y-69031319D01*
X114283923Y-69043831D01*
X114291418Y-69042869D01*
X114296114Y-69043710D01*
X114322613Y-69048981D01*
X114325337Y-69049703D01*
X114330249Y-69050500D01*
X114469750Y-69050500D01*
X114473873Y-69050500D01*
X114481727Y-69048117D01*
X114484785Y-69047509D01*
X114516261Y-69041248D01*
X114522359Y-69040647D01*
X114522392Y-69040638D01*
X114533313Y-69037901D01*
X114543519Y-69028651D01*
X114594552Y-68994552D01*
X114638867Y-68928231D01*
X114638867Y-68928229D01*
X114638868Y-68928229D01*
X114641030Y-68917356D01*
X114641167Y-68917089D01*
X114641250Y-68916254D01*
X114648106Y-68881786D01*
X114648106Y-68881782D01*
X114650500Y-68869748D01*
X114650500Y-68130252D01*
X114650500Y-68130249D01*
X114650499Y-68130247D01*
X114638868Y-68071770D01*
X114638867Y-68071769D01*
X114594552Y-68005447D01*
X114552420Y-67977295D01*
X114538385Y-67967917D01*
X114533641Y-67964024D01*
X114528230Y-67961132D01*
X114528229Y-67961131D01*
X114469752Y-67949500D01*
X114469750Y-67949500D01*
X114330241Y-67949500D01*
X114301857Y-67955145D01*
X114301825Y-67955152D01*
X114271770Y-67961131D01*
X114261243Y-67965492D01*
X114260441Y-67965696D01*
X114259826Y-67964212D01*
X114231682Y-67973024D01*
X114228421Y-67973855D01*
X114196714Y-67972709D01*
X114164999Y-67973275D01*
X114159417Y-67971361D01*
X114158597Y-67971332D01*
X114157882Y-67970835D01*
X114150354Y-67968255D01*
X114109513Y-67951338D01*
X114109508Y-67951336D01*
X114069834Y-67943445D01*
X114050000Y-67939500D01*
X114049999Y-67939500D01*
X114044548Y-67939500D01*
X114033791Y-67937138D01*
X114026424Y-67938168D01*
X114005850Y-67931002D01*
X113994162Y-67928436D01*
X113994113Y-67928552D01*
X113993506Y-67928292D01*
X113992599Y-67928093D01*
X113987451Y-67925718D01*
X113987332Y-67925649D01*
X113987249Y-67925624D01*
X113985321Y-67924735D01*
X113983640Y-67923267D01*
X113982548Y-67922887D01*
X113980932Y-67921954D01*
X113981335Y-67921254D01*
X113960460Y-67903023D01*
X113934606Y-67881684D01*
X113933720Y-67880376D01*
X113933237Y-67879249D01*
X113932695Y-67878776D01*
X113931987Y-67876332D01*
X113915214Y-67837176D01*
X113913330Y-67828510D01*
X113910500Y-67802168D01*
X113910500Y-67800001D01*
X113905627Y-67775500D01*
X113905104Y-67772872D01*
X113898665Y-67740498D01*
X113898664Y-67740497D01*
X113898664Y-67740493D01*
X113897563Y-67737834D01*
X113895850Y-67733698D01*
X113895850Y-67733697D01*
X113887067Y-67712493D01*
X113879474Y-67686356D01*
X113875763Y-67665087D01*
X113875607Y-67664193D01*
X113881321Y-67600247D01*
X113885113Y-67589893D01*
X113885111Y-67589892D01*
X113893831Y-67566080D01*
X113892867Y-67558604D01*
X113893719Y-67553839D01*
X113896247Y-67541133D01*
X113900473Y-67519885D01*
X113900485Y-67519825D01*
X113900500Y-67519748D01*
X113900500Y-67380065D01*
X113900069Y-67378082D01*
X113893825Y-67346691D01*
X113894230Y-67342158D01*
X113892635Y-67337063D01*
X113889351Y-67324199D01*
X113888867Y-67321766D01*
X113887013Y-67316356D01*
X113883159Y-67306802D01*
X113876946Y-67286961D01*
X113875698Y-67217103D01*
X113880092Y-67201085D01*
X113888768Y-67178428D01*
X113888863Y-67178236D01*
X113888867Y-67178231D01*
X113888868Y-67178229D01*
X113900070Y-67121908D01*
X113900500Y-67119932D01*
X113900500Y-66980065D01*
X113900069Y-66978082D01*
X113893825Y-66946691D01*
X113894230Y-66942158D01*
X113892635Y-66937063D01*
X113889351Y-66924199D01*
X113888867Y-66921766D01*
X113887013Y-66916356D01*
X113883159Y-66906802D01*
X113876946Y-66886961D01*
X113875698Y-66817103D01*
X113880092Y-66801085D01*
X113888768Y-66778428D01*
X113888865Y-66778233D01*
X113888867Y-66778231D01*
X113888868Y-66778229D01*
X113889358Y-66775769D01*
X113900068Y-66721918D01*
X113900500Y-66719932D01*
X113900500Y-66580066D01*
X113900069Y-66578083D01*
X113894209Y-66548624D01*
X113895036Y-66539371D01*
X113885786Y-66509826D01*
X113885787Y-66509826D01*
X113877968Y-66484855D01*
X113876724Y-66414997D01*
X113881745Y-66400352D01*
X113882553Y-66398399D01*
X113882555Y-66398398D01*
X113898664Y-66359507D01*
X113910500Y-66300000D01*
X113910500Y-66294546D01*
X113912858Y-66283799D01*
X113911829Y-66276443D01*
X113918983Y-66255894D01*
X113921553Y-66244187D01*
X113921436Y-66244137D01*
X113921699Y-66243522D01*
X113921898Y-66242616D01*
X113924274Y-66237462D01*
X113924350Y-66237332D01*
X113924376Y-66237241D01*
X113925254Y-66235339D01*
X113926728Y-66233649D01*
X113927113Y-66232546D01*
X113928046Y-66230930D01*
X113928748Y-66231335D01*
X113947146Y-66210261D01*
X113968335Y-66184591D01*
X113968368Y-66184568D01*
X113969676Y-66183683D01*
X113970752Y-66183222D01*
X113971204Y-66182705D01*
X113973543Y-66182027D01*
X114012819Y-66165215D01*
X114021484Y-66163331D01*
X114047829Y-66160500D01*
X114049999Y-66160500D01*
X114050000Y-66160500D01*
X114109507Y-66148664D01*
X114137502Y-66137067D01*
X114163629Y-66129477D01*
X114185797Y-66125608D01*
X114249744Y-66131319D01*
X114283923Y-66143831D01*
X114291418Y-66142869D01*
X114296114Y-66143710D01*
X114322613Y-66148981D01*
X114325337Y-66149703D01*
X114330249Y-66150500D01*
X114469750Y-66150500D01*
X114473872Y-66150500D01*
X114481727Y-66148117D01*
X114481742Y-66148114D01*
X114484568Y-66147552D01*
X114503008Y-66143884D01*
X114507622Y-66144296D01*
X114512926Y-66142636D01*
X114525789Y-66139353D01*
X114528229Y-66138868D01*
X114528231Y-66138867D01*
X114528233Y-66138865D01*
X114528236Y-66138865D01*
X114533647Y-66137012D01*
X114543182Y-66133163D01*
X114563042Y-66126944D01*
X114632893Y-66125697D01*
X114648917Y-66130092D01*
X114671562Y-66138764D01*
X114671768Y-66138867D01*
X114671770Y-66138868D01*
X114722614Y-66148980D01*
X114725340Y-66149703D01*
X114730249Y-66150500D01*
X114869750Y-66150500D01*
X114873873Y-66150500D01*
X114881728Y-66148117D01*
X114881730Y-66148116D01*
X114881742Y-66148114D01*
X114884463Y-66147573D01*
X114887876Y-66146894D01*
X114903009Y-66143884D01*
X114907629Y-66144297D01*
X114912938Y-66142635D01*
X114925803Y-66139350D01*
X114928229Y-66138868D01*
X114928231Y-66138867D01*
X114928231Y-66138866D01*
X114928234Y-66138866D01*
X114931289Y-66137820D01*
X114938746Y-66134645D01*
X114940943Y-66133864D01*
X114950186Y-66130970D01*
X114951665Y-66130055D01*
X114959104Y-66127414D01*
X114988796Y-66125758D01*
X115009140Y-66122831D01*
X115009168Y-66121212D01*
X115009944Y-66121225D01*
G37*
G04 #@! TD.AperFunction*
G04 #@! TA.AperFunction,Conductor*
G36*
X124219515Y-68455521D02*
G01*
X124232877Y-68459445D01*
X124291654Y-68497218D01*
X124320448Y-68559223D01*
X124321165Y-68563798D01*
X124312097Y-68633077D01*
X124312095Y-68633082D01*
X124302414Y-68655006D01*
X124301844Y-68657709D01*
X124301589Y-68662124D01*
X124299500Y-68680127D01*
X124299500Y-69794849D01*
X124299502Y-69794885D01*
X124302414Y-69819993D01*
X124302546Y-69820438D01*
X124303609Y-69822696D01*
X124343639Y-69913357D01*
X124347793Y-69922764D01*
X124347794Y-69922765D01*
X124427235Y-70002206D01*
X124530009Y-70047585D01*
X124555135Y-70050500D01*
X124712363Y-70050499D01*
X124747285Y-70055518D01*
X124758143Y-70058706D01*
X124816921Y-70096475D01*
X124845951Y-70160028D01*
X124836012Y-70229187D01*
X124836010Y-70229192D01*
X124832824Y-70236169D01*
X124807709Y-70272342D01*
X124379479Y-70700573D01*
X124351228Y-70721722D01*
X124328140Y-70734330D01*
X124268710Y-70749500D01*
X123342330Y-70749500D01*
X123342325Y-70749499D01*
X123342323Y-70749500D01*
X123307389Y-70744475D01*
X123292390Y-70740070D01*
X123233644Y-70702327D01*
X123233615Y-70702293D01*
X123233614Y-70702293D01*
X123233613Y-70702291D01*
X123232457Y-70700958D01*
X123204977Y-70646083D01*
X123203332Y-70638521D01*
X123200500Y-70612168D01*
X123200500Y-70043662D01*
X123205522Y-70008729D01*
X123205744Y-70007973D01*
X123212934Y-69983484D01*
X123244229Y-69930741D01*
X123252206Y-69922765D01*
X123297585Y-69819991D01*
X123300500Y-69794865D01*
X123300499Y-68680136D01*
X123297935Y-68658025D01*
X123297586Y-68655012D01*
X123297585Y-68655011D01*
X123297585Y-68655009D01*
X123297584Y-68655006D01*
X123297571Y-68654892D01*
X123296732Y-68653078D01*
X123291350Y-68640888D01*
X123281836Y-68606908D01*
X123280033Y-68593139D01*
X123282794Y-68575518D01*
X123280482Y-68557831D01*
X123288090Y-68541719D01*
X123290849Y-68524115D01*
X123302700Y-68510781D01*
X123310318Y-68494652D01*
X123337256Y-68471906D01*
X123337264Y-68471896D01*
X123341364Y-68469334D01*
X123407061Y-68450500D01*
X124184585Y-68450500D01*
X124219515Y-68455521D01*
G37*
G04 #@! TD.AperFunction*
G04 #@! TA.AperFunction,Conductor*
G36*
X125945956Y-59019685D02*
G01*
X125991711Y-59072489D01*
X126001062Y-59113137D01*
X126027673Y-61947352D01*
X125621203Y-62353825D01*
X125621199Y-62353829D01*
X125615489Y-62359540D01*
X125559541Y-62415487D01*
X125559535Y-62415495D01*
X125519982Y-62484004D01*
X125519979Y-62484009D01*
X125519346Y-62486371D01*
X125519344Y-62486374D01*
X125499500Y-62560437D01*
X125499500Y-65137757D01*
X125498099Y-65142526D01*
X125494473Y-65172705D01*
X125491787Y-65181849D01*
X125482151Y-65196838D01*
X125479815Y-65204796D01*
X125467314Y-65219920D01*
X125454007Y-65240623D01*
X125390448Y-65269641D01*
X125321290Y-65259690D01*
X125273078Y-65220579D01*
X125270213Y-65216702D01*
X125269365Y-65215240D01*
X125268872Y-65214852D01*
X125268480Y-65213716D01*
X125256522Y-65193118D01*
X125239950Y-65155586D01*
X125224619Y-65120864D01*
X125224617Y-65120861D01*
X125224616Y-65120859D01*
X125149141Y-65045384D01*
X125149138Y-65045383D01*
X125149136Y-65045381D01*
X125149132Y-65045379D01*
X125147862Y-65044594D01*
X125143811Y-65043029D01*
X125130172Y-65037007D01*
X125095023Y-65007318D01*
X125027631Y-64999500D01*
X125027623Y-64999500D01*
X124572384Y-64999500D01*
X124572361Y-64999502D01*
X124548504Y-65002269D01*
X124548501Y-65002269D01*
X124450864Y-65045380D01*
X124450856Y-65045386D01*
X124412181Y-65084062D01*
X124395334Y-65093260D01*
X124395284Y-65093287D01*
X124386607Y-65098026D01*
X124318334Y-65112878D01*
X124252870Y-65088461D01*
X124210999Y-65032530D01*
X124206861Y-65021433D01*
X124202789Y-65005072D01*
X124202603Y-65005122D01*
X124191351Y-64963128D01*
X124173207Y-64895412D01*
X124120480Y-64804087D01*
X124049425Y-64733032D01*
X124028274Y-64704778D01*
X124015667Y-64681690D01*
X124000499Y-64622257D01*
X124000500Y-64601263D01*
X124000500Y-63185925D01*
X123975439Y-63059941D01*
X123975079Y-63059238D01*
X123926465Y-62941873D01*
X123915914Y-62926082D01*
X123881579Y-62874696D01*
X123855275Y-62835328D01*
X123855272Y-62835325D01*
X123494233Y-62474287D01*
X123473085Y-62446038D01*
X123467663Y-62436108D01*
X123452810Y-62367838D01*
X123477224Y-62302373D01*
X123533154Y-62260501D01*
X123540356Y-62257814D01*
X123583681Y-62250000D01*
X123646245Y-62250000D01*
X123646246Y-62250000D01*
X123767914Y-62230729D01*
X123846487Y-62218284D01*
X123846493Y-62218283D01*
X123856127Y-62216757D01*
X123856130Y-62216757D01*
X124058217Y-62151095D01*
X124247554Y-62054622D01*
X124249976Y-62052862D01*
X124269121Y-62038953D01*
X124295858Y-62029412D01*
X124301717Y-62015269D01*
X123796149Y-61509702D01*
X123762664Y-61448379D01*
X123767648Y-61378688D01*
X123809519Y-61322754D01*
X123821822Y-61314639D01*
X123847007Y-61300099D01*
X123940099Y-61207007D01*
X123954634Y-61181830D01*
X124005199Y-61133616D01*
X124073805Y-61120391D01*
X124138671Y-61146358D01*
X124149702Y-61156149D01*
X124655269Y-61661717D01*
X124655269Y-61661716D01*
X124655270Y-61661717D01*
X124655270Y-61661716D01*
X124668738Y-61656137D01*
X124674955Y-61634967D01*
X124678954Y-61629118D01*
X124694621Y-61607555D01*
X124694622Y-61607554D01*
X124791095Y-61418217D01*
X124856757Y-61216130D01*
X124856757Y-61216127D01*
X124860601Y-61191861D01*
X124876260Y-61092993D01*
X124890000Y-61006246D01*
X124890000Y-60793753D01*
X124875139Y-60699925D01*
X124858284Y-60593511D01*
X124858283Y-60593505D01*
X124858283Y-60593506D01*
X124856756Y-60583865D01*
X124829473Y-60499898D01*
X124791095Y-60381782D01*
X124694624Y-60192449D01*
X124655270Y-60138282D01*
X124655269Y-60138282D01*
X124655268Y-60138282D01*
X124149702Y-60643849D01*
X124088379Y-60677334D01*
X124018687Y-60672350D01*
X123962754Y-60630478D01*
X123954634Y-60618169D01*
X123952219Y-60613986D01*
X123940099Y-60592993D01*
X123847007Y-60499901D01*
X123847004Y-60499899D01*
X123847000Y-60499896D01*
X123821828Y-60485363D01*
X123773613Y-60434796D01*
X123760391Y-60366189D01*
X123786359Y-60301324D01*
X123796135Y-60290310D01*
X124301716Y-59784728D01*
X124250100Y-59747228D01*
X124247550Y-59745375D01*
X124247548Y-59745374D01*
X124058214Y-59648902D01*
X123856130Y-59583242D01*
X123646251Y-59550000D01*
X123646246Y-59550000D01*
X123433754Y-59550000D01*
X123433749Y-59550000D01*
X123233513Y-59581715D01*
X123233505Y-59581715D01*
X123233506Y-59581716D01*
X123223865Y-59583242D01*
X123021784Y-59648903D01*
X122832438Y-59745380D01*
X122778282Y-59784727D01*
X122778282Y-59784728D01*
X123283850Y-60290296D01*
X123317335Y-60351619D01*
X123312351Y-60421311D01*
X123270479Y-60477244D01*
X123258173Y-60485362D01*
X123232996Y-60499898D01*
X123232990Y-60499903D01*
X123139903Y-60592990D01*
X123139898Y-60592996D01*
X123125362Y-60618173D01*
X123074793Y-60666387D01*
X123006185Y-60679607D01*
X122941322Y-60653637D01*
X122930296Y-60643850D01*
X122424728Y-60138282D01*
X122424727Y-60138282D01*
X122385380Y-60192438D01*
X122288903Y-60381784D01*
X122223242Y-60583865D01*
X122221716Y-60593506D01*
X122221715Y-60593505D01*
X122221715Y-60593512D01*
X122216731Y-60624978D01*
X122206305Y-60658696D01*
X122202869Y-60665944D01*
X122156365Y-60718089D01*
X122089051Y-60736814D01*
X122022299Y-60716174D01*
X121979056Y-60666532D01*
X121976639Y-60661504D01*
X121966792Y-60632000D01*
X121966385Y-60629953D01*
X121963232Y-60614107D01*
X121963215Y-60613986D01*
X121962119Y-60608513D01*
X121962052Y-60608172D01*
X121962052Y-60608170D01*
X121962051Y-60608165D01*
X121962049Y-60608159D01*
X121952029Y-60583968D01*
X121952008Y-60583921D01*
X121951987Y-60583869D01*
X121886635Y-60426092D01*
X121886628Y-60426079D01*
X121777139Y-60262218D01*
X121777136Y-60262214D01*
X121777131Y-60262208D01*
X121637790Y-60122867D01*
X121637784Y-60122862D01*
X121637783Y-60122861D01*
X121473926Y-60013375D01*
X121473925Y-60013374D01*
X121473920Y-60013371D01*
X121473907Y-60013364D01*
X121456351Y-60006092D01*
X121312599Y-59946549D01*
X121291846Y-59937953D01*
X121291841Y-59937951D01*
X121291839Y-59937950D01*
X121291835Y-59937948D01*
X121291833Y-59937948D01*
X121291822Y-59937945D01*
X121098546Y-59899500D01*
X121098543Y-59899500D01*
X121098541Y-59899500D01*
X120901459Y-59899500D01*
X120901457Y-59899500D01*
X120901453Y-59899500D01*
X120708176Y-59937945D01*
X120708170Y-59937947D01*
X120708160Y-59937950D01*
X120708155Y-59937951D01*
X120708137Y-59937958D01*
X120526098Y-60013360D01*
X120526089Y-60013365D01*
X120526072Y-60013375D01*
X120362215Y-60122861D01*
X120362214Y-60122862D01*
X120362208Y-60122867D01*
X120222867Y-60262208D01*
X120222862Y-60262214D01*
X120222861Y-60262215D01*
X120113375Y-60426072D01*
X120113365Y-60426089D01*
X120113360Y-60426098D01*
X120037958Y-60608137D01*
X120037951Y-60608155D01*
X120037951Y-60608159D01*
X120037945Y-60608176D01*
X119999500Y-60801451D01*
X119999500Y-60954174D01*
X119994237Y-60972094D01*
X120037945Y-61191822D01*
X120037946Y-61191826D01*
X120037947Y-61191829D01*
X120037950Y-61191839D01*
X120037953Y-61191847D01*
X120037958Y-61191861D01*
X120113360Y-61373900D01*
X120113365Y-61373909D01*
X120113375Y-61373926D01*
X120222861Y-61537783D01*
X120222862Y-61537784D01*
X120222867Y-61537790D01*
X120362208Y-61677131D01*
X120362214Y-61677136D01*
X120362218Y-61677139D01*
X120526079Y-61786628D01*
X120526092Y-61786635D01*
X120708160Y-61862049D01*
X120708165Y-61862051D01*
X120708169Y-61862051D01*
X120708170Y-61862052D01*
X120708442Y-61862106D01*
X120708469Y-61862112D01*
X120901453Y-61900500D01*
X120901456Y-61900500D01*
X120901459Y-61900500D01*
X121011362Y-61900500D01*
X121041092Y-61904774D01*
X121046294Y-61905521D01*
X121071538Y-61912934D01*
X121124284Y-61944230D01*
X122650573Y-63470519D01*
X122671723Y-63498771D01*
X122684331Y-63521860D01*
X122699500Y-63581289D01*
X122699500Y-65106519D01*
X122702475Y-65125303D01*
X122702475Y-65125304D01*
X122714352Y-65200299D01*
X122714352Y-65200300D01*
X122714353Y-65200303D01*
X122714354Y-65200304D01*
X122771950Y-65313342D01*
X122771952Y-65313344D01*
X122771954Y-65313347D01*
X122861652Y-65403045D01*
X122861654Y-65403046D01*
X122861658Y-65403050D01*
X122888813Y-65416886D01*
X122952820Y-65449500D01*
X122974694Y-65460645D01*
X122974698Y-65460647D01*
X123068475Y-65475499D01*
X123068481Y-65475500D01*
X123258107Y-65475499D01*
X123258620Y-65475503D01*
X123259456Y-65475755D01*
X123292606Y-65480521D01*
X123307603Y-65484925D01*
X123323367Y-65495053D01*
X123325507Y-65495699D01*
X123326882Y-65497310D01*
X123366355Y-65522670D01*
X123367542Y-65524039D01*
X123395019Y-65578903D01*
X123396664Y-65586462D01*
X123399500Y-65612830D01*
X123399500Y-66107337D01*
X123399499Y-66107339D01*
X123399500Y-66107340D01*
X123395241Y-66136958D01*
X123394476Y-66142275D01*
X123391289Y-66153128D01*
X123353514Y-66211905D01*
X123289957Y-66240928D01*
X123220807Y-66230987D01*
X123213829Y-66227800D01*
X123177657Y-66202686D01*
X123172767Y-66197796D01*
X123172765Y-66197794D01*
X123121715Y-66175253D01*
X123069993Y-66152415D01*
X123069994Y-66152415D01*
X123044868Y-66149500D01*
X123044865Y-66149500D01*
X122655143Y-66149500D01*
X122655127Y-66149501D01*
X122655113Y-66149502D01*
X122637255Y-66151573D01*
X122630012Y-66152413D01*
X122630011Y-66152413D01*
X122630005Y-66152414D01*
X122629559Y-66152547D01*
X122627303Y-66153609D01*
X122527236Y-66197792D01*
X122447793Y-66277234D01*
X122402414Y-66380005D01*
X122401844Y-66382710D01*
X122401589Y-66387124D01*
X122399824Y-66402340D01*
X122399500Y-66405131D01*
X122399500Y-67519856D01*
X122399502Y-67519882D01*
X122402413Y-67544987D01*
X122402415Y-67544991D01*
X122447793Y-67647764D01*
X122517699Y-67717670D01*
X122521162Y-67722924D01*
X122539814Y-67745773D01*
X122566958Y-67810154D01*
X122554985Y-67878990D01*
X122507737Y-67930402D01*
X122505554Y-67931717D01*
X122441571Y-67949500D01*
X121673692Y-67949500D01*
X121673689Y-67949499D01*
X121673688Y-67949500D01*
X121638754Y-67944476D01*
X121620699Y-67939174D01*
X121565897Y-67905771D01*
X121558708Y-67898232D01*
X121541061Y-67874659D01*
X121536645Y-67867011D01*
X121520999Y-67839911D01*
X121510493Y-67821713D01*
X121510488Y-67821706D01*
X121510486Y-67821704D01*
X121426615Y-67737833D01*
X121426613Y-67737831D01*
X121323886Y-67678521D01*
X121209309Y-67647820D01*
X121209306Y-67647820D01*
X121090694Y-67647820D01*
X121090691Y-67647820D01*
X120976114Y-67678521D01*
X120976112Y-67678522D01*
X120976110Y-67678522D01*
X120951943Y-67692474D01*
X120951942Y-67692476D01*
X120951938Y-67692477D01*
X120951934Y-67692480D01*
X120923473Y-67703874D01*
X120919177Y-67705594D01*
X120905692Y-67708866D01*
X120835901Y-67705545D01*
X120779010Y-67665050D01*
X120778986Y-67665019D01*
X120778003Y-67663769D01*
X120753686Y-67610535D01*
X120752737Y-67605610D01*
X120750500Y-67582163D01*
X120750500Y-65700173D01*
X120750497Y-65700164D01*
X120750495Y-65700160D01*
X120712366Y-65608105D01*
X120341248Y-65236987D01*
X120341247Y-65236986D01*
X120306579Y-65222626D01*
X120249179Y-65198850D01*
X117717277Y-65198850D01*
X117717276Y-65198849D01*
X117717276Y-65198850D01*
X117682341Y-65193827D01*
X117657099Y-65186415D01*
X117604354Y-65155119D01*
X116686872Y-64237637D01*
X116686871Y-64237636D01*
X116594803Y-64199500D01*
X115805195Y-64199500D01*
X115767059Y-64215296D01*
X115713128Y-64237636D01*
X115713127Y-64237637D01*
X115642661Y-64308104D01*
X115642660Y-64308104D01*
X115125287Y-64825475D01*
X115125286Y-64825476D01*
X115097031Y-64846627D01*
X115083310Y-64854119D01*
X115015050Y-64868971D01*
X115013244Y-64868842D01*
X114955043Y-64849474D01*
X114948528Y-64845287D01*
X114927892Y-64828657D01*
X114461872Y-64362637D01*
X114461871Y-64362636D01*
X114369803Y-64324500D01*
X113575169Y-64324500D01*
X113483100Y-64362637D01*
X112445165Y-65400573D01*
X112423374Y-65416886D01*
X112416914Y-65421722D01*
X112393826Y-65434330D01*
X112334396Y-65449500D01*
X111624411Y-65449500D01*
X111589476Y-65444477D01*
X111583356Y-65442680D01*
X111524578Y-65404906D01*
X111495553Y-65341350D01*
X111505497Y-65272191D01*
X111550778Y-65219693D01*
X111555863Y-65216393D01*
X111587368Y-65201748D01*
X111730111Y-65158448D01*
X112034251Y-65032469D01*
X112324579Y-64877286D01*
X112598298Y-64694393D01*
X112852772Y-64485551D01*
X113085551Y-64252772D01*
X113294393Y-63998298D01*
X113477286Y-63724579D01*
X113632469Y-63434251D01*
X113758448Y-63130111D01*
X113854010Y-62815087D01*
X113854012Y-62815077D01*
X113854015Y-62815066D01*
X113887939Y-62644511D01*
X113918233Y-62492213D01*
X113950500Y-62164600D01*
X113950500Y-61835400D01*
X113940944Y-61738374D01*
X117454237Y-61738374D01*
X117468230Y-61808714D01*
X117468232Y-61808720D01*
X117468236Y-61808728D01*
X117501493Y-61858501D01*
X117501494Y-61858503D01*
X117520040Y-61870894D01*
X117551278Y-61891767D01*
X117551279Y-61891767D01*
X117552014Y-61892258D01*
X117557113Y-61893536D01*
X117557156Y-61893549D01*
X117563255Y-61894149D01*
X117578326Y-61897148D01*
X117595176Y-61900500D01*
X119324822Y-61900500D01*
X119324824Y-61900500D01*
X119356745Y-61894150D01*
X119360880Y-61893326D01*
X119368717Y-61891768D01*
X119368717Y-61891767D01*
X119368718Y-61891767D01*
X119368722Y-61891767D01*
X119368723Y-61891765D01*
X119373868Y-61890742D01*
X119384006Y-61881554D01*
X119418504Y-61858504D01*
X119451767Y-61808722D01*
X119460500Y-61764820D01*
X119460500Y-60035180D01*
X119460500Y-60035177D01*
X119451768Y-59991282D01*
X119451767Y-59991281D01*
X119451767Y-59991278D01*
X119418504Y-59941496D01*
X119413197Y-59937950D01*
X119413190Y-59937945D01*
X119368723Y-59908233D01*
X119368718Y-59908231D01*
X119368715Y-59908230D01*
X119324826Y-59899500D01*
X119324822Y-59899500D01*
X119324820Y-59899500D01*
X117595180Y-59899500D01*
X117595178Y-59899500D01*
X117595174Y-59899500D01*
X117551283Y-59908230D01*
X117551281Y-59908230D01*
X117551270Y-59908236D01*
X117501497Y-59941493D01*
X117501493Y-59941497D01*
X117468236Y-59991270D01*
X117468230Y-59991281D01*
X117468230Y-59991283D01*
X117459500Y-60035172D01*
X117459500Y-61720453D01*
X117454237Y-61738374D01*
X113940944Y-61738374D01*
X113918233Y-61507787D01*
X113886737Y-61349444D01*
X113854379Y-61186763D01*
X113854147Y-61185496D01*
X113854009Y-61184909D01*
X113853718Y-61183950D01*
X113853717Y-61183949D01*
X113758448Y-60869889D01*
X113632469Y-60565749D01*
X113477286Y-60275421D01*
X113331799Y-60057684D01*
X113316761Y-60035177D01*
X113294429Y-60001753D01*
X113294411Y-60001729D01*
X113294405Y-60001719D01*
X113294398Y-60001709D01*
X113294393Y-60001702D01*
X113086040Y-59747823D01*
X113085542Y-59747217D01*
X112852782Y-59514457D01*
X112604070Y-59310344D01*
X112598303Y-59305611D01*
X112598302Y-59305610D01*
X112598298Y-59305607D01*
X112495288Y-59236778D01*
X112495056Y-59236621D01*
X112494640Y-59236117D01*
X112469373Y-59213420D01*
X112462117Y-59204738D01*
X112454778Y-59187876D01*
X112450550Y-59182759D01*
X112449788Y-59176412D01*
X112434235Y-59140676D01*
X112445414Y-59071706D01*
X112492106Y-59019729D01*
X112492118Y-59019722D01*
X112494105Y-59018495D01*
X112559256Y-59000000D01*
X125878917Y-59000000D01*
X125945956Y-59019685D01*
G37*
G04 #@! TD.AperFunction*
G04 #@! TA.AperFunction,Conductor*
G36*
X159006061Y-59000597D02*
G01*
X159182941Y-59018018D01*
X159206769Y-59022757D01*
X159371001Y-59072576D01*
X159393453Y-59081877D01*
X159521573Y-59150358D01*
X159544798Y-59162772D01*
X159565010Y-59176277D01*
X159697666Y-59285145D01*
X159714854Y-59302333D01*
X159823722Y-59434989D01*
X159837227Y-59455201D01*
X159918121Y-59606543D01*
X159927424Y-59629001D01*
X159977240Y-59793224D01*
X159981982Y-59817065D01*
X159999403Y-59993938D01*
X160000000Y-60006092D01*
X160000000Y-79002774D01*
X159999410Y-79014860D01*
X159982184Y-79190755D01*
X159977494Y-79214467D01*
X159928232Y-79377840D01*
X159919032Y-79400192D01*
X159839007Y-79550911D01*
X159825645Y-79571052D01*
X159717903Y-79703382D01*
X159700887Y-79720551D01*
X159569523Y-79829460D01*
X159549501Y-79842999D01*
X159399501Y-79924357D01*
X159377231Y-79933756D01*
X159214298Y-79984467D01*
X159190628Y-79989367D01*
X159014892Y-80008152D01*
X159002813Y-80008849D01*
X139472522Y-80182195D01*
X139405310Y-80163106D01*
X139359088Y-80110711D01*
X139348531Y-80041643D01*
X139376991Y-79977832D01*
X139383727Y-79970532D01*
X139874455Y-79479803D01*
X139874458Y-79479802D01*
X139891896Y-79462364D01*
X139891897Y-79462364D01*
X139962364Y-79391897D01*
X140000500Y-79299828D01*
X140000500Y-77799830D01*
X140000501Y-77799828D01*
X140000501Y-77700173D01*
X139968426Y-77622738D01*
X139962364Y-77608103D01*
X139891897Y-77537636D01*
X139884832Y-77530571D01*
X139884825Y-77530565D01*
X138891897Y-76537636D01*
X138799829Y-76499500D01*
X138799828Y-76499500D01*
X138238542Y-76499500D01*
X138171503Y-76479815D01*
X138125748Y-76427011D01*
X138115804Y-76357853D01*
X138144829Y-76294297D01*
X138191090Y-76260939D01*
X138273907Y-76226635D01*
X138273907Y-76226634D01*
X138273914Y-76226632D01*
X138437782Y-76117139D01*
X138577139Y-75977782D01*
X138686632Y-75813914D01*
X138686634Y-75813907D01*
X138689502Y-75808544D01*
X138691381Y-75809548D01*
X138729159Y-75762655D01*
X138795450Y-75740580D01*
X138799895Y-75740500D01*
X140700105Y-75740500D01*
X140767144Y-75760185D01*
X140809506Y-75809073D01*
X140810498Y-75808544D01*
X140812833Y-75812913D01*
X140812899Y-75812989D01*
X140813009Y-75813243D01*
X140813371Y-75813920D01*
X140922860Y-75977781D01*
X140922863Y-75977785D01*
X141062214Y-76117136D01*
X141062218Y-76117139D01*
X141226079Y-76226628D01*
X141226092Y-76226635D01*
X141389445Y-76294297D01*
X141408165Y-76302051D01*
X141428491Y-76306094D01*
X141447381Y-76309852D01*
X141509292Y-76342237D01*
X141543866Y-76402952D01*
X141540127Y-76472722D01*
X141499261Y-76529394D01*
X141442589Y-76553942D01*
X141383870Y-76563242D01*
X141383869Y-76563242D01*
X141181782Y-76628904D01*
X140992439Y-76725380D01*
X140938282Y-76764727D01*
X140938282Y-76764728D01*
X141570591Y-77397037D01*
X141507007Y-77414075D01*
X141392993Y-77479901D01*
X141299901Y-77572993D01*
X141234075Y-77687007D01*
X141217037Y-77750591D01*
X140584728Y-77118282D01*
X140584727Y-77118282D01*
X140545380Y-77172439D01*
X140448904Y-77361782D01*
X140383242Y-77563869D01*
X140383242Y-77563872D01*
X140350000Y-77773753D01*
X140350000Y-77986246D01*
X140383242Y-78196127D01*
X140383242Y-78196130D01*
X140448904Y-78398217D01*
X140545375Y-78587550D01*
X140584728Y-78641716D01*
X141217037Y-78009408D01*
X141234075Y-78072993D01*
X141299901Y-78187007D01*
X141392993Y-78280099D01*
X141507007Y-78345925D01*
X141570590Y-78362962D01*
X140938282Y-78995269D01*
X140938282Y-78995270D01*
X140992449Y-79034624D01*
X141181782Y-79131095D01*
X141383870Y-79196757D01*
X141593754Y-79230000D01*
X141806246Y-79230000D01*
X142016127Y-79196757D01*
X142016130Y-79196757D01*
X142218217Y-79131095D01*
X142407554Y-79034622D01*
X142461716Y-78995270D01*
X142461717Y-78995270D01*
X141829408Y-78362962D01*
X141892993Y-78345925D01*
X142007007Y-78280099D01*
X142100099Y-78187007D01*
X142165925Y-78072993D01*
X142182962Y-78009408D01*
X142815270Y-78641717D01*
X142815270Y-78641716D01*
X142854622Y-78587554D01*
X142951095Y-78398217D01*
X143016757Y-78196130D01*
X143016757Y-78196127D01*
X143050000Y-77986246D01*
X143050000Y-77773753D01*
X143016757Y-77563872D01*
X143016757Y-77563869D01*
X142951095Y-77361782D01*
X142854624Y-77172449D01*
X142815270Y-77118282D01*
X142815269Y-77118282D01*
X142182962Y-77750590D01*
X142165925Y-77687007D01*
X142100099Y-77572993D01*
X142007007Y-77479901D01*
X141892993Y-77414075D01*
X141829409Y-77397037D01*
X142461716Y-76764728D01*
X142407550Y-76725375D01*
X142218217Y-76628904D01*
X142016128Y-76563242D01*
X141957411Y-76553942D01*
X141894276Y-76524012D01*
X141857345Y-76464701D01*
X141858343Y-76394838D01*
X141896953Y-76336606D01*
X141952615Y-76309852D01*
X141991835Y-76302051D01*
X142152746Y-76235400D01*
X153049500Y-76235400D01*
X153049500Y-76564600D01*
X153059987Y-76671078D01*
X153081765Y-76892201D01*
X153081768Y-76892218D01*
X153145984Y-77215066D01*
X153145987Y-77215077D01*
X153241552Y-77530112D01*
X153353273Y-77799830D01*
X153367531Y-77834251D01*
X153387096Y-77870855D01*
X153522707Y-78124567D01*
X153522718Y-78124585D01*
X153705601Y-78398289D01*
X153705611Y-78398303D01*
X153914453Y-78652777D01*
X154147222Y-78885546D01*
X154147227Y-78885550D01*
X154147228Y-78885551D01*
X154401702Y-79094393D01*
X154675421Y-79277286D01*
X154965749Y-79432469D01*
X155269889Y-79558448D01*
X155584913Y-79654010D01*
X155584919Y-79654011D01*
X155584922Y-79654012D01*
X155584933Y-79654015D01*
X155765361Y-79689903D01*
X155907787Y-79718233D01*
X156235400Y-79750500D01*
X156235403Y-79750500D01*
X156564597Y-79750500D01*
X156564600Y-79750500D01*
X156892213Y-79718233D01*
X157069760Y-79682916D01*
X157215066Y-79654015D01*
X157215077Y-79654012D01*
X157215077Y-79654011D01*
X157215087Y-79654010D01*
X157530111Y-79558448D01*
X157834251Y-79432469D01*
X158124579Y-79277286D01*
X158398298Y-79094393D01*
X158652772Y-78885551D01*
X158885551Y-78652772D01*
X159094393Y-78398298D01*
X159277286Y-78124579D01*
X159432469Y-77834251D01*
X159558448Y-77530111D01*
X159654010Y-77215087D01*
X159654012Y-77215077D01*
X159654015Y-77215066D01*
X159682916Y-77069760D01*
X159718233Y-76892213D01*
X159750500Y-76564600D01*
X159750500Y-76235400D01*
X159718233Y-75907787D01*
X159682871Y-75730008D01*
X159654015Y-75584933D01*
X159654012Y-75584922D01*
X159654011Y-75584919D01*
X159654010Y-75584913D01*
X159558448Y-75269889D01*
X159432469Y-74965749D01*
X159291607Y-74702214D01*
X159277292Y-74675432D01*
X159277291Y-74675430D01*
X159277286Y-74675421D01*
X159094393Y-74401702D01*
X158885551Y-74147228D01*
X158885550Y-74147227D01*
X158885546Y-74147222D01*
X158652777Y-73914453D01*
X158398303Y-73705611D01*
X158398302Y-73705610D01*
X158398298Y-73705607D01*
X158124579Y-73522714D01*
X158124574Y-73522711D01*
X158124567Y-73522707D01*
X157834258Y-73367535D01*
X157834251Y-73367531D01*
X157781974Y-73345877D01*
X157530112Y-73241552D01*
X157228873Y-73150172D01*
X157215087Y-73145990D01*
X157215086Y-73145989D01*
X157215077Y-73145987D01*
X157215066Y-73145984D01*
X156892218Y-73081768D01*
X156892213Y-73081767D01*
X156892211Y-73081766D01*
X156892201Y-73081765D01*
X156651522Y-73058061D01*
X156564600Y-73049500D01*
X156235400Y-73049500D01*
X156155540Y-73057365D01*
X155907798Y-73081765D01*
X155907781Y-73081768D01*
X155584933Y-73145984D01*
X155584922Y-73145987D01*
X155269887Y-73241552D01*
X154965755Y-73367528D01*
X154965741Y-73367535D01*
X154675432Y-73522707D01*
X154675414Y-73522718D01*
X154401710Y-73705601D01*
X154401696Y-73705611D01*
X154147222Y-73914453D01*
X153914453Y-74147222D01*
X153705611Y-74401696D01*
X153705601Y-74401710D01*
X153522718Y-74675414D01*
X153522707Y-74675432D01*
X153367535Y-74965741D01*
X153367528Y-74965755D01*
X153241552Y-75269887D01*
X153145987Y-75584922D01*
X153145984Y-75584933D01*
X153081768Y-75907781D01*
X153081765Y-75907798D01*
X153059954Y-76129254D01*
X153049500Y-76235400D01*
X142152746Y-76235400D01*
X142173914Y-76226632D01*
X142238409Y-76183538D01*
X142319651Y-76129254D01*
X142319652Y-76129253D01*
X142337782Y-76117139D01*
X142477139Y-75977782D01*
X142586632Y-75813914D01*
X142586634Y-75813907D01*
X142589502Y-75808544D01*
X142591381Y-75809548D01*
X142629159Y-75762655D01*
X142695450Y-75740580D01*
X142699895Y-75740500D01*
X145112725Y-75740500D01*
X145112727Y-75740500D01*
X145214588Y-75713207D01*
X145305913Y-75660480D01*
X146902066Y-74064325D01*
X146963387Y-74030842D01*
X147033078Y-74035826D01*
X147089012Y-74077698D01*
X147100226Y-74095707D01*
X147121950Y-74138342D01*
X147121952Y-74138344D01*
X147121954Y-74138347D01*
X147211652Y-74228045D01*
X147211654Y-74228046D01*
X147211658Y-74228050D01*
X147324694Y-74285645D01*
X147324698Y-74285647D01*
X147418475Y-74300499D01*
X147418481Y-74300500D01*
X148581518Y-74300499D01*
X148675304Y-74285646D01*
X148788342Y-74228050D01*
X148878050Y-74138342D01*
X148935646Y-74025304D01*
X148935646Y-74025302D01*
X148935647Y-74025301D01*
X148950499Y-73931524D01*
X148950500Y-73931519D01*
X148950499Y-70868482D01*
X148935646Y-70774696D01*
X148878050Y-70661658D01*
X148878046Y-70661654D01*
X148878045Y-70661652D01*
X148788347Y-70571954D01*
X148788344Y-70571952D01*
X148788342Y-70571950D01*
X148711517Y-70532805D01*
X148675301Y-70514352D01*
X148581524Y-70499500D01*
X147418482Y-70499500D01*
X147337519Y-70512323D01*
X147324696Y-70514354D01*
X147211658Y-70571950D01*
X147211657Y-70571951D01*
X147211652Y-70571954D01*
X147121954Y-70661652D01*
X147121951Y-70661657D01*
X147064352Y-70774698D01*
X147049500Y-70868475D01*
X147049500Y-72732744D01*
X147029815Y-72799783D01*
X147013181Y-72820425D01*
X144930426Y-74903181D01*
X144869103Y-74936666D01*
X144842745Y-74939500D01*
X142699895Y-74939500D01*
X142632856Y-74919815D01*
X142590493Y-74870926D01*
X142589502Y-74871456D01*
X142587166Y-74867086D01*
X142587101Y-74867011D01*
X142586990Y-74866756D01*
X142586628Y-74866079D01*
X142477139Y-74702218D01*
X142477136Y-74702214D01*
X142468231Y-74693309D01*
X142434746Y-74631986D01*
X142439730Y-74562294D01*
X142481602Y-74506361D01*
X142508459Y-74491067D01*
X142509828Y-74490500D01*
X142601897Y-74452364D01*
X144222364Y-72831897D01*
X144260500Y-72739828D01*
X144260500Y-72640172D01*
X144260500Y-71023296D01*
X144280185Y-70956257D01*
X144302034Y-70933759D01*
X144301016Y-70932741D01*
X144322099Y-70911658D01*
X144384616Y-70849141D01*
X144427730Y-70751498D01*
X144430500Y-70727623D01*
X144430499Y-70272378D01*
X144427730Y-70248502D01*
X144424312Y-70240760D01*
X144384619Y-70150864D01*
X144384617Y-70150861D01*
X144384616Y-70150859D01*
X144309141Y-70075384D01*
X144309138Y-70075383D01*
X144309136Y-70075381D01*
X144211500Y-70032270D01*
X144211501Y-70032270D01*
X144187623Y-70029500D01*
X143832384Y-70029500D01*
X143832361Y-70029502D01*
X143808504Y-70032269D01*
X143808501Y-70032269D01*
X143710864Y-70075380D01*
X143710856Y-70075386D01*
X143635386Y-70150856D01*
X143635380Y-70150866D01*
X143613432Y-70200571D01*
X143568345Y-70253947D01*
X143501559Y-70274473D01*
X143434277Y-70255634D01*
X143387862Y-70203409D01*
X143386590Y-70200624D01*
X143364616Y-70150859D01*
X143289141Y-70075384D01*
X143289138Y-70075383D01*
X143289136Y-70075381D01*
X143191500Y-70032270D01*
X143191501Y-70032270D01*
X143167623Y-70029500D01*
X142812384Y-70029500D01*
X142812361Y-70029502D01*
X142788504Y-70032269D01*
X142788501Y-70032269D01*
X142690864Y-70075380D01*
X142690856Y-70075386D01*
X142615386Y-70150856D01*
X142615381Y-70150863D01*
X142604465Y-70175587D01*
X142592468Y-70189789D01*
X142584744Y-70206703D01*
X142570387Y-70215929D01*
X142559378Y-70228963D01*
X142541607Y-70234424D01*
X142525966Y-70244477D01*
X142493902Y-70249087D01*
X142492592Y-70249490D01*
X142491031Y-70249500D01*
X142414620Y-70249500D01*
X142347581Y-70229815D01*
X142326939Y-70213182D01*
X142289344Y-70175587D01*
X142249141Y-70135384D01*
X142249138Y-70135382D01*
X142249136Y-70135381D01*
X142151500Y-70092270D01*
X142151501Y-70092270D01*
X142127623Y-70089500D01*
X141672384Y-70089500D01*
X141672361Y-70089502D01*
X141648504Y-70092269D01*
X141648501Y-70092269D01*
X141550864Y-70135380D01*
X141550856Y-70135386D01*
X141475386Y-70210856D01*
X141475382Y-70210863D01*
X141463432Y-70237925D01*
X141418344Y-70291300D01*
X141351557Y-70311825D01*
X141284276Y-70292985D01*
X141237861Y-70240760D01*
X141236585Y-70237966D01*
X141224616Y-70210859D01*
X141149141Y-70135384D01*
X141149138Y-70135383D01*
X141149136Y-70135381D01*
X141051500Y-70092270D01*
X141051501Y-70092270D01*
X141027623Y-70089500D01*
X140572384Y-70089500D01*
X140572361Y-70089502D01*
X140548504Y-70092269D01*
X140548501Y-70092269D01*
X140450864Y-70135380D01*
X140450856Y-70135386D01*
X140367259Y-70218984D01*
X140365155Y-70216880D01*
X140324877Y-70249760D01*
X140276703Y-70259500D01*
X140040170Y-70259500D01*
X139948102Y-70297636D01*
X139948101Y-70297637D01*
X138482558Y-71763181D01*
X138421235Y-71796666D01*
X138394877Y-71799500D01*
X136935178Y-71799500D01*
X136891282Y-71808231D01*
X136891275Y-71808234D01*
X136841496Y-71841495D01*
X136841495Y-71841496D01*
X136808234Y-71891275D01*
X136808231Y-71891282D01*
X136799500Y-71935177D01*
X136799500Y-72427978D01*
X136779815Y-72495017D01*
X136727011Y-72540772D01*
X136700829Y-72549227D01*
X136608102Y-72587636D01*
X136137636Y-73058102D01*
X136099500Y-73150170D01*
X136099500Y-78574877D01*
X136079815Y-78641916D01*
X136063181Y-78662558D01*
X135632557Y-79093181D01*
X135571234Y-79126666D01*
X135544877Y-79129500D01*
X135332384Y-79129500D01*
X135332361Y-79129502D01*
X135308504Y-79132269D01*
X135308501Y-79132269D01*
X135210864Y-79175380D01*
X135210856Y-79175386D01*
X135135386Y-79250856D01*
X135135380Y-79250866D01*
X135113432Y-79300571D01*
X135068345Y-79353947D01*
X135001559Y-79374473D01*
X134934277Y-79355634D01*
X134887862Y-79303409D01*
X134886590Y-79300624D01*
X134864616Y-79250859D01*
X134789141Y-79175384D01*
X134789138Y-79175383D01*
X134789136Y-79175381D01*
X134691500Y-79132270D01*
X134691501Y-79132270D01*
X134667623Y-79129500D01*
X134312384Y-79129500D01*
X134312361Y-79129502D01*
X134288504Y-79132269D01*
X134288501Y-79132269D01*
X134190864Y-79175380D01*
X134190856Y-79175386D01*
X134115386Y-79250856D01*
X134115381Y-79250863D01*
X134104465Y-79275587D01*
X134059378Y-79328963D01*
X133992592Y-79349490D01*
X133991031Y-79349500D01*
X132579122Y-79349500D01*
X132512083Y-79329815D01*
X132466328Y-79277011D01*
X132456384Y-79207853D01*
X132485409Y-79144297D01*
X132491441Y-79137819D01*
X134242441Y-77386818D01*
X134303764Y-77353333D01*
X134330122Y-77350499D01*
X134707356Y-77350499D01*
X134707364Y-77350499D01*
X134707379Y-77350497D01*
X134707382Y-77350497D01*
X134732487Y-77347586D01*
X134732488Y-77347585D01*
X134732491Y-77347585D01*
X134835265Y-77302206D01*
X134914706Y-77222765D01*
X134960085Y-77119991D01*
X134963000Y-77094865D01*
X134962999Y-76705136D01*
X134962956Y-76704761D01*
X134960086Y-76680012D01*
X134960085Y-76680010D01*
X134960085Y-76680009D01*
X134914706Y-76577235D01*
X134835265Y-76497794D01*
X134809424Y-76486384D01*
X134732492Y-76452415D01*
X134707365Y-76449500D01*
X133442643Y-76449500D01*
X133442617Y-76449502D01*
X133417512Y-76452413D01*
X133417508Y-76452415D01*
X133314735Y-76497793D01*
X133235294Y-76577234D01*
X133189915Y-76680006D01*
X133189915Y-76680008D01*
X133187000Y-76705131D01*
X133187000Y-77094856D01*
X133187002Y-77094882D01*
X133189913Y-77119987D01*
X133189915Y-77119991D01*
X133235293Y-77222764D01*
X133235294Y-77222765D01*
X133314735Y-77302206D01*
X133359886Y-77322142D01*
X133413261Y-77367225D01*
X133433789Y-77434011D01*
X133414952Y-77501294D01*
X133397480Y-77523256D01*
X132469681Y-78451056D01*
X132408358Y-78484541D01*
X132338667Y-78479557D01*
X132282733Y-78437685D01*
X132258316Y-78372221D01*
X132258000Y-78363375D01*
X132258000Y-77924270D01*
X132258001Y-77924261D01*
X132258001Y-77810174D01*
X132258001Y-77810172D01*
X132219864Y-77718104D01*
X132219864Y-77718103D01*
X132149397Y-77647636D01*
X132142332Y-77640571D01*
X132142325Y-77640565D01*
X131944318Y-77442558D01*
X131910833Y-77381235D01*
X131907999Y-77354877D01*
X131907999Y-77112384D01*
X131907999Y-77112378D01*
X131905230Y-77088502D01*
X131905230Y-77088501D01*
X131862119Y-76990864D01*
X131862117Y-76990861D01*
X131862116Y-76990859D01*
X131786641Y-76915384D01*
X131786638Y-76915383D01*
X131786636Y-76915381D01*
X131689000Y-76872270D01*
X131689001Y-76872270D01*
X131665123Y-76869500D01*
X131209884Y-76869500D01*
X131209861Y-76869502D01*
X131186004Y-76872269D01*
X131186001Y-76872269D01*
X131088364Y-76915380D01*
X131088358Y-76915384D01*
X131037180Y-76966563D01*
X130975856Y-77000047D01*
X130906164Y-76995062D01*
X130850231Y-76953191D01*
X130825815Y-76887726D01*
X130825499Y-76878881D01*
X130825499Y-76755143D01*
X130825499Y-76755136D01*
X130825497Y-76755117D01*
X130822586Y-76730012D01*
X130822585Y-76730010D01*
X130822585Y-76730009D01*
X130777206Y-76627235D01*
X130777205Y-76627234D01*
X130772565Y-76616724D01*
X130776568Y-76614956D01*
X130761986Y-76570120D01*
X130779728Y-76502541D01*
X130798253Y-76478862D01*
X130894558Y-76382558D01*
X131015297Y-76261819D01*
X131042224Y-76247115D01*
X131068043Y-76230523D01*
X131074243Y-76229631D01*
X131076620Y-76228334D01*
X131102978Y-76225500D01*
X131262555Y-76225500D01*
X131329594Y-76245185D01*
X131350919Y-76265889D01*
X131352169Y-76264640D01*
X131360294Y-76272765D01*
X131439735Y-76352206D01*
X131542509Y-76397585D01*
X131567635Y-76400500D01*
X132832364Y-76400499D01*
X132832379Y-76400497D01*
X132832382Y-76400497D01*
X132857487Y-76397586D01*
X132857488Y-76397585D01*
X132857491Y-76397585D01*
X132960265Y-76352206D01*
X133039706Y-76272765D01*
X133085085Y-76169991D01*
X133088000Y-76144865D01*
X133087999Y-75755136D01*
X133086302Y-75740499D01*
X133085086Y-75730012D01*
X133085085Y-75730010D01*
X133085085Y-75730009D01*
X133039706Y-75627235D01*
X132960265Y-75547794D01*
X132960263Y-75547793D01*
X132857492Y-75502415D01*
X132832365Y-75499500D01*
X131567643Y-75499500D01*
X131567617Y-75499502D01*
X131542512Y-75502413D01*
X131542508Y-75502415D01*
X131439735Y-75547793D01*
X131439734Y-75547794D01*
X131352169Y-75635360D01*
X131349732Y-75632923D01*
X131310713Y-75664766D01*
X131262555Y-75674500D01*
X130992300Y-75674500D01*
X130882700Y-75674500D01*
X130882698Y-75674500D01*
X130882696Y-75674501D01*
X130781444Y-75716439D01*
X130034702Y-76463181D01*
X129973379Y-76496666D01*
X129947021Y-76499500D01*
X129305143Y-76499500D01*
X129305117Y-76499502D01*
X129280012Y-76502413D01*
X129280008Y-76502415D01*
X129177235Y-76547793D01*
X129097794Y-76627234D01*
X129052415Y-76730006D01*
X129052415Y-76730008D01*
X129049500Y-76755131D01*
X129049500Y-77144856D01*
X129049502Y-77144882D01*
X129052413Y-77169987D01*
X129052415Y-77169991D01*
X129097793Y-77272764D01*
X129097794Y-77272765D01*
X129177235Y-77352206D01*
X129280009Y-77397585D01*
X129305135Y-77400500D01*
X129538000Y-77400499D01*
X129605039Y-77420183D01*
X129650794Y-77472987D01*
X129662000Y-77524499D01*
X129662000Y-77894800D01*
X129703943Y-77996058D01*
X129703944Y-77996059D01*
X129990681Y-78282796D01*
X130024166Y-78344119D01*
X130027000Y-78370476D01*
X130027000Y-78577615D01*
X130027002Y-78577638D01*
X130030844Y-78610764D01*
X130027069Y-78611201D01*
X130026072Y-78662730D01*
X129987168Y-78720766D01*
X129923062Y-78748556D01*
X129907793Y-78749500D01*
X126185441Y-78749500D01*
X126110882Y-70809062D01*
X127483127Y-69436818D01*
X127544450Y-69403333D01*
X127570808Y-69400499D01*
X128681517Y-69400499D01*
X128681518Y-69400499D01*
X128775304Y-69385646D01*
X128888342Y-69328050D01*
X128978050Y-69238342D01*
X129035646Y-69125304D01*
X129035646Y-69125302D01*
X129035647Y-69125301D01*
X129050499Y-69031524D01*
X129050500Y-69031519D01*
X129050499Y-66968482D01*
X129035646Y-66874696D01*
X128978050Y-66761658D01*
X128978046Y-66761654D01*
X128978045Y-66761652D01*
X128888347Y-66671954D01*
X128888344Y-66671952D01*
X128888342Y-66671950D01*
X128811517Y-66632805D01*
X128775301Y-66614352D01*
X128681524Y-66599500D01*
X127318482Y-66599500D01*
X127237519Y-66612323D01*
X127224696Y-66614354D01*
X127111658Y-66671950D01*
X127111657Y-66671951D01*
X127111652Y-66671954D01*
X127021954Y-66761652D01*
X127021951Y-66761657D01*
X126964352Y-66874698D01*
X126949500Y-66968475D01*
X126949500Y-68079190D01*
X126929815Y-68146229D01*
X126913181Y-68166871D01*
X126093767Y-68986284D01*
X126087108Y-68277040D01*
X126100500Y-68227062D01*
X126100500Y-62775833D01*
X126120185Y-62708794D01*
X126136819Y-62688152D01*
X127488152Y-61336819D01*
X127549475Y-61303334D01*
X127575833Y-61300500D01*
X129805500Y-61300500D01*
X129872539Y-61320185D01*
X129918294Y-61372989D01*
X129929500Y-61424500D01*
X129929500Y-63708486D01*
X129941026Y-63751500D01*
X129949979Y-63784913D01*
X129964611Y-63810256D01*
X129964611Y-63810257D01*
X129989537Y-63853431D01*
X129989539Y-63853434D01*
X129989540Y-63853435D01*
X130320616Y-64184511D01*
X130376565Y-64240460D01*
X130376567Y-64240461D01*
X130376571Y-64240464D01*
X130445080Y-64280017D01*
X130445087Y-64280021D01*
X130521514Y-64300500D01*
X131420500Y-64300500D01*
X131429185Y-64303050D01*
X131438147Y-64301762D01*
X131462187Y-64312740D01*
X131487539Y-64320185D01*
X131493466Y-64327025D01*
X131501703Y-64330787D01*
X131515992Y-64353021D01*
X131533294Y-64372989D01*
X131535581Y-64383503D01*
X131539477Y-64389565D01*
X131544500Y-64424500D01*
X131544500Y-64500380D01*
X131524815Y-64567419D01*
X131508182Y-64588061D01*
X131445384Y-64650859D01*
X131445381Y-64650863D01*
X131402270Y-64748499D01*
X131399500Y-64772375D01*
X131399500Y-65227615D01*
X131399502Y-65227638D01*
X131402269Y-65251495D01*
X131402269Y-65251498D01*
X131445380Y-65349135D01*
X131445383Y-65349139D01*
X131445384Y-65349141D01*
X131520859Y-65424616D01*
X131520862Y-65424617D01*
X131520863Y-65424618D01*
X131618499Y-65467729D01*
X131618500Y-65467729D01*
X131618502Y-65467730D01*
X131642377Y-65470500D01*
X131997622Y-65470499D01*
X132021498Y-65467730D01*
X132119135Y-65424619D01*
X132119136Y-65424618D01*
X132119141Y-65424616D01*
X132194616Y-65349141D01*
X132194618Y-65349134D01*
X132201110Y-65339660D01*
X132202138Y-65340364D01*
X132206493Y-65335209D01*
X132214217Y-65318297D01*
X132228571Y-65309071D01*
X132239582Y-65296037D01*
X132257354Y-65290574D01*
X132272995Y-65280523D01*
X132305056Y-65275913D01*
X132306368Y-65275510D01*
X132307930Y-65275500D01*
X132512070Y-65275500D01*
X132579109Y-65295185D01*
X132618109Y-65340194D01*
X132618890Y-65339660D01*
X132623582Y-65346510D01*
X132624864Y-65347989D01*
X132625375Y-65349127D01*
X132625382Y-65349138D01*
X132625384Y-65349141D01*
X132700859Y-65424616D01*
X132700862Y-65424617D01*
X132700863Y-65424618D01*
X132798499Y-65467729D01*
X132798500Y-65467729D01*
X132798502Y-65467730D01*
X132822377Y-65470500D01*
X133177622Y-65470499D01*
X133201498Y-65467730D01*
X133205563Y-65465934D01*
X133210448Y-65465294D01*
X133210496Y-65465282D01*
X133210497Y-65465288D01*
X133218151Y-65464285D01*
X133229295Y-65458201D01*
X133252134Y-65459834D01*
X133274840Y-65456860D01*
X133286322Y-65462279D01*
X133298987Y-65463185D01*
X133317317Y-65476907D01*
X133338026Y-65486681D01*
X133344756Y-65497448D01*
X133354920Y-65505057D01*
X133362922Y-65526511D01*
X133375059Y-65545929D01*
X133374899Y-65558624D01*
X133379337Y-65570521D01*
X133374469Y-65592896D01*
X133374182Y-65615793D01*
X133366831Y-65628005D01*
X133364485Y-65638794D01*
X133343334Y-65667048D01*
X133237942Y-65772440D01*
X133176619Y-65805925D01*
X133169659Y-65807232D01*
X133124698Y-65814352D01*
X133082242Y-65835985D01*
X133025948Y-65849500D01*
X131923116Y-65849500D01*
X131866823Y-65835985D01*
X131811924Y-65808013D01*
X131775301Y-65789352D01*
X131681524Y-65774500D01*
X131681519Y-65774500D01*
X130745808Y-65774500D01*
X130678769Y-65754815D01*
X130658127Y-65738181D01*
X129086818Y-64166872D01*
X129053333Y-64105549D01*
X129050499Y-64079191D01*
X129050499Y-62968482D01*
X129047708Y-62950859D01*
X129035646Y-62874696D01*
X128978050Y-62761658D01*
X128978046Y-62761654D01*
X128978045Y-62761652D01*
X128888347Y-62671954D01*
X128888344Y-62671952D01*
X128888342Y-62671950D01*
X128811517Y-62632805D01*
X128775301Y-62614352D01*
X128681524Y-62599500D01*
X127318482Y-62599500D01*
X127244314Y-62611247D01*
X127224696Y-62614354D01*
X127111658Y-62671950D01*
X127111657Y-62671951D01*
X127111652Y-62671954D01*
X127021954Y-62761652D01*
X127021951Y-62761657D01*
X127021950Y-62761658D01*
X127014028Y-62777206D01*
X126964352Y-62874698D01*
X126949500Y-62968475D01*
X126949500Y-65031517D01*
X126960292Y-65099657D01*
X126964354Y-65125304D01*
X127021950Y-65238342D01*
X127021952Y-65238344D01*
X127021954Y-65238347D01*
X127111652Y-65328045D01*
X127111654Y-65328046D01*
X127111658Y-65328050D01*
X127204548Y-65375380D01*
X127224698Y-65385647D01*
X127318475Y-65400499D01*
X127318481Y-65400500D01*
X128429191Y-65400499D01*
X128496230Y-65420184D01*
X128516872Y-65436818D01*
X129923443Y-66843389D01*
X129956928Y-66904712D01*
X129958235Y-66911673D01*
X129964352Y-66950298D01*
X129964353Y-66950302D01*
X129964354Y-66950304D01*
X130021950Y-67063342D01*
X130021952Y-67063344D01*
X130021954Y-67063347D01*
X130111652Y-67153045D01*
X130111654Y-67153046D01*
X130111658Y-67153050D01*
X130224694Y-67210645D01*
X130224698Y-67210647D01*
X130318475Y-67225499D01*
X130318481Y-67225500D01*
X131681518Y-67225499D01*
X131775304Y-67210646D01*
X131866823Y-67164014D01*
X131923116Y-67150500D01*
X132933448Y-67150500D01*
X133000487Y-67170185D01*
X133006329Y-67174179D01*
X133011653Y-67178046D01*
X133011655Y-67178047D01*
X133011658Y-67178050D01*
X133110868Y-67228600D01*
X133124698Y-67235647D01*
X133218475Y-67250499D01*
X133218481Y-67250500D01*
X134279191Y-67250499D01*
X134346230Y-67270183D01*
X134366872Y-67286818D01*
X135685324Y-68605271D01*
X135685331Y-68605277D01*
X135791871Y-68676464D01*
X135791870Y-68676464D01*
X135800733Y-68680135D01*
X135910256Y-68725501D01*
X135910260Y-68725501D01*
X135910261Y-68725502D01*
X136035928Y-68750500D01*
X136035931Y-68750500D01*
X136325500Y-68750500D01*
X136392539Y-68770185D01*
X136438294Y-68822989D01*
X136449500Y-68874500D01*
X136449500Y-70103456D01*
X136429815Y-70170495D01*
X136413181Y-70191137D01*
X134951137Y-71653181D01*
X134889814Y-71686666D01*
X134863456Y-71689500D01*
X134360244Y-71689500D01*
X134293205Y-71669815D01*
X134290165Y-71667798D01*
X134286640Y-71665383D01*
X134189000Y-71622270D01*
X134189001Y-71622270D01*
X134165123Y-71619500D01*
X133709884Y-71619500D01*
X133709861Y-71619502D01*
X133686004Y-71622269D01*
X133686001Y-71622269D01*
X133588364Y-71665380D01*
X133588356Y-71665386D01*
X133525181Y-71728562D01*
X133517235Y-71732900D01*
X133511810Y-71740148D01*
X133487050Y-71749382D01*
X133463858Y-71762047D01*
X133454828Y-71761401D01*
X133446346Y-71764565D01*
X133420525Y-71758948D01*
X133394166Y-71757063D01*
X133385112Y-71751244D01*
X133378073Y-71749713D01*
X133349819Y-71728562D01*
X133324319Y-71703062D01*
X133290834Y-71641739D01*
X133288000Y-71615381D01*
X133288000Y-71291358D01*
X133288000Y-71291356D01*
X133278685Y-71256591D01*
X133280348Y-71186743D01*
X133319511Y-71128881D01*
X133383739Y-71101377D01*
X133398460Y-71100500D01*
X134952725Y-71100500D01*
X134952727Y-71100500D01*
X135054588Y-71073207D01*
X135109751Y-71041356D01*
X135139657Y-71028969D01*
X135173886Y-71019799D01*
X135276613Y-70960489D01*
X135360489Y-70876613D01*
X135419799Y-70773886D01*
X135450500Y-70659309D01*
X135450500Y-70540691D01*
X135419799Y-70426114D01*
X135360489Y-70323387D01*
X135276613Y-70239511D01*
X135173886Y-70180201D01*
X135059309Y-70149500D01*
X134940691Y-70149500D01*
X134826114Y-70180201D01*
X134826112Y-70180201D01*
X134826112Y-70180202D01*
X134723387Y-70239511D01*
X134723384Y-70239513D01*
X134699717Y-70263181D01*
X134638394Y-70296666D01*
X134612036Y-70299500D01*
X133648626Y-70299500D01*
X133581587Y-70279815D01*
X133560945Y-70263181D01*
X133427286Y-70129522D01*
X133427284Y-70129520D01*
X133362764Y-70092269D01*
X133335960Y-70076793D01*
X133285028Y-70063146D01*
X133234098Y-70049500D01*
X129997273Y-70049500D01*
X129895413Y-70076793D01*
X129895410Y-70076794D01*
X129804090Y-70129517D01*
X129804089Y-70129518D01*
X129648219Y-70285387D01*
X129586895Y-70318871D01*
X129517204Y-70313886D01*
X129482420Y-70291531D01*
X129482245Y-70291788D01*
X129473537Y-70285823D01*
X129472857Y-70285386D01*
X129472765Y-70285294D01*
X129369992Y-70239915D01*
X129344865Y-70237000D01*
X128955143Y-70237000D01*
X128955117Y-70237002D01*
X128930012Y-70239913D01*
X128930008Y-70239915D01*
X128827235Y-70285293D01*
X128747794Y-70364734D01*
X128702415Y-70467506D01*
X128702415Y-70467508D01*
X128699500Y-70492631D01*
X128699500Y-71757356D01*
X128699502Y-71757382D01*
X128702413Y-71782487D01*
X128702415Y-71782491D01*
X128747793Y-71885264D01*
X128747794Y-71885265D01*
X128827235Y-71964706D01*
X128892226Y-71993402D01*
X128930006Y-72010084D01*
X128930007Y-72010084D01*
X128930009Y-72010085D01*
X128933354Y-72010473D01*
X128936788Y-72011929D01*
X128939007Y-72012533D01*
X128938924Y-72012835D01*
X128947295Y-72016384D01*
X128962402Y-72017465D01*
X128978810Y-72029748D01*
X128997679Y-72037749D01*
X129006211Y-72050259D01*
X129018336Y-72059336D01*
X129025498Y-72078540D01*
X129037047Y-72095473D01*
X129037461Y-72110612D01*
X129042753Y-72124801D01*
X129038396Y-72144826D01*
X129038957Y-72165316D01*
X129030885Y-72179353D01*
X129027901Y-72193074D01*
X129006751Y-72221328D01*
X128848479Y-72379601D01*
X128787155Y-72413086D01*
X128717464Y-72408102D01*
X128661530Y-72366231D01*
X128647363Y-72342006D01*
X128602206Y-72239735D01*
X128522765Y-72160294D01*
X128419992Y-72114915D01*
X128394865Y-72112000D01*
X128005143Y-72112000D01*
X128005117Y-72112002D01*
X127980012Y-72114913D01*
X127980008Y-72114915D01*
X127877235Y-72160293D01*
X127797794Y-72239734D01*
X127752415Y-72342506D01*
X127752415Y-72342508D01*
X127749500Y-72367631D01*
X127749500Y-73632356D01*
X127749502Y-73632382D01*
X127752413Y-73657487D01*
X127752415Y-73657491D01*
X127797793Y-73760264D01*
X127797794Y-73760265D01*
X127877235Y-73839706D01*
X127980009Y-73885085D01*
X128005135Y-73888000D01*
X128037999Y-73887999D01*
X128105037Y-73907682D01*
X128150793Y-73960484D01*
X128162000Y-74011999D01*
X128162000Y-75425500D01*
X128142315Y-75492539D01*
X128089511Y-75538294D01*
X128038000Y-75549500D01*
X127430143Y-75549500D01*
X127430117Y-75549502D01*
X127405012Y-75552413D01*
X127405008Y-75552415D01*
X127302235Y-75597793D01*
X127222794Y-75677234D01*
X127177415Y-75780006D01*
X127177415Y-75780008D01*
X127174500Y-75805131D01*
X127174500Y-76194856D01*
X127174502Y-76194882D01*
X127177413Y-76219987D01*
X127177415Y-76219991D01*
X127222793Y-76322764D01*
X127222794Y-76322765D01*
X127302235Y-76402206D01*
X127405009Y-76447585D01*
X127430135Y-76450500D01*
X128694864Y-76450499D01*
X128694879Y-76450497D01*
X128694882Y-76450497D01*
X128719987Y-76447586D01*
X128719988Y-76447585D01*
X128719991Y-76447585D01*
X128822765Y-76402206D01*
X128902206Y-76322765D01*
X128947585Y-76219991D01*
X128950500Y-76194865D01*
X128950499Y-75805136D01*
X128950497Y-75805117D01*
X128947586Y-75780012D01*
X128947585Y-75780010D01*
X128947585Y-75780009D01*
X128902206Y-75677235D01*
X128822765Y-75597794D01*
X128786912Y-75581963D01*
X128733537Y-75536878D01*
X128713010Y-75470092D01*
X128713000Y-75468530D01*
X128713000Y-73345673D01*
X128732685Y-73278634D01*
X128749319Y-73257992D01*
X129019675Y-72987636D01*
X129437821Y-72569489D01*
X129499142Y-72536006D01*
X129568833Y-72540990D01*
X129624767Y-72582861D01*
X129649184Y-72648326D01*
X129649500Y-72657172D01*
X129649500Y-73632356D01*
X129649502Y-73632382D01*
X129652413Y-73657487D01*
X129652415Y-73657491D01*
X129697793Y-73760264D01*
X129697794Y-73760265D01*
X129777235Y-73839706D01*
X129880009Y-73885085D01*
X129905135Y-73888000D01*
X130294864Y-73887999D01*
X130294879Y-73887997D01*
X130294882Y-73887997D01*
X130319987Y-73885086D01*
X130319988Y-73885085D01*
X130319991Y-73885085D01*
X130422765Y-73839706D01*
X130502206Y-73760265D01*
X130547585Y-73657491D01*
X130550500Y-73632365D01*
X130550500Y-73534500D01*
X130570185Y-73467461D01*
X130622989Y-73421706D01*
X130674500Y-73410500D01*
X131414756Y-73410500D01*
X131481795Y-73430185D01*
X131484835Y-73432202D01*
X131488359Y-73434616D01*
X131585999Y-73477729D01*
X131586000Y-73477729D01*
X131586002Y-73477730D01*
X131609877Y-73480500D01*
X132065122Y-73480499D01*
X132088998Y-73477730D01*
X132186641Y-73434616D01*
X132186642Y-73434614D01*
X132190165Y-73432202D01*
X132256597Y-73410554D01*
X132260244Y-73410500D01*
X132514756Y-73410500D01*
X132581795Y-73430185D01*
X132584835Y-73432202D01*
X132588359Y-73434616D01*
X132685999Y-73477729D01*
X132686000Y-73477729D01*
X132686002Y-73477730D01*
X132709877Y-73480500D01*
X133165122Y-73480499D01*
X133188998Y-73477730D01*
X133286641Y-73434616D01*
X133286642Y-73434614D01*
X133290165Y-73432202D01*
X133308809Y-73426126D01*
X133325309Y-73415523D01*
X133354013Y-73411395D01*
X133356597Y-73410554D01*
X133360244Y-73410500D01*
X133514756Y-73410500D01*
X133581795Y-73430185D01*
X133584835Y-73432202D01*
X133588359Y-73434616D01*
X133685999Y-73477729D01*
X133686000Y-73477729D01*
X133686002Y-73477730D01*
X133709877Y-73480500D01*
X134165122Y-73480499D01*
X134188998Y-73477730D01*
X134286635Y-73434619D01*
X134286636Y-73434618D01*
X134286641Y-73434616D01*
X134362116Y-73359141D01*
X134405230Y-73261498D01*
X134408000Y-73237623D01*
X134407999Y-72882378D01*
X134405230Y-72858502D01*
X134393483Y-72831897D01*
X134362119Y-72760864D01*
X134362117Y-72760861D01*
X134362116Y-72760859D01*
X134286641Y-72685384D01*
X134263087Y-72674984D01*
X134236928Y-72663433D01*
X134223790Y-72652335D01*
X134207989Y-72645554D01*
X134197654Y-72630257D01*
X134183553Y-72618346D01*
X134178500Y-72601908D01*
X134168874Y-72587660D01*
X134168449Y-72569205D01*
X134163026Y-72551560D01*
X134167662Y-72535001D01*
X134167267Y-72517809D01*
X134176887Y-72502053D01*
X134181865Y-72484278D01*
X134194880Y-72472588D01*
X134203680Y-72458178D01*
X134229906Y-72441130D01*
X134232925Y-72438419D01*
X134234887Y-72437467D01*
X134286641Y-72414616D01*
X134290982Y-72410274D01*
X134306153Y-72402920D01*
X134331838Y-72398622D01*
X134356597Y-72390554D01*
X134360244Y-72390500D01*
X135106142Y-72390500D01*
X135106144Y-72390500D01*
X135195288Y-72366614D01*
X135275212Y-72320470D01*
X137080470Y-70515212D01*
X137126614Y-70435288D01*
X137144616Y-70368103D01*
X137150500Y-70346144D01*
X137150500Y-68874500D01*
X137170185Y-68807461D01*
X137222989Y-68761706D01*
X137274500Y-68750500D01*
X141464071Y-68750500D01*
X141548615Y-68733682D01*
X141589744Y-68725501D01*
X141708127Y-68676465D01*
X141790545Y-68621395D01*
X141857221Y-68600519D01*
X141859434Y-68600499D01*
X142981517Y-68600499D01*
X142981518Y-68600499D01*
X143075304Y-68585646D01*
X143188342Y-68528050D01*
X143278050Y-68438342D01*
X143335646Y-68325304D01*
X143335646Y-68325302D01*
X143335647Y-68325301D01*
X143350500Y-68231524D01*
X143350500Y-67974500D01*
X143370185Y-67907461D01*
X143422989Y-67861706D01*
X143474500Y-67850500D01*
X146925501Y-67850500D01*
X146992540Y-67870185D01*
X147038295Y-67922989D01*
X147049501Y-67974500D01*
X147049501Y-68231518D01*
X147064354Y-68325304D01*
X147121950Y-68438342D01*
X147121952Y-68438344D01*
X147121954Y-68438347D01*
X147211652Y-68528045D01*
X147211654Y-68528046D01*
X147211658Y-68528050D01*
X147324694Y-68585645D01*
X147324698Y-68585647D01*
X147418475Y-68600499D01*
X147418481Y-68600500D01*
X148581518Y-68600499D01*
X148675304Y-68585646D01*
X148788342Y-68528050D01*
X148878050Y-68438342D01*
X148935646Y-68325304D01*
X148935646Y-68325302D01*
X148935647Y-68325301D01*
X148950499Y-68231524D01*
X148950500Y-68231519D01*
X148950499Y-66720806D01*
X148970184Y-66653768D01*
X148986813Y-66633131D01*
X150933127Y-64686819D01*
X150994450Y-64653334D01*
X151020808Y-64650500D01*
X153058448Y-64650500D01*
X153125487Y-64670185D01*
X153131329Y-64674179D01*
X153136653Y-64678046D01*
X153136655Y-64678047D01*
X153136658Y-64678050D01*
X153227821Y-64724500D01*
X153249698Y-64735647D01*
X153343475Y-64750499D01*
X153343481Y-64750500D01*
X154656518Y-64750499D01*
X154750304Y-64735646D01*
X154863342Y-64678050D01*
X154953050Y-64588342D01*
X155010646Y-64475304D01*
X155010646Y-64475302D01*
X155010647Y-64475301D01*
X155025499Y-64381524D01*
X155025500Y-64381519D01*
X155025499Y-63618482D01*
X155010646Y-63524696D01*
X154953050Y-63411658D01*
X154953046Y-63411654D01*
X154953045Y-63411652D01*
X154863347Y-63321954D01*
X154863344Y-63321952D01*
X154863342Y-63321950D01*
X154766019Y-63272361D01*
X154750301Y-63264352D01*
X154656524Y-63249500D01*
X153343482Y-63249500D01*
X153262519Y-63262323D01*
X153249696Y-63264354D01*
X153136658Y-63321950D01*
X153136657Y-63321950D01*
X153136653Y-63321953D01*
X153131329Y-63325821D01*
X153065522Y-63349298D01*
X153058448Y-63349500D01*
X150635929Y-63349500D01*
X150510261Y-63374497D01*
X150504429Y-63376267D01*
X150503743Y-63374007D01*
X150444658Y-63380345D01*
X150382187Y-63349054D01*
X150346550Y-63288956D01*
X150349062Y-63219132D01*
X150379025Y-63170640D01*
X150862846Y-62686819D01*
X150924169Y-62653334D01*
X150950527Y-62650500D01*
X153311160Y-62650500D01*
X153363520Y-62663614D01*
X153363878Y-62662753D01*
X153369504Y-62665083D01*
X153369505Y-62665084D01*
X153506087Y-62721658D01*
X153506091Y-62721658D01*
X153506092Y-62721659D01*
X153651079Y-62750500D01*
X153651082Y-62750500D01*
X154348920Y-62750500D01*
X154479771Y-62724471D01*
X154493913Y-62721658D01*
X154630495Y-62665084D01*
X154753416Y-62582951D01*
X154857951Y-62478416D01*
X154940084Y-62355495D01*
X154996658Y-62218913D01*
X155020869Y-62097201D01*
X155025500Y-62073920D01*
X155025500Y-61926079D01*
X154996659Y-61781092D01*
X154996658Y-61781091D01*
X154996658Y-61781087D01*
X154977270Y-61734280D01*
X154940087Y-61644511D01*
X154940080Y-61644498D01*
X154857951Y-61521584D01*
X154857948Y-61521580D01*
X154753419Y-61417051D01*
X154753415Y-61417048D01*
X154630501Y-61334919D01*
X154630488Y-61334912D01*
X154493917Y-61278343D01*
X154493907Y-61278340D01*
X154348920Y-61249500D01*
X154348918Y-61249500D01*
X153651082Y-61249500D01*
X153651080Y-61249500D01*
X153506092Y-61278340D01*
X153506086Y-61278342D01*
X153363878Y-61337247D01*
X153363520Y-61336385D01*
X153311160Y-61349500D01*
X150565649Y-61349500D01*
X150450644Y-61372377D01*
X150439976Y-61374499D01*
X150439975Y-61374499D01*
X150321595Y-61423533D01*
X150321586Y-61423538D01*
X150215051Y-61494723D01*
X150215047Y-61494726D01*
X148396593Y-63313181D01*
X148335270Y-63346666D01*
X148308912Y-63349500D01*
X143474499Y-63349500D01*
X143407460Y-63329815D01*
X143361705Y-63277011D01*
X143350499Y-63225500D01*
X143350499Y-62168482D01*
X143347756Y-62151165D01*
X143335646Y-62074696D01*
X143278050Y-61961658D01*
X143278046Y-61961654D01*
X143278045Y-61961652D01*
X143188347Y-61871954D01*
X143188344Y-61871952D01*
X143188342Y-61871950D01*
X143101344Y-61827622D01*
X143075301Y-61814352D01*
X142981524Y-61799500D01*
X141618482Y-61799500D01*
X141537519Y-61812323D01*
X141524696Y-61814354D01*
X141411658Y-61871950D01*
X141411657Y-61871951D01*
X141411652Y-61871954D01*
X141321954Y-61961652D01*
X141321951Y-61961657D01*
X141264352Y-62074698D01*
X141249500Y-62168475D01*
X141249500Y-62550500D01*
X141229815Y-62617539D01*
X141177011Y-62663294D01*
X141125500Y-62674500D01*
X139231470Y-62674500D01*
X139164431Y-62654815D01*
X139118676Y-62602011D01*
X139118036Y-62600587D01*
X139102206Y-62564735D01*
X139022765Y-62485294D01*
X139007188Y-62478416D01*
X138919992Y-62439915D01*
X138894865Y-62437000D01*
X138505143Y-62437000D01*
X138505117Y-62437002D01*
X138480012Y-62439913D01*
X138480008Y-62439915D01*
X138366724Y-62489935D01*
X138364993Y-62486014D01*
X138319227Y-62500536D01*
X138251777Y-62482307D01*
X138228862Y-62464246D01*
X138046796Y-62282180D01*
X138013311Y-62220857D01*
X138018295Y-62151165D01*
X138060167Y-62095232D01*
X138125631Y-62070815D01*
X138134456Y-62070499D01*
X138397622Y-62070499D01*
X138421498Y-62067730D01*
X138519135Y-62024619D01*
X138519136Y-62024618D01*
X138519141Y-62024616D01*
X138583783Y-61959974D01*
X138645106Y-61926489D01*
X138714798Y-61931473D01*
X138759145Y-61959974D01*
X138812984Y-62013813D01*
X138912338Y-62057682D01*
X138936627Y-62060500D01*
X139303372Y-62060499D01*
X139327662Y-62057682D01*
X139427016Y-62013813D01*
X139503813Y-61937016D01*
X139547682Y-61837662D01*
X139550500Y-61813373D01*
X139550499Y-61386628D01*
X139547682Y-61362338D01*
X139503813Y-61262984D01*
X139427016Y-61186187D01*
X139402554Y-61175386D01*
X139327663Y-61142318D01*
X139303373Y-61139500D01*
X138936634Y-61139500D01*
X138936611Y-61139502D01*
X138912340Y-61142317D01*
X138912337Y-61142318D01*
X138812984Y-61186186D01*
X138812983Y-61186187D01*
X138759145Y-61240026D01*
X138697822Y-61273511D01*
X138628130Y-61268527D01*
X138583783Y-61240026D01*
X138519143Y-61175386D01*
X138519141Y-61175384D01*
X138519138Y-61175383D01*
X138519136Y-61175381D01*
X138421500Y-61132270D01*
X138421501Y-61132270D01*
X138397623Y-61129500D01*
X138042384Y-61129500D01*
X138042361Y-61129502D01*
X138018504Y-61132269D01*
X138018501Y-61132269D01*
X137920864Y-61175380D01*
X137920856Y-61175386D01*
X137845386Y-61250856D01*
X137845380Y-61250866D01*
X137823432Y-61300571D01*
X137778345Y-61353947D01*
X137711559Y-61374473D01*
X137644277Y-61355634D01*
X137597862Y-61303409D01*
X137596590Y-61300624D01*
X137574616Y-61250859D01*
X137499141Y-61175384D01*
X137499138Y-61175383D01*
X137499136Y-61175381D01*
X137401500Y-61132270D01*
X137401501Y-61132270D01*
X137377623Y-61129500D01*
X137022384Y-61129500D01*
X137022361Y-61129502D01*
X136998504Y-61132269D01*
X136998501Y-61132269D01*
X136900864Y-61175380D01*
X136900856Y-61175386D01*
X136862181Y-61214062D01*
X136800858Y-61247547D01*
X136731166Y-61242563D01*
X136675233Y-61200691D01*
X136650816Y-61135227D01*
X136650500Y-61126381D01*
X136650500Y-60750173D01*
X136650499Y-60750170D01*
X136638206Y-60720492D01*
X136612364Y-60658103D01*
X136541897Y-60587636D01*
X135165942Y-59211681D01*
X135132457Y-59150358D01*
X135137441Y-59080666D01*
X135179313Y-59024733D01*
X135244777Y-59000316D01*
X135253623Y-59000000D01*
X158993907Y-59000000D01*
X159006061Y-59000597D01*
G37*
G04 #@! TD.AperFunction*
G04 #@! TA.AperFunction,Conductor*
G36*
X139355203Y-77709909D02*
G01*
X139361681Y-77715941D01*
X139463181Y-77817441D01*
X139496666Y-77878764D01*
X139499500Y-77905122D01*
X139499500Y-79094877D01*
X139479815Y-79161916D01*
X139463181Y-79182558D01*
X138732558Y-79913181D01*
X138671235Y-79946666D01*
X138644877Y-79949500D01*
X136054500Y-79949500D01*
X135987461Y-79929815D01*
X135941706Y-79877011D01*
X135930500Y-79825500D01*
X135930499Y-79555123D01*
X135950183Y-79488084D01*
X135966813Y-79467447D01*
X136562364Y-78871898D01*
X136600500Y-78779829D01*
X136600500Y-78747748D01*
X136607726Y-78727519D01*
X136616149Y-78715932D01*
X136620185Y-78702191D01*
X136636283Y-78688241D01*
X136648814Y-78671007D01*
X136659653Y-78666791D01*
X137317036Y-78009407D01*
X137334075Y-78072993D01*
X137399901Y-78187007D01*
X137492993Y-78280099D01*
X137607007Y-78345925D01*
X137670590Y-78362962D01*
X137038282Y-78995269D01*
X137038282Y-78995270D01*
X137092449Y-79034624D01*
X137281782Y-79131095D01*
X137483870Y-79196757D01*
X137693754Y-79230000D01*
X137906246Y-79230000D01*
X138116127Y-79196757D01*
X138116130Y-79196757D01*
X138318217Y-79131095D01*
X138507554Y-79034622D01*
X138561716Y-78995270D01*
X138561717Y-78995270D01*
X137929408Y-78362962D01*
X137992993Y-78345925D01*
X138107007Y-78280099D01*
X138200099Y-78187007D01*
X138265925Y-78072993D01*
X138282962Y-78009409D01*
X138915270Y-78641717D01*
X138915270Y-78641716D01*
X138954622Y-78587554D01*
X139051095Y-78398217D01*
X139116757Y-78196130D01*
X139116757Y-78196127D01*
X139150000Y-77986246D01*
X139150000Y-77803622D01*
X139169685Y-77736583D01*
X139222489Y-77690828D01*
X139291647Y-77680884D01*
X139355203Y-77709909D01*
G37*
G04 #@! TD.AperFunction*
G04 #@! TA.AperFunction,Conductor*
G36*
X132334402Y-70870185D02*
G01*
X132380157Y-70922989D01*
X132390101Y-70992147D01*
X132381927Y-71021945D01*
X132380203Y-71026106D01*
X132380201Y-71026114D01*
X132349500Y-71140691D01*
X132349500Y-71259309D01*
X132380201Y-71373886D01*
X132439511Y-71476613D01*
X132439513Y-71476615D01*
X132520639Y-71557741D01*
X132554124Y-71619064D01*
X132549140Y-71688756D01*
X132537979Y-71711351D01*
X132530536Y-71723206D01*
X132512884Y-71740859D01*
X132497304Y-71776142D01*
X132492520Y-71783764D01*
X132472821Y-71801202D01*
X132455844Y-71821300D01*
X132447074Y-71823995D01*
X132440204Y-71830077D01*
X132414202Y-71834097D01*
X132389057Y-71841825D01*
X132380222Y-71839351D01*
X132371155Y-71840753D01*
X132347111Y-71830079D01*
X132321776Y-71822985D01*
X132315680Y-71816126D01*
X132307295Y-71812404D01*
X132292837Y-71790424D01*
X132275361Y-71770760D01*
X132274085Y-71767966D01*
X132262116Y-71740859D01*
X132186641Y-71665384D01*
X132186638Y-71665383D01*
X132186636Y-71665381D01*
X132089000Y-71622270D01*
X132089001Y-71622270D01*
X132065123Y-71619500D01*
X131609884Y-71619500D01*
X131609861Y-71619502D01*
X131586004Y-71622269D01*
X131586001Y-71622269D01*
X131488364Y-71665380D01*
X131478882Y-71671877D01*
X131477726Y-71670189D01*
X131429239Y-71696666D01*
X131402881Y-71699500D01*
X129724499Y-71699500D01*
X129715813Y-71696949D01*
X129706852Y-71698238D01*
X129682811Y-71687259D01*
X129657460Y-71679815D01*
X129651532Y-71672974D01*
X129643296Y-71669213D01*
X129629006Y-71646978D01*
X129611705Y-71627011D01*
X129609417Y-71616496D01*
X129605522Y-71610435D01*
X129600499Y-71575500D01*
X129600499Y-71517256D01*
X129620184Y-71450217D01*
X129636818Y-71429575D01*
X130179574Y-70886819D01*
X130240897Y-70853334D01*
X130267255Y-70850500D01*
X132267363Y-70850500D01*
X132334402Y-70870185D01*
G37*
G04 #@! TD.AperFunction*
G04 #@! TA.AperFunction,Conductor*
G36*
X136855703Y-61979906D02*
G01*
X136862181Y-61985938D01*
X136900859Y-62024616D01*
X136900862Y-62024617D01*
X136900863Y-62024618D01*
X136998499Y-62067729D01*
X136998502Y-62067730D01*
X137017409Y-62069923D01*
X137081733Y-62097201D01*
X137090801Y-62105416D01*
X138035287Y-63049903D01*
X138068772Y-63111226D01*
X138069223Y-63161776D01*
X138049500Y-63260928D01*
X138049500Y-63260931D01*
X138049500Y-63389069D01*
X138049500Y-63389071D01*
X138049499Y-63389071D01*
X138074497Y-63514738D01*
X138074499Y-63514744D01*
X138123533Y-63633124D01*
X138123538Y-63633133D01*
X138194723Y-63739668D01*
X138194725Y-63739671D01*
X138213179Y-63758124D01*
X138246666Y-63819446D01*
X138249500Y-63845806D01*
X138249500Y-63957356D01*
X138249502Y-63957381D01*
X138252414Y-63982488D01*
X138252415Y-63982491D01*
X138297793Y-64085264D01*
X138297794Y-64085265D01*
X138377235Y-64164706D01*
X138480009Y-64210085D01*
X138505135Y-64213000D01*
X138894864Y-64212999D01*
X138894879Y-64212997D01*
X138894882Y-64212997D01*
X138919987Y-64210086D01*
X138919988Y-64210085D01*
X138919991Y-64210085D01*
X139022765Y-64164706D01*
X139102206Y-64085265D01*
X139118036Y-64049412D01*
X139163122Y-63996037D01*
X139229908Y-63975510D01*
X139231470Y-63975500D01*
X141125501Y-63975500D01*
X141192540Y-63995185D01*
X141238295Y-64047989D01*
X141249501Y-64099500D01*
X141249501Y-64231518D01*
X141264354Y-64325304D01*
X141321950Y-64438342D01*
X141321952Y-64438344D01*
X141321954Y-64438347D01*
X141411652Y-64528045D01*
X141411654Y-64528046D01*
X141411658Y-64528050D01*
X141524696Y-64585646D01*
X141524698Y-64585647D01*
X141618475Y-64600499D01*
X141618481Y-64600500D01*
X142825230Y-64600499D01*
X142872682Y-64609938D01*
X142910251Y-64625499D01*
X142910256Y-64625501D01*
X142910260Y-64625501D01*
X142910261Y-64625502D01*
X143035928Y-64650500D01*
X147134825Y-64650500D01*
X147201864Y-64670185D01*
X147247619Y-64722989D01*
X147257563Y-64792147D01*
X147228538Y-64855703D01*
X147218460Y-64864951D01*
X147218558Y-64865049D01*
X147121954Y-64961652D01*
X147121951Y-64961657D01*
X147121950Y-64961658D01*
X147102751Y-64999337D01*
X147064352Y-65074698D01*
X147049500Y-65168475D01*
X147049500Y-66425500D01*
X147029815Y-66492539D01*
X146977011Y-66538294D01*
X146925500Y-66549500D01*
X143474499Y-66549500D01*
X143407460Y-66529815D01*
X143361705Y-66477011D01*
X143350499Y-66425500D01*
X143350499Y-66168482D01*
X143342549Y-66118286D01*
X143335646Y-66074696D01*
X143278050Y-65961658D01*
X143278046Y-65961654D01*
X143278045Y-65961652D01*
X143188347Y-65871954D01*
X143188344Y-65871952D01*
X143188342Y-65871950D01*
X143110631Y-65832354D01*
X143075301Y-65814352D01*
X142981524Y-65799500D01*
X141618482Y-65799500D01*
X141537519Y-65812323D01*
X141524696Y-65814354D01*
X141411658Y-65871950D01*
X141411657Y-65871951D01*
X141411652Y-65871954D01*
X141321954Y-65961652D01*
X141321951Y-65961657D01*
X141321950Y-65961658D01*
X141303413Y-65998038D01*
X141264352Y-66074698D01*
X141249500Y-66168475D01*
X141249500Y-67279190D01*
X141240856Y-67308626D01*
X141234333Y-67338616D01*
X141230577Y-67343632D01*
X141229815Y-67346229D01*
X141213182Y-67366870D01*
X141166873Y-67413180D01*
X141105550Y-67446666D01*
X141079191Y-67449500D01*
X138461284Y-67449500D01*
X138394245Y-67429815D01*
X138348490Y-67377011D01*
X138338546Y-67307853D01*
X138367571Y-67244297D01*
X138385156Y-67228600D01*
X138389139Y-67224616D01*
X138389141Y-67224616D01*
X138464616Y-67149141D01*
X138507730Y-67051498D01*
X138510500Y-67027623D01*
X138510499Y-66572378D01*
X138507730Y-66548502D01*
X138478446Y-66482180D01*
X138464619Y-66450864D01*
X138464617Y-66450861D01*
X138464616Y-66450859D01*
X138401818Y-66388061D01*
X138368334Y-66326737D01*
X138365500Y-66300380D01*
X138365500Y-65485202D01*
X138365500Y-65485200D01*
X138358264Y-65467730D01*
X138323558Y-65383942D01*
X138236818Y-65297202D01*
X138203333Y-65235879D01*
X138200499Y-65209521D01*
X138200499Y-64567643D01*
X138200499Y-64567636D01*
X138198954Y-64554311D01*
X138197586Y-64542512D01*
X138197585Y-64542510D01*
X138197585Y-64542509D01*
X138152206Y-64439735D01*
X138072765Y-64360294D01*
X137997418Y-64327025D01*
X137969992Y-64314915D01*
X137944865Y-64312000D01*
X137555143Y-64312000D01*
X137555117Y-64312002D01*
X137530012Y-64314913D01*
X137530008Y-64314915D01*
X137427235Y-64360293D01*
X137347794Y-64439734D01*
X137302415Y-64542506D01*
X137302415Y-64542508D01*
X137299500Y-64567631D01*
X137299500Y-64800500D01*
X137279815Y-64867539D01*
X137227011Y-64913294D01*
X137175500Y-64924500D01*
X137155198Y-64924500D01*
X137083599Y-64954158D01*
X137053939Y-64966443D01*
X137053938Y-64966444D01*
X136857592Y-65162791D01*
X136796269Y-65196276D01*
X136726577Y-65191292D01*
X136670644Y-65149420D01*
X136646227Y-65083956D01*
X136648294Y-65050917D01*
X136650500Y-65039827D01*
X136650500Y-62073619D01*
X136670185Y-62006580D01*
X136722989Y-61960825D01*
X136792147Y-61950881D01*
X136855703Y-61979906D01*
G37*
G04 #@! TD.AperFunction*
G04 #@! TA.AperFunction,Conductor*
G36*
X134655702Y-59410409D02*
G01*
X134662180Y-59416441D01*
X136113181Y-60867442D01*
X136146666Y-60928765D01*
X136149500Y-60955123D01*
X136149500Y-64834876D01*
X136129815Y-64901915D01*
X136113181Y-64922557D01*
X135742556Y-65293181D01*
X135681233Y-65326666D01*
X135654876Y-65329500D01*
X135412384Y-65329500D01*
X135412361Y-65329502D01*
X135388504Y-65332269D01*
X135388501Y-65332269D01*
X135290864Y-65375380D01*
X135290856Y-65375386D01*
X135215386Y-65450856D01*
X135215381Y-65450863D01*
X135172270Y-65548499D01*
X135169500Y-65572375D01*
X135169500Y-65950192D01*
X135164944Y-65965704D01*
X135165386Y-65981869D01*
X135155302Y-65998541D01*
X135149815Y-66017231D01*
X135137596Y-66027818D01*
X135129228Y-66041656D01*
X135111731Y-66050230D01*
X135097011Y-66062986D01*
X135081008Y-66065286D01*
X135066488Y-66072403D01*
X135047136Y-66070157D01*
X135027853Y-66072930D01*
X135012400Y-66066126D01*
X134997084Y-66064349D01*
X134975858Y-66050036D01*
X134966883Y-66046085D01*
X134962153Y-66042207D01*
X134939669Y-66019723D01*
X134912963Y-66001879D01*
X134908278Y-65998038D01*
X134897325Y-65981976D01*
X134885307Y-65968450D01*
X134883787Y-65969555D01*
X134878051Y-65961661D01*
X134878050Y-65961658D01*
X134788342Y-65871950D01*
X134710686Y-65832382D01*
X134675301Y-65814352D01*
X134581524Y-65799500D01*
X134581519Y-65799500D01*
X134289478Y-65799500D01*
X134222439Y-65779815D01*
X134176684Y-65727011D01*
X134166740Y-65657853D01*
X134187081Y-65605565D01*
X134193609Y-65596006D01*
X134253557Y-65536059D01*
X134280712Y-65470500D01*
X134282844Y-65465351D01*
X134290092Y-65454740D01*
X134307583Y-65440421D01*
X134312541Y-65434268D01*
X134311015Y-65432742D01*
X134323573Y-65420184D01*
X134394616Y-65349141D01*
X134437730Y-65251498D01*
X134440500Y-65227623D01*
X134440499Y-64772378D01*
X134437730Y-64748502D01*
X134432054Y-64735647D01*
X134394619Y-64650864D01*
X134394617Y-64650861D01*
X134394616Y-64650859D01*
X134319141Y-64575384D01*
X134319138Y-64575383D01*
X134319136Y-64575381D01*
X134221500Y-64532270D01*
X134221501Y-64532270D01*
X134197623Y-64529500D01*
X133842384Y-64529500D01*
X133842361Y-64529502D01*
X133818504Y-64532269D01*
X133818501Y-64532269D01*
X133720864Y-64575380D01*
X133720856Y-64575386D01*
X133645386Y-64650856D01*
X133645380Y-64650866D01*
X133623432Y-64700571D01*
X133578345Y-64753947D01*
X133511559Y-64774473D01*
X133444277Y-64755634D01*
X133397862Y-64703409D01*
X133396590Y-64700624D01*
X133374616Y-64650859D01*
X133299141Y-64575384D01*
X133299138Y-64575383D01*
X133299136Y-64575381D01*
X133201500Y-64532270D01*
X133201501Y-64532270D01*
X133177623Y-64529500D01*
X132822384Y-64529500D01*
X132822361Y-64529502D01*
X132798504Y-64532269D01*
X132798501Y-64532269D01*
X132700864Y-64575380D01*
X132700856Y-64575386D01*
X132625386Y-64650856D01*
X132618890Y-64660340D01*
X132617861Y-64659635D01*
X132613506Y-64664790D01*
X132605783Y-64681703D01*
X132591428Y-64690928D01*
X132580418Y-64703963D01*
X132562645Y-64709425D01*
X132547005Y-64719477D01*
X132514943Y-64724086D01*
X132513632Y-64724490D01*
X132512070Y-64724500D01*
X132307930Y-64724500D01*
X132240891Y-64704815D01*
X132201890Y-64659805D01*
X132201110Y-64660340D01*
X132196417Y-64653489D01*
X132195136Y-64652011D01*
X132194624Y-64650872D01*
X132194617Y-64650862D01*
X132194616Y-64650859D01*
X132131818Y-64588061D01*
X132098334Y-64526737D01*
X132095500Y-64500380D01*
X132095500Y-64149186D01*
X132099725Y-64117092D01*
X132104439Y-64099500D01*
X132120500Y-64039562D01*
X132120500Y-63960438D01*
X132100021Y-63884011D01*
X132100020Y-63884009D01*
X132099725Y-63882908D01*
X132095500Y-63850814D01*
X132095500Y-63799619D01*
X132115185Y-63732580D01*
X132131819Y-63711938D01*
X132144257Y-63699500D01*
X132194616Y-63649141D01*
X132237730Y-63551498D01*
X132240500Y-63527623D01*
X132240499Y-63072378D01*
X132237730Y-63048502D01*
X132225523Y-63020855D01*
X132194619Y-62950864D01*
X132194617Y-62950861D01*
X132194616Y-62950859D01*
X132119141Y-62875384D01*
X132119138Y-62875383D01*
X132119136Y-62875381D01*
X132021500Y-62832270D01*
X132021501Y-62832270D01*
X131997623Y-62829500D01*
X131642384Y-62829500D01*
X131642361Y-62829502D01*
X131618504Y-62832269D01*
X131618501Y-62832269D01*
X131520864Y-62875380D01*
X131520856Y-62875386D01*
X131445386Y-62950856D01*
X131445380Y-62950866D01*
X131423432Y-63000571D01*
X131378345Y-63053947D01*
X131311559Y-63074473D01*
X131244277Y-63055634D01*
X131197862Y-63003409D01*
X131196565Y-63000569D01*
X131181035Y-62965397D01*
X131171963Y-62896119D01*
X131201787Y-62832934D01*
X131206771Y-62827647D01*
X132387821Y-61646597D01*
X132449142Y-61613114D01*
X132518834Y-61618098D01*
X132574767Y-61659970D01*
X132599184Y-61725434D01*
X132599500Y-61734280D01*
X132599500Y-62569856D01*
X132599502Y-62569882D01*
X132602413Y-62594987D01*
X132602415Y-62594991D01*
X132647793Y-62697764D01*
X132735360Y-62785331D01*
X132732921Y-62787769D01*
X132764755Y-62826759D01*
X132774500Y-62874944D01*
X132774500Y-63114800D01*
X132816443Y-63216058D01*
X132816444Y-63216059D01*
X133033181Y-63432796D01*
X133066666Y-63494119D01*
X133069500Y-63520476D01*
X133069500Y-63727615D01*
X133069502Y-63727638D01*
X133072269Y-63751495D01*
X133072269Y-63751498D01*
X133115380Y-63849135D01*
X133115383Y-63849139D01*
X133115384Y-63849141D01*
X133190859Y-63924616D01*
X133190862Y-63924617D01*
X133190863Y-63924618D01*
X133288499Y-63967729D01*
X133288500Y-63967729D01*
X133288502Y-63967730D01*
X133312377Y-63970500D01*
X133667622Y-63970499D01*
X133691498Y-63967730D01*
X133789135Y-63924619D01*
X133789136Y-63924618D01*
X133789141Y-63924616D01*
X133864616Y-63849141D01*
X133907730Y-63751498D01*
X133910500Y-63727623D01*
X133910499Y-63272378D01*
X133907730Y-63248502D01*
X133893405Y-63216059D01*
X133864619Y-63150864D01*
X133864617Y-63150861D01*
X133864616Y-63150859D01*
X133789141Y-63075384D01*
X133789138Y-63075383D01*
X133789136Y-63075381D01*
X133691500Y-63032270D01*
X133691501Y-63032270D01*
X133667624Y-63029500D01*
X133667623Y-63029500D01*
X133460477Y-63029500D01*
X133431036Y-63020855D01*
X133401050Y-63014332D01*
X133396034Y-63010577D01*
X133393438Y-63009815D01*
X133372796Y-62993181D01*
X133361819Y-62982204D01*
X133328334Y-62920881D01*
X133325500Y-62894523D01*
X133325500Y-62874944D01*
X133345185Y-62807905D01*
X133365891Y-62786582D01*
X133364640Y-62785331D01*
X133399471Y-62750500D01*
X133452206Y-62697765D01*
X133497585Y-62594991D01*
X133500500Y-62569865D01*
X133500500Y-62404314D01*
X133520185Y-62337275D01*
X133572989Y-62291520D01*
X133642147Y-62281576D01*
X133686497Y-62296925D01*
X133726114Y-62319799D01*
X133840691Y-62350500D01*
X133840694Y-62350500D01*
X133959306Y-62350500D01*
X133959309Y-62350500D01*
X134073886Y-62319799D01*
X134176613Y-62260489D01*
X134260489Y-62176613D01*
X134319799Y-62073886D01*
X134350500Y-61959309D01*
X134350500Y-61840691D01*
X134319799Y-61726114D01*
X134260489Y-61623387D01*
X134176613Y-61539511D01*
X134073886Y-61480201D01*
X133959309Y-61449500D01*
X133840691Y-61449500D01*
X133735505Y-61477684D01*
X133726110Y-61480202D01*
X133686499Y-61503072D01*
X133618599Y-61519545D01*
X133552572Y-61496692D01*
X133509381Y-61441771D01*
X133500499Y-61395685D01*
X133500499Y-61305143D01*
X133500499Y-61305136D01*
X133499970Y-61300571D01*
X133497586Y-61280012D01*
X133497585Y-61280010D01*
X133497585Y-61280009D01*
X133452206Y-61177235D01*
X133372765Y-61097794D01*
X133269992Y-61052415D01*
X133268309Y-61052219D01*
X133266636Y-61052025D01*
X133263194Y-61050565D01*
X133260993Y-61049967D01*
X133261074Y-61049666D01*
X133252697Y-61046114D01*
X133237594Y-61045034D01*
X133221183Y-61032749D01*
X133202313Y-61024746D01*
X133193782Y-61012235D01*
X133181661Y-61003162D01*
X133174497Y-60983957D01*
X133162948Y-60967020D01*
X133162534Y-60951883D01*
X133157244Y-60937698D01*
X133161601Y-60917668D01*
X133161042Y-60897177D01*
X133169111Y-60883143D01*
X133172096Y-60869425D01*
X133193244Y-60841174D01*
X133351523Y-60682895D01*
X133412844Y-60649412D01*
X133482536Y-60654396D01*
X133538469Y-60696268D01*
X133552636Y-60720492D01*
X133597793Y-60822764D01*
X133597794Y-60822765D01*
X133677235Y-60902206D01*
X133780009Y-60947585D01*
X133805135Y-60950500D01*
X134194864Y-60950499D01*
X134194879Y-60950497D01*
X134194882Y-60950497D01*
X134219987Y-60947586D01*
X134219988Y-60947585D01*
X134219991Y-60947585D01*
X134322765Y-60902206D01*
X134402206Y-60822765D01*
X134447585Y-60719991D01*
X134450500Y-60694865D01*
X134450499Y-59504121D01*
X134470184Y-59437083D01*
X134522987Y-59391328D01*
X134592146Y-59381384D01*
X134655702Y-59410409D01*
G37*
G04 #@! TD.AperFunction*
G04 #@! TA.AperFunction,Conductor*
G36*
X128757055Y-59019685D02*
G01*
X128802810Y-59072489D01*
X128812754Y-59141647D01*
X128797403Y-59185998D01*
X128739821Y-59285734D01*
X128709120Y-59400311D01*
X128709120Y-59518929D01*
X128739821Y-59633506D01*
X128799131Y-59736233D01*
X128883007Y-59820109D01*
X128985734Y-59879419D01*
X129100311Y-59910120D01*
X129100314Y-59910120D01*
X129218926Y-59910120D01*
X129218929Y-59910120D01*
X129333506Y-59879419D01*
X129436233Y-59820109D01*
X129520109Y-59736233D01*
X129579419Y-59633506D01*
X129610120Y-59518929D01*
X129610120Y-59414742D01*
X129618766Y-59385296D01*
X129625289Y-59355314D01*
X129629042Y-59350300D01*
X129629805Y-59347703D01*
X129646440Y-59327060D01*
X129686683Y-59286818D01*
X129748006Y-59253333D01*
X129774363Y-59250500D01*
X133432208Y-59250500D01*
X133499247Y-59270185D01*
X133545002Y-59322989D01*
X133554946Y-59392147D01*
X133552584Y-59403552D01*
X133549500Y-59430131D01*
X133549500Y-59695034D01*
X133543868Y-59714211D01*
X133543156Y-59734189D01*
X133534225Y-59747051D01*
X133529815Y-59762073D01*
X133514709Y-59775161D01*
X133503309Y-59791583D01*
X133479356Y-59805795D01*
X133477011Y-59807828D01*
X133472957Y-59809593D01*
X133455907Y-59816656D01*
X133455903Y-59816658D01*
X133426243Y-59828943D01*
X133426243Y-59828944D01*
X130742181Y-62513007D01*
X130680858Y-62546492D01*
X130611166Y-62541508D01*
X130555233Y-62499636D01*
X130530816Y-62434172D01*
X130530500Y-62425326D01*
X130530500Y-60960439D01*
X130529076Y-60955123D01*
X130510021Y-60884011D01*
X130500455Y-60867442D01*
X130470464Y-60815495D01*
X130470458Y-60815487D01*
X130414512Y-60759541D01*
X130414504Y-60759535D01*
X130345995Y-60719982D01*
X130345990Y-60719979D01*
X130320513Y-60713152D01*
X130269562Y-60699500D01*
X127439562Y-60699500D01*
X127360438Y-60699500D01*
X127284010Y-60719978D01*
X127215489Y-60759540D01*
X127215486Y-60759542D01*
X126027674Y-61947353D01*
X126000000Y-59000000D01*
X128690016Y-59000000D01*
X128757055Y-59019685D01*
G37*
G04 #@! TD.AperFunction*
G04 #@! TA.AperFunction,Conductor*
G36*
X125920145Y-73019685D02*
G01*
X125965900Y-73072489D01*
X125977101Y-73122836D01*
X126001846Y-75758108D01*
X126017851Y-77462668D01*
X126017966Y-77474836D01*
X125998911Y-77542057D01*
X125946539Y-77588306D01*
X125893971Y-77600000D01*
X119641830Y-77600000D01*
X119641825Y-77599999D01*
X119641823Y-77600000D01*
X119606889Y-77594975D01*
X119591890Y-77590570D01*
X119533144Y-77552827D01*
X119533115Y-77552793D01*
X119533114Y-77552793D01*
X119533113Y-77552791D01*
X119531957Y-77551458D01*
X119504477Y-77496583D01*
X119502832Y-77489021D01*
X119500000Y-77462668D01*
X119500000Y-73141829D01*
X119505023Y-73106893D01*
X119509427Y-73091895D01*
X119547172Y-73033144D01*
X119547200Y-73033119D01*
X119547199Y-73033119D01*
X119548541Y-73031956D01*
X119603420Y-73004477D01*
X119610979Y-73002833D01*
X119637332Y-73000000D01*
X125853106Y-73000000D01*
X125920145Y-73019685D01*
G37*
G04 #@! TD.AperFunction*
M02*
